<svg width="230" height="140" viewBox="0 0 230 140" fill="none" xmlns="http://www.w3.org/2000/svg">
<path d="M214.667 140H15.3333C6.86806 140 0 133.729 0 126V14C0 6.27083 6.86806 0 15.3333 0H214.667C223.132 0 230 6.27083 230 14V126C230 133.729 223.132 140 214.667 140ZM89.6489 60.2292C89.2783 60.235 88.9525 60.3925 88.7417 60.6375C88.4989 60.865 88.3456 61.1742 88.3392 61.5125C88.3392 61.635 88.9653 63.3792 90.3069 66.955L93.2075 74.69L94.5556 78.295C96.0676 82.3394 96.8577 84.49 96.9258 84.7467C94.0444 87.99 91.31 91.6067 88.8822 95.41L88.6394 95.8183C88.6331 95.865 88.6267 95.9117 88.6267 95.9642C88.6267 96.5475 89.1442 97.0258 89.7894 97.0258C89.8469 97.0258 89.9044 97.02 89.9619 97.0142H89.9556H97.7372C98.5039 97.0083 99.1683 96.6408 99.5453 96.0867L99.5517 96.0808L125.312 62.1367C125.439 61.9792 125.522 61.7867 125.522 61.5708C125.522 61.5417 125.522 61.5125 125.516 61.4833V61.4892C125.503 61.145 125.356 60.8417 125.114 60.6142C124.903 60.3692 124.577 60.2117 124.213 60.2058H116.425C115.658 60.2117 114.987 60.5792 114.61 61.1333L114.604 61.1392L103.871 75.5242L99.4303 61.6875C99.1939 60.83 98.3569 60.2058 97.3667 60.2058C97.3092 60.2058 97.2581 60.2058 97.2006 60.2117H97.2069L89.6489 60.2292ZM178.953 59.5817C178.902 59.5817 178.844 59.5817 178.787 59.5817C173.944 59.5817 169.593 61.5008 166.59 64.5458L166.577 64.5575C163.415 67.55 161.466 71.6275 161.466 76.1192V76.2767V76.2708C161.454 76.44 161.454 76.6442 161.454 76.8425C161.454 79.975 162.789 82.8275 164.961 84.945L164.955 84.9392C167.216 86.9458 170.309 88.1825 173.714 88.1825C173.918 88.1825 174.129 88.1767 174.334 88.1708H174.302C176.455 88.1475 178.499 87.745 180.365 87.0217L180.262 87.0567C182.147 86.4092 183.744 85.4 185.003 84.1167L185.016 84.105C184.952 84.4375 184.882 84.7175 184.799 84.9858L184.811 84.9275C184.703 85.2542 184.633 85.6333 184.607 86.0242V86.0358C184.607 87.0158 185.048 87.5117 185.923 87.5117H192.893C192.951 87.5175 193.008 87.5175 193.079 87.5175C194.165 87.5175 195.053 86.7417 195.117 85.7675V85.7617L199.257 61.6875C199.269 61.6175 199.282 61.5358 199.282 61.4542C199.282 61.1508 199.161 60.8708 198.956 60.655C198.726 60.3692 198.362 60.1883 197.953 60.1883C197.947 60.1883 197.941 60.1883 197.934 60.1883H190.267C189.328 60.1883 188.734 61.2092 188.542 63.2333C186.581 60.9525 183.566 59.5058 180.173 59.5058C179.745 59.5058 179.317 59.5292 178.902 59.5758L178.953 59.57V59.5817ZM64.1892 59.5817C64.1381 59.5817 64.0742 59.5817 64.0103 59.5817C59.1739 59.5817 54.8231 61.5008 51.8331 64.5458L51.8203 64.5575C48.6578 67.55 46.7092 71.6275 46.7092 76.1192V76.2767V76.2708C46.7028 76.44 46.6964 76.6325 46.6964 76.8308C46.6964 79.9692 48.0317 82.8217 50.2103 84.9392L50.2039 84.9333C52.4656 86.94 55.5578 88.1767 58.9694 88.1767C59.1739 88.1767 59.3783 88.1708 59.5828 88.165H59.5508C61.6719 88.1358 63.6844 87.7333 65.5181 87.0158L65.4158 87.0508C67.3261 86.3858 68.9489 85.3825 70.2586 84.105L70.265 84.0992C70.0286 84.6708 69.8817 85.3358 69.8625 86.0242V86.0358C69.8625 87.0158 70.3097 87.5117 71.1786 87.5117H78.1425C78.2 87.5175 78.2575 87.5175 78.3278 87.5175C79.4139 87.5175 80.3019 86.7417 80.3658 85.7675V85.7617L84.5122 61.6875C84.525 61.6233 84.5314 61.5533 84.5314 61.4775C84.5314 61.1683 84.41 60.8825 84.2056 60.6667C83.9756 60.3808 83.6114 60.2 83.2025 60.2C83.1961 60.2 83.1897 60.2 83.1833 60.2H75.5167C74.5775 60.2 73.9833 61.2208 73.7981 63.245C71.8047 60.97 68.7636 59.5233 65.3519 59.5233C64.9431 59.5233 64.5469 59.5467 64.1508 59.5817L64.2019 59.5758L64.1892 59.5817ZM208.354 46.6667C208.322 46.6667 208.291 46.6608 208.252 46.6608C207.613 46.6608 207.089 47.11 207.038 47.6758L200.471 86.0533C200.445 86.1408 200.426 86.24 200.426 86.3392C200.426 86.6367 200.56 86.9108 200.771 87.1092C201.007 87.3658 201.359 87.5233 201.755 87.5233H201.793H208.463C208.527 87.5292 208.597 87.535 208.667 87.535C209.728 87.535 210.584 86.7533 210.584 85.785C210.584 85.7792 210.584 85.7792 210.584 85.7733L217.139 48.0608C217.146 48.02 217.146 47.9792 217.146 47.9325C217.146 47.5883 217.018 47.2675 216.807 47.0108V47.0167C216.583 46.8008 216.264 46.6608 215.912 46.6608C215.881 46.6608 215.849 46.6608 215.817 46.6667H208.354ZM133.796 46.6667C133.719 46.655 133.63 46.6492 133.541 46.6492C132.467 46.6492 131.592 47.4367 131.573 48.4108L125.011 86.0475C124.999 86.1117 124.992 86.1817 124.992 86.2575C124.992 86.5667 125.114 86.8467 125.312 87.0625C125.535 87.3483 125.899 87.5292 126.308 87.5292H126.334H134.62H134.646C135.432 87.5292 136.083 87.0158 136.23 86.3392V86.3275L138.051 75.6292C138.109 75.145 138.371 74.725 138.76 74.4333C139.182 74.1183 139.712 73.9083 140.281 73.8325H140.3C140.817 73.745 141.412 73.6983 142.019 73.6925C142.555 73.6925 143.201 73.7217 143.942 73.7858C144.683 73.85 145.156 73.8792 145.36 73.8792C145.667 73.8967 146.024 73.9025 146.382 73.9025C151.257 73.9025 155.691 72.1933 159.007 69.3933L158.994 69.405C162.073 66.4183 163.971 62.3817 163.971 57.9425C163.971 57.61 163.958 57.2833 163.939 56.9508V56.9975C163.958 56.7758 163.971 56.5192 163.971 56.2567C163.971 53.34 162.438 50.7558 160.074 49.1225L160.048 49.105C157.39 47.5592 154.151 46.6433 150.676 46.6433C150.388 46.6433 150.107 46.6492 149.826 46.6608H149.864L133.796 46.6667ZM18.9111 46.6667C18.8472 46.6608 18.7769 46.655 18.7067 46.655C17.6461 46.655 16.79 47.4367 16.79 48.405V48.4167L10.2222 86.0533C10.2094 86.1175 10.2031 86.1933 10.2031 86.2692C10.2031 86.5725 10.3244 86.8525 10.5225 87.0683C10.7461 87.3542 11.1103 87.535 11.5192 87.535H11.5447H19.2114C19.2881 87.5467 19.3775 87.5525 19.4669 87.5525C20.5403 87.5525 21.4156 86.765 21.4347 85.7908L23.2556 75.6467C23.3131 75.1625 23.575 74.7425 23.9583 74.4508C24.38 74.1358 24.9103 73.9258 25.4789 73.85H25.4981C26.0092 73.7625 26.6033 73.7158 27.2103 73.71H27.2167C27.7533 73.71 28.3922 73.7392 29.1333 73.8033C29.8744 73.8675 30.3472 73.8967 30.5517 73.8967C30.8583 73.9142 31.2097 73.92 31.5675 73.92C36.4422 73.92 40.8761 72.2108 44.1983 69.4108L44.1856 69.4225C47.265 66.4358 49.1625 62.3933 49.1625 57.9542C49.1625 57.6217 49.1497 57.295 49.1306 56.9683V57.015C49.1497 56.7933 49.1625 56.5367 49.1625 56.2742C49.1625 53.3575 47.6292 50.7733 45.2653 49.14L45.2397 49.1225C42.5819 47.5767 39.3428 46.655 35.8672 46.655C35.5989 46.655 35.3306 46.6608 35.0622 46.6725H35.1006L18.9111 46.6667ZM178.531 80.7042C178.442 80.71 178.333 80.71 178.224 80.71C176.525 80.71 174.972 80.15 173.765 79.2225L173.778 79.2283C172.653 78.2775 171.951 76.9242 171.951 75.4192C171.951 75.3317 171.951 75.2442 171.957 75.1567V75.1683C171.957 75.1158 171.957 75.0575 171.957 74.9992C171.957 72.8175 172.922 70.84 174.487 69.405C176.027 67.9642 178.173 67.0717 180.55 67.0717H180.761H180.748C180.812 67.0717 180.889 67.0658 180.965 67.0658C182.684 67.0658 184.249 67.6433 185.45 68.5942L185.444 68.5883C186.6 69.5683 187.322 70.9683 187.322 72.52C187.322 72.6133 187.322 72.7067 187.316 72.8V72.7883V72.9283C187.316 75.0808 186.338 77.0292 184.76 78.4117C183.208 79.8233 181.061 80.6925 178.697 80.6925C178.646 80.6925 178.589 80.6925 178.537 80.6925L178.531 80.7042ZM63.6653 80.7042C63.5694 80.71 63.4608 80.71 63.3458 80.71C61.6719 80.71 60.1322 80.15 58.9567 79.2225L58.9631 79.2283C57.8706 78.2717 57.1869 76.9242 57.1869 75.4308C57.1869 75.3375 57.1869 75.2442 57.1933 75.1567V75.1683C57.1933 75.1158 57.1933 75.0575 57.1933 74.9992C57.1933 72.8175 58.1581 70.84 59.7233 69.405C61.2631 67.9642 63.4033 67.0717 65.78 67.0717H66.0036H65.9908C66.0547 67.0717 66.1314 67.0658 66.2081 67.0658C67.9267 67.0658 69.4919 67.6433 70.6931 68.5942L70.6867 68.5883C71.8431 69.5683 72.5586 70.9683 72.5586 72.5142C72.5586 72.6075 72.5586 72.7067 72.5522 72.8V72.7883V72.9925C72.5522 75.145 71.5747 77.0817 69.9967 78.4642C68.4186 79.8467 66.2719 80.7042 63.9017 80.7042C63.825 80.7042 63.7419 80.7042 63.6653 80.7042ZM139.738 65.7708L141.456 55.9067C141.508 55.335 142.031 54.8917 142.664 54.8917C142.702 54.8917 142.741 54.8917 142.772 54.8975H144.587C144.702 54.8975 144.842 54.8917 144.977 54.8917C146.082 54.8917 147.174 54.9617 148.241 55.0958L148.12 55.0842C149.11 55.2475 149.973 55.6558 150.65 56.2392C151.404 56.8925 151.87 57.8083 151.87 58.8292C151.87 58.905 151.87 58.9808 151.864 59.0508V59.0392C151.896 59.2608 151.915 59.5117 151.915 59.7742C151.915 61.5825 151.04 63.1983 149.653 64.295L149.647 64.3008C147.948 65.1933 145.909 65.7242 143.737 65.7242C143.469 65.7242 143.207 65.7183 142.939 65.7008H142.977L139.751 65.7942L139.738 65.7708ZM24.8719 65.7708L26.5906 55.9067C26.6417 55.335 27.1592 54.8917 27.7917 54.8917C27.83 54.8917 27.8683 54.8917 27.9067 54.8975H29.8169C30.0597 54.88 30.3408 54.8683 30.6219 54.8683C32.4619 54.8683 34.2061 55.2708 35.7394 55.9825L35.6756 55.9533C36.8831 56.6592 37.2919 58.1583 36.8894 60.4217C36.8192 62.2008 35.8033 63.7467 34.2828 64.6567L34.2636 64.6683C32.0658 65.4208 29.5231 65.8583 26.8653 65.8583C26.1625 65.8583 25.4661 65.8292 24.7825 65.765L24.8719 65.7708Z" fill="#44E2EE"/>
</svg>
