<svg width="100" height="50" viewBox="0 0 100 50" fill="none" xmlns="http://www.w3.org/2000/svg">
<path d="M100 2.33988V47.6492C100 48.9394 98.5586 50 96.8053 50H3.19453C1.44121 50 0 48.9394 0 47.6492V2.33988C0 1.04972 1.44121 0 3.19453 0H96.8053C98.5586 0 100 1.04972 100 2.33988Z" fill="url(#paint0_linear_223_1698)"/>
<g opacity="0.2">
<path d="M58.4713 14.8421C58.2551 14.6631 58.1201 14.5042 57.85 14.5936C57.5799 14.683 57.5799 14.8122 57.2961 14.6532C57.0125 14.4943 57.134 14.3053 56.499 14.1364C55.8641 13.9674 55.7291 13.8681 55.0401 13.7985C54.3512 13.729 53.8514 13.6594 53.8108 13.6594C53.7703 13.6594 53.9594 13.7488 53.6893 13.8482C53.4192 13.9477 53.2029 13.9675 52.9328 13.8383C52.6627 13.7091 52.6762 13.6693 52.217 13.6992C51.7576 13.7291 51.4875 13.8086 51.285 13.8284C51.0824 13.8482 51.285 13.8185 50.9742 13.6594C50.6635 13.5003 50.8797 13.4109 50.3393 13.4407C49.799 13.4706 49.5694 13.489 49.4342 13.4349C49.299 13.381 49.4612 13.1026 48.9344 12.9833C48.4076 12.8641 48.2994 12.9536 48.0293 12.9237C47.7592 12.894 47.7727 12.8442 47.0028 12.8044C46.2328 12.7646 46.2733 12.8541 45.7465 12.9734C45.2197 13.0927 45.0846 13.0927 44.5983 13.0729C44.1119 13.0531 44.2336 13.2716 43.9363 13.3015C43.6391 13.3313 43.1664 13.1127 43.1123 12.9835C43.0582 12.8543 43.5176 12.7152 43.1123 12.5959C42.707 12.4766 41.9506 12.2479 41.802 12.2877C41.6533 12.3276 41.7344 12.5065 41.4643 12.5561C41.1942 12.6058 40.843 12.6058 40.4242 12.4667C40.0055 12.3276 39.8434 12.2587 39.3977 12.2832C38.952 12.3076 38.7088 12.407 38.3305 12.4269C37.9522 12.4467 37.7227 12.3274 37.9793 12.238C38.236 12.1486 38.5602 11.8802 38.5602 11.751C38.5602 11.6218 38.7492 11.3434 38.317 11.3136C37.8848 11.2839 37.8037 11.5025 37.3985 11.3136C36.9932 11.1248 36.4664 11.1149 36.3178 11.1745C36.1692 11.2341 36.1692 11.3336 35.9125 11.3634C35.6559 11.3931 35.7504 11.5621 35.4397 11.6218C35.1289 11.6814 35.1695 11.5025 34.4535 11.5522C33.7375 11.6019 33.0486 11.6715 32.8731 11.8205C32.6975 11.9696 32.9137 12.1386 32.5354 12.2678C32.157 12.397 31.2926 12.2975 31.1846 12.4069C31.0766 12.5163 31.6574 12.894 31.2656 13.063C30.8738 13.232 30.6307 12.9437 29.7258 13.063C28.8207 13.1823 28.9287 13.1624 28.5912 13.3115C28.2535 13.4605 28.186 13.3612 27.9834 13.5699C27.7809 13.7785 27.1729 13.9675 26.7541 13.9675C26.3354 13.9675 26.1598 13.7787 25.6194 13.9378C25.0791 14.0969 25.1602 14.2061 24.309 14.1565C23.458 14.1068 23.1069 14.1167 22.9447 14.1963C22.7826 14.2758 22.7826 14.4747 22.3639 14.5641C21.9451 14.6535 21.2967 14.8126 21.1346 14.7828C20.9725 14.7531 20.4188 14.9519 20.0404 14.9816C19.6621 15.0115 19.4461 14.9915 19.3246 14.8822C19.2029 14.7728 19.068 14.5839 19.2571 14.6436C19.4461 14.7032 19.6082 14.7827 19.9459 14.7728C20.2836 14.7629 20.6619 14.5641 20.5809 14.4547C20.4998 14.3454 20.5674 14.1864 19.9055 14.0671C19.2436 13.9478 18.96 13.9677 18.4602 13.6994C17.9604 13.431 18.6492 13.2521 17.3391 13.3514C16.0287 13.4509 15.6776 13.5502 15.1508 13.8385C14.624 14.1268 14.5158 14.3753 13.9756 14.7231C13.4354 15.071 13.6244 15.1703 12.949 15.4188C12.2737 15.6673 12.1656 15.548 11.9629 15.9257C11.7602 16.3034 11.6252 16.7407 12.044 16.8203C12.4627 16.8998 12.8949 16.7607 13.1112 16.7011C13.3274 16.6414 13.4895 16.7508 13.5164 16.9297C13.5434 17.1086 13.5569 17.4069 13.8272 17.4465C14.0973 17.4863 14.6647 17.208 14.6377 16.9198C14.6108 16.6315 14.5162 16.4327 14.7863 16.1444C15.0565 15.8561 15.232 15.6475 15.5158 15.548C15.7994 15.4486 16.1912 15.2698 16.0426 15.4983C15.894 15.7269 15.6238 15.9953 15.8129 16.2239C16.002 16.4526 16.4342 16.2935 16.5424 16.5221C16.6504 16.7508 16.3938 16.9694 16.3262 17.049C16.2586 17.1285 16.4883 17.2279 16.1776 17.387C15.8668 17.546 15.6643 17.715 15.3266 17.9038C14.9889 18.0927 13.9893 18.2219 13.7596 18.1822C13.5299 18.1424 13.1518 18.1822 13.1246 17.9536C13.0977 17.7249 13.4623 17.4764 13.0842 17.3671C12.7059 17.2577 12.2871 17.4069 12.1656 17.7945C12.044 18.1821 11.8549 18.2516 11.5444 18.4405C11.2336 18.6293 11.4903 19.2058 10.5854 19.3152C9.68029 19.4245 9.16701 19.2654 9.23459 19.504C9.30217 19.7426 9.86955 19.5934 9.88303 19.9911C9.8965 20.3886 10.0317 20.5279 9.63986 20.6073C9.24807 20.6868 9.15353 20.5378 8.62678 20.667C8.10002 20.7962 8.12697 21.2832 8.01896 21.4919C7.91096 21.7006 7.85686 21.8894 8.20803 21.979C8.5592 22.0684 9.12658 22.2275 9.54533 22.0983C9.96408 21.9691 10.2072 21.9492 10.2613 21.7107C10.3154 21.4721 10.4504 21.3231 10.7342 21.2832C11.0178 21.2434 11.2071 21.0049 11.369 20.8657C11.5311 20.7266 11.369 20.7763 11.7877 20.7863C12.2065 20.7962 12.5983 20.4682 12.7467 20.5576C12.8953 20.647 13.341 20.836 13.6246 21.0348C13.9082 21.2335 14.3 21.2932 14.2324 21.5914C14.1649 21.8896 14.1379 22.2354 14.408 22.147C14.6781 22.0586 14.5836 21.7901 14.7592 21.6609C14.9348 21.5317 15.1645 21.651 15.1375 21.4224C15.1106 21.1937 14.6512 21.1341 14.408 20.9254C14.1649 20.7167 13.9758 20.488 14.2729 20.5576C14.5699 20.6272 15.1373 20.816 15.1914 20.9751C15.2455 21.1342 15.7453 21.4622 15.7992 21.7703C15.8533 22.0784 16.1504 22.3568 16.2856 22.1977C16.4207 22.0386 16.299 21.9193 16.5963 21.8797C16.8934 21.8399 16.7854 21.6809 16.9475 21.4721C17.1096 21.2634 17.5553 21.5715 17.7174 21.1838C17.8795 20.7962 17.5149 20.6627 17.9199 20.4511C18.3252 20.2396 18.5008 20.1004 18.6223 20.2893C18.7438 20.4781 19.0545 20.6769 19.2031 20.4781C19.3518 20.2794 18.933 20.2197 19.2842 20.0705C19.6354 19.9215 19.9461 19.7426 19.8516 20.001C19.7571 20.2594 19.6219 20.4284 19.8651 20.6073C20.1082 20.7863 20.824 20.8956 20.4324 21.0546C20.0406 21.2137 19.4735 21.1241 18.9465 21.2932C18.4197 21.4622 18.3387 21.3826 18.2035 21.7007C18.0684 22.0188 18.0549 22.1182 18.5006 22.1182C18.9463 22.1182 19.149 21.8896 19.2705 22.1779C19.392 22.4662 19.3651 23.1122 19.176 23.1718C18.9869 23.2315 18.9059 23.1421 18.0684 23.2117C17.2309 23.2812 17.2713 23.4304 16.5959 23.1818C15.9205 22.9333 15.7584 22.6251 15.5153 22.9333C15.2721 23.2414 15.4477 23.3982 14.9209 23.3199C14.3942 23.2414 14.7723 23.0725 14.0699 22.9433C13.3676 22.8141 13.2324 22.8539 13.2324 22.6253C13.2324 22.3966 13.327 22.0984 12.7731 22.0687C12.2192 22.0389 11.2467 22.2078 10.4496 22.3768C9.65256 22.5458 9.81467 22.337 8.89611 22.5756C7.97756 22.8141 7.41018 22.8936 7.31564 23.2614C7.22111 23.6292 6.91037 23.8378 6.70783 24.0367C6.50529 24.2355 6.39709 25.1103 6.34318 25.647C6.28908 26.1838 6.47834 25.9353 6.27561 26.3328C6.07287 26.7305 6.64025 27.3566 6.86994 27.5255C7.09963 27.6945 7.8426 28.2312 8.31525 28.271C8.78811 28.3108 8.74748 28.1418 9.47697 28.2213C10.2065 28.3007 10.193 27.9926 10.936 28.1319C11.6789 28.271 11.949 28.3704 12.3813 28.5395C12.8135 28.7085 12.8541 28.8476 12.8541 29.2552C12.8541 29.6628 12.8811 29.3546 13.2729 29.9311C13.6647 30.5075 14.3535 31.0443 13.9483 31.5413C13.543 32.0383 13.3674 32.1277 13.624 32.5949C13.8807 33.0621 14.5967 34.0064 14.6778 34.4835C14.7588 34.9607 14.5563 34.9904 14.6373 35.2787C14.7184 35.567 15.4479 35.8851 16.1098 35.6863C16.7717 35.4875 16.9742 35.4776 17.5147 35.1098C18.0549 34.7421 18.5953 35.0204 19.0006 34.255C19.4059 33.4897 19.2707 33.4002 19.4463 33.092C19.6219 32.7839 20.6756 32.3366 20.716 31.78C20.7565 31.2234 20.4863 30.8059 20.5809 30.2692C20.6754 29.7325 20.743 29.2654 21.4453 28.838C22.1477 28.4105 22.3098 28.828 22.7961 28.0229C23.2824 27.2178 23.8633 27.0191 23.3229 27.029C22.7824 27.0389 21.7289 27.3569 21.2832 27.178C20.8375 26.9991 20.108 26.184 19.9594 25.8064C19.8108 25.4287 19.8649 25.6175 19.6082 25.0807C19.3516 24.5439 19.1084 24.2657 19.0004 24.0569C18.8924 23.8482 18.8248 23.4804 19.149 23.7786C19.4733 24.0768 19.784 24.5241 20.2162 25.2099C20.6485 25.8957 20.9051 26.4226 21.2834 26.532C21.6617 26.6414 21.7832 26.7706 22.3506 26.6015C22.918 26.4325 23.1205 26.4127 23.661 26.194C24.2012 25.9752 24.5254 25.9356 24.9172 25.6473C25.309 25.359 26.2004 25.2397 25.2145 24.9614C24.2283 24.6832 23.8906 24.8421 23.607 24.5241C23.3235 24.206 22.8641 23.888 23.2828 23.9377C23.7016 23.9875 23.5395 24.0768 24.0123 24.1464C24.4852 24.216 24.8229 24.0593 25.0795 24.3115C25.3362 24.5639 25.7684 24.7428 26.1737 24.6036C26.5789 24.4645 26.741 24.385 27.1733 24.5638C27.6055 24.7427 27.3219 25.2496 27.9703 25.3887C28.6188 25.5278 28.7268 25.011 28.8619 25.6671C28.9971 26.3232 29.2537 26.9294 29.4832 27.0587C29.7129 27.1879 29.3617 27.7844 30.091 27.6253C30.8205 27.4662 31.0365 27.4861 31.0365 26.9295C31.0365 26.3729 31.0096 26.2338 31.4012 26.0349C31.793 25.8361 32.3332 25.6373 32.5764 25.4285C32.8195 25.2198 32.6709 25.0905 33.1572 25.1303C33.6436 25.1701 34.8457 26.1641 34.7916 26.3727C34.7375 26.5814 34.6836 26.661 34.9131 26.7903C35.1428 26.9195 35.1293 26.9593 35.3049 27.4264C35.4805 27.8936 35.4401 27.8239 35.9938 28.2614C36.5477 28.6987 37.3311 29.0068 37.2635 28.6888C37.1959 28.3707 36.9258 28.4104 36.6826 27.9035C36.4395 27.3966 36.1559 26.9393 36.4801 27.0686C36.8043 27.1978 36.7098 27.3867 37.0475 27.4265C37.3852 27.4663 37.4393 27.178 37.6959 27.0885C37.9526 26.9991 38.4119 26.2734 38.0471 25.9554C37.6824 25.6373 37.3041 25.4186 37.6824 25.3193C38.0608 25.2198 37.885 25.2895 38.3309 25.349C38.7766 25.4087 38.6416 25.2496 39.1819 25.1404C39.7221 25.031 40.5057 24.8521 40.9244 24.4545C41.3432 24.057 41.8024 23.9377 41.6809 23.4109C41.5594 22.8841 41.3973 22.6555 41.1406 22.5162C40.884 22.3771 40.8705 22.2776 41.1 22.218C41.3297 22.1583 41.924 22.1484 41.5863 22.0192C41.2486 21.89 41.4108 21.9596 41.019 21.89C40.6272 21.8205 40.2084 21.9596 40.5596 21.721C40.9108 21.4824 41.1809 21.2837 41.1809 21.2837C41.1809 21.2837 41.0863 21.3334 41.316 21.5123C41.5457 21.6913 41.6944 21.6118 41.8024 21.572C41.9104 21.5322 42.2346 21.3633 42.2752 21.5521C42.3158 21.741 41.8565 21.8801 42.1266 21.9497C42.3967 22.0192 42.6399 21.8403 42.5319 22.1982C42.4238 22.556 42.6399 22.884 42.8695 22.705C43.0992 22.5261 43.4369 21.9994 43.3694 21.7807C43.3018 21.5621 43.0721 21.6713 43.3828 21.2738C43.6936 20.8762 43.6936 20.5978 44.1123 20.6476C44.5311 20.6973 44.9363 20.3991 45.0985 20.2798C45.2606 20.1605 45.9494 19.8821 46.0574 19.5442C46.1654 19.2062 46.1115 19.1566 46.26 18.7689C46.4086 18.3813 46.7328 18.3813 46.3276 18.2023C45.9223 18.0234 45.6115 18.0632 45.5442 17.8643C45.4766 17.6656 46.6248 16.7013 47.1246 16.5523C47.6244 16.4033 47.9756 16.4728 48.3133 16.5821C48.651 16.6914 48.759 16.8007 49.0697 16.6615C49.3805 16.5224 49.583 16.4428 49.7586 16.4329C49.9342 16.423 50.4205 16.1545 50.6231 16.2738C50.8256 16.3931 50.8527 16.5223 51.0959 16.4428C51.3391 16.3633 51.6633 15.9458 51.7713 16.0949C51.8793 16.2439 51.8524 16.4228 51.5551 16.7111C51.2578 16.9994 51.0012 17.0491 50.6231 17.2777C50.2447 17.5063 50.0963 17.7449 50.0963 17.9536C50.0963 18.1622 49.9883 18.8581 50.1367 18.8681C50.2854 18.878 50.3258 18.8482 50.7176 18.4804C51.1094 18.1127 51.3119 18.0928 51.5686 17.9536C51.8252 17.8144 51.9197 17.6454 51.9604 17.3175C52.001 16.9895 51.7172 16.9099 52.136 16.741C52.5547 16.572 53.0545 16.3931 53.4733 16.4428C53.892 16.4925 53.7975 16.4826 54.1082 16.254C54.419 16.0253 54.635 15.8763 54.9592 15.8961C55.2834 15.9159 55.8102 15.9657 55.8912 15.8464C55.9723 15.7271 55.9047 15.6278 55.9182 15.4588C55.9317 15.2897 55.9047 15.2202 56.2154 15.1605C56.5262 15.1009 56.5125 15.0214 56.6612 14.9816C56.8098 14.9418 56.9043 15.0611 57.1475 15.1306C57.3906 15.2002 57.985 15.2101 58.1201 15.0809C58.2551 14.9514 58.4713 14.8421 58.4713 14.8421Z" fill="#040000"/>
<path d="M46.611 20.2492C46.7875 20.2971 47.1243 20.4977 47.327 20.4878C47.5295 20.4778 47.6377 20.6766 47.4756 20.6964C47.3135 20.7163 46.7733 20.9051 46.7733 20.9051C46.7733 20.9051 46.6112 20.7561 46.5167 20.9051C46.4221 21.0542 46.368 21.1635 46.3952 21.2531C46.4221 21.3425 46.6114 21.601 46.5032 21.7302C46.3952 21.8594 46.2465 21.929 46.2465 22.0881C46.2465 22.247 46.3817 22.416 46.1924 22.4856C46.0034 22.5552 45.8141 22.5751 45.6522 22.6148C45.4901 22.6546 45.3686 22.6645 45.301 22.7739C45.2334 22.8833 45.0713 23.0422 44.7336 23.0323C44.3959 23.0224 44.3959 22.8236 44.0852 23.0125C43.7745 23.2013 43.761 23.3107 43.5989 23.261C43.4368 23.2112 43.5583 23.1417 43.5989 22.9528C43.6393 22.764 43.045 22.8137 43.5854 22.595C44.1256 22.3762 44.1256 22.3465 44.4905 22.3067C44.8551 22.2669 45.0579 22.3961 45.2063 22.1675C45.3549 21.9389 45.2063 21.8495 45.5036 21.8396C45.8008 21.8297 45.9899 21.9291 46.0438 21.6805C46.0979 21.432 46.0573 21.2233 46.0438 21.0642C46.0303 20.9051 45.9493 20.7561 46.1924 20.6964C46.4356 20.6368 46.4625 20.7462 46.4897 20.607C46.5165 20.4678 46.3543 20.1796 46.611 20.2492Z" fill="#040000"/>
<path d="M41.181 25.6366C41.4376 25.6665 41.5591 26.0044 41.4783 26.1435C41.3972 26.2826 41.3162 26.4417 41.5458 26.4715C41.7755 26.5014 41.9376 26.5212 41.9376 26.6405C41.9376 26.7598 42.0322 26.5113 42.2078 26.8293C42.3833 27.1474 42.2212 27.1971 42.424 27.4357C42.6265 27.6742 42.8697 27.7935 42.5861 27.9128C42.3025 28.0321 42.5185 28.1613 42.2214 28.0917C41.9244 28.0222 42.0458 28.0618 41.8972 27.8532C41.7486 27.6445 41.654 27.8134 41.5191 27.8034C41.3839 27.7935 41.3435 27.7935 41.4515 27.6544C41.5595 27.5153 41.6136 27.5252 41.4921 27.3661C41.3707 27.207 41.5597 27.0182 41.3841 26.9884C41.2085 26.9587 41.1544 27.1773 40.8439 27.3164C40.5332 27.4555 40.074 27.4953 40.0874 27.4456C40.1009 27.3959 40.2765 27.3263 40.5603 27.0679C40.8439 26.8095 41.0197 26.9684 40.9656 26.5709C40.9115 26.1734 40.7224 26.2826 40.898 26.0044C41.073 25.7261 41.181 25.6366 41.181 25.6366Z" fill="#040000"/>
<path d="M40.3164 27.893C40.5209 28.0435 40.7892 28.0024 40.7082 28.1514C40.6271 28.3005 40.3865 28.3205 40.5203 28.4695C40.6541 28.6187 40.7757 28.8373 40.9513 28.8174C41.1269 28.7976 41.1134 28.6981 41.5457 28.6981C41.9779 28.6981 42.248 28.6286 42.2752 28.7578C42.3021 28.887 42.0861 28.8969 41.8023 29.0858C41.5187 29.2746 41.2349 29.4634 41.4646 29.5827C41.6943 29.702 41.7888 29.9208 41.7078 30.0002C41.6267 30.0797 41.5457 30.1593 41.7347 30.2586C41.9238 30.3581 42.8289 30.3282 42.6126 30.5668C42.3964 30.8053 41.8697 30.9345 41.3158 30.9445C40.7619 30.9544 41.2072 30.8351 40.0863 30.7556C38.9654 30.6761 38.7763 30.8848 37.9929 30.6066C37.2095 30.3282 36.696 30.5668 36.2638 30.0599C35.8316 29.553 36.0072 29.8015 35.4668 29.2746C34.9265 28.7479 35.1832 28.7479 34.7238 28.539C34.2644 28.3304 33.8728 28.0322 34.1835 28.0322C34.4943 28.0322 34.3457 27.7638 35.3046 28.3502C36.2636 28.9366 36.007 28.9068 36.7095 29.2548C37.4119 29.6027 37.6416 29.6424 37.8982 29.6027C38.1548 29.5629 38.5332 29.6027 38.29 29.3741C38.0468 29.1454 37.9117 28.8572 38.1144 28.8075C38.3171 28.7578 38.3035 29.0063 38.6412 28.738C38.9789 28.4696 38.9789 28.3999 39.2761 28.3105C39.5734 28.2211 39.4113 28.3105 39.6949 28.1813C39.9787 28.0521 40.0867 27.724 40.3164 27.893Z" fill="#040000"/>
<path d="M44.0313 29.0459C44.1782 29.1848 44.4231 29.3639 44.5311 29.5131C44.6391 29.6623 44.8419 29.3869 45.2335 29.3952C45.6253 29.4037 46.2061 29.5627 46.4493 29.6423C46.6924 29.7219 47.1112 29.7715 47.3678 30.0299C47.6245 30.2883 47.8135 30.1393 47.8272 30.3977C47.8407 30.6561 47.8948 30.6263 48.1243 30.7754C48.354 30.9244 48.3944 31.2028 47.9891 31.0835C47.5838 30.9642 47.4624 30.5568 47.0301 30.5964C46.5979 30.6362 46.7735 30.7256 46.4358 30.7754C46.0981 30.8251 45.9495 30.7356 45.5442 30.7157C45.1389 30.6959 44.8419 30.7952 45.0309 30.5269C45.22 30.2586 45.3551 30.2486 44.6932 30.0497C44.0313 29.851 43.7747 29.9503 43.7747 29.7416C43.7747 29.5329 43.8827 29.5129 43.626 29.334C43.3694 29.1551 43.2883 29.0259 43.4504 28.9363C43.6126 28.8469 43.9368 28.9563 44.0313 29.0459Z" fill="#040000"/>
<path d="M44.8147 31.9087C45.2604 32.0777 45.436 32.4156 45.6522 32.356C45.8684 32.2963 45.7873 32.1969 45.9493 31.8392C46.1114 31.4813 46.1248 31.1135 46.3276 31.2627C46.5301 31.4117 46.341 31.7028 46.6653 31.7959C46.9895 31.8889 47.0571 31.9586 47.1246 32.2368C47.1922 32.5152 47.2598 32.4257 47.5975 32.714C47.9352 33.0023 48.2385 32.9526 48.2961 33.2805C48.3539 33.6085 48.9213 33.9465 48.9483 34.2844C48.9752 34.6224 49.0563 34.8609 48.7186 35.2883C48.3809 35.7157 48.2457 35.9343 48.1377 36.1134C48.0297 36.2923 47.7055 36.3817 47.3543 36.3817C47.0032 36.3817 46.8004 36.2723 46.5844 36.3121C46.3682 36.3519 46.2198 36.5507 45.9631 36.4116C45.7065 36.2725 45.5578 36.0935 45.4768 35.9842C45.3957 35.8748 45.3553 35.507 44.977 35.5468C44.5989 35.5866 44.6528 35.7258 44.4231 35.5468C44.1934 35.3679 44.3555 35.2189 43.6801 35.1392C43.0047 35.0598 42.8291 35.0199 42.5453 35.0697C42.2618 35.1194 41.9645 35.189 41.6537 35.3679C41.343 35.5468 40.8567 35.4574 40.5866 35.5468C40.3164 35.6362 39.9112 35.8351 39.6139 35.7158C39.3166 35.5965 39.4248 35.5369 39.4383 35.2587C39.4518 34.9803 39.4248 35.1693 39.2358 34.6921C39.0467 34.215 39.1278 34.2845 38.9522 34.056C38.7766 33.8274 38.6414 33.9367 38.8846 33.6088C39.1278 33.2808 39.0467 33.2112 39.1817 33.1019C39.3168 32.9925 39.4383 33.1318 39.8977 32.9031C40.3571 32.6745 40.492 32.7739 40.9108 32.6546C41.3295 32.5353 41.4241 32.0782 41.6807 31.9389C41.9373 31.7998 42.0049 31.6904 42.194 31.6904C42.383 31.6904 42.5993 31.7699 42.9369 31.8693C43.2746 31.9688 43.2071 31.9787 43.4909 31.7501C43.7744 31.5214 43.4909 31.3028 44.0041 31.3425C44.5174 31.3823 44.7065 31.3226 44.7741 31.5412C44.8416 31.7597 44.8147 31.9087 44.8147 31.9087Z" fill="#040000"/>
<path d="M54.1893 36.6002C54.4594 36.3418 54.5946 36.3119 54.5001 36.0136C54.4055 35.7154 54.4325 35.4816 54.7837 35.7476C55.1348 36.0136 55.5266 36.1628 55.7967 36.1727C56.0669 36.1827 56.7153 36.3318 56.0534 36.6996C55.3915 37.0674 55.5132 36.809 54.9862 37.3557C54.4594 37.9024 54.8647 37.9123 54.2298 38.1806C53.5948 38.449 52.8925 38.5682 53.0276 38.3298C53.1628 38.0912 53.0952 38.0912 53.676 37.7732C54.2569 37.4551 54.635 37.2166 54.635 36.9482C54.635 36.6798 54.1893 36.6002 54.1893 36.6002Z" fill="#040000"/>
<path d="M21.9318 33.9165C21.6886 33.6581 21.6886 33.5785 21.6617 33.1612C21.6347 32.7437 21.4455 32.5449 21.6617 32.3063C21.8779 32.0677 22.4451 31.6702 22.6613 31.3918C22.8775 31.1136 22.9314 30.5172 23.0666 31.0538C23.2017 31.5906 23.634 31.9086 22.9855 32.6244C22.3371 33.3399 21.9318 33.9165 21.9318 33.9165Z" fill="#040000"/>
<path d="M8.93688 19.1259C8.88278 19.0464 9.12594 18.7879 9.12594 18.7879C9.12594 18.7879 9.42321 18.6686 9.34215 18.2313C9.2611 17.7939 9.207 18.0523 8.99098 17.6348C8.77477 17.2173 8.45075 17.2968 8.77477 17.0186C9.09899 16.7402 9.47711 16.3228 9.55817 16.6607C9.63922 16.9986 9.45016 17.2173 9.63922 17.3764C9.82829 17.5355 10.2066 17.5683 10.4226 17.8301C10.6388 18.092 11.5033 18.1914 10.8548 18.5293C10.2064 18.8673 9.90934 18.6486 9.66618 18.8872C9.42301 19.1259 8.93688 19.1259 8.93688 19.1259Z" fill="#040000"/>
<path d="M8.07243 18.8077C8.50466 18.6288 8.66266 18.6686 8.63766 18.3504C8.61266 18.0324 8.90993 17.754 8.45055 17.7342C7.99137 17.7143 7.85622 17.9131 7.80212 18.0522C7.74801 18.1913 7.74801 18.2311 7.88317 18.3703C8.01833 18.5094 8.04528 18.7083 7.99118 18.8076C7.93747 18.9072 8.07243 18.8077 8.07243 18.8077Z" fill="#040000"/>
<path d="M6.50554 15.7071C6.85671 15.5281 7.4241 15.6872 7.45105 15.3094C7.478 14.9317 7.61316 14.8322 6.82976 14.7926C6.04636 14.7528 6.04636 14.7528 5.56003 14.7926C5.0737 14.8324 4.61453 14.4745 4.99265 15.0113C5.37078 15.5481 5.42488 15.6674 5.72214 15.7071C6.01941 15.7467 6.50554 15.7071 6.50554 15.7071Z" fill="#040000"/>
<path d="M60.8894 14.2755C60.4677 13.9208 59.7818 13.8978 60.322 13.6791C60.8623 13.4605 61.1865 13.3212 61.7 13.2418C62.2133 13.1623 62.7537 13.3212 63.5912 13.4803C64.4287 13.6394 65.7795 13.5002 66.4009 13.6394C67.0222 13.7786 67.3195 14.0569 67.5086 14.037C67.6976 14.0171 68.2381 13.5996 68.7783 13.5996C69.3185 13.5996 69.5888 13.54 70.6965 13.6394C71.8041 13.7389 72.8847 13.7786 72.9117 13.9775C72.9386 14.1762 72.9386 14.2757 73.3439 14.2757C73.7492 14.2757 74.1004 14.0967 74.3435 14.3751C74.5867 14.6535 74.9648 14.8523 74.9109 14.6335C74.8568 14.4149 74.5867 14.236 74.8029 14.1564C75.0191 14.0769 75.6404 14.0371 75.8025 14.0769C75.9646 14.1167 76.4779 14.1764 76.64 14.1564C76.8021 14.1366 76.6941 13.9376 77.2343 14.0569C77.7746 14.1762 77.8556 14.4744 77.9638 14.4943C78.0718 14.5141 78.315 14.1886 78.342 13.9737C78.3689 13.7587 78.6121 13.7587 78.1259 13.4805C77.6396 13.2021 78.0789 12.8642 78.4265 12.9835C78.7742 13.1028 78.5582 13.2619 78.9093 13.5203C79.2605 13.7787 79.3146 13.9974 79.5578 13.9178C79.8009 13.8383 79.6658 13.5003 79.99 13.7587C80.3142 14.0171 80.3953 13.8869 80.6924 13.8427C80.9896 13.7984 80.7465 13.6593 81.0976 13.7984C81.4488 13.9375 82.0431 14.0966 81.6109 14.355C81.1787 14.6134 80.5302 14.5737 80.0711 14.7725C79.6117 14.9713 79.7468 14.9116 79.6117 15.1502C79.4765 15.3888 79.5306 15.4086 78.9904 15.5081C78.45 15.6075 78.2881 15.5279 78.315 15.8659C78.342 16.204 78.2881 16.2436 78.0988 16.4225C77.9097 16.6015 78.0177 16.7606 78.234 16.84C78.4502 16.9195 78.6931 16.7804 78.6931 17.019C78.6931 17.2576 79.0984 17.4365 79.6386 17.4365C80.1789 17.4365 80.422 17.5359 80.7463 17.834C81.0705 18.1322 80.6111 18.1521 81.1515 18.5297C81.6918 18.9074 82.2052 19.0864 82.2863 18.7485C82.3674 18.4106 82.2863 18.331 82.3674 17.9335C82.4484 17.5359 82.9617 17.4961 82.6916 17.1383C82.4215 16.7804 82.0162 16.6215 82.3943 16.4225C82.7726 16.2238 82.3133 16.0401 82.9617 15.9431C83.6101 15.8461 84.0424 15.7665 84.3125 16.1243C84.5826 16.4822 84.2855 16.7208 84.5556 16.8797C84.8258 17.0388 85.6632 16.8002 85.8254 16.6611C85.9875 16.522 86.4467 16.5418 86.6088 17.0586C86.7709 17.5755 86.8789 17.7147 87.122 17.7744C87.3652 17.834 87.3652 17.9533 87.6625 18.1521C87.9595 18.3508 88.5269 18.6689 87.6625 18.7285C86.798 18.7882 86.0955 18.7087 85.7713 18.9273C85.447 19.1459 85.4201 18.9869 85.6361 19.2851C85.8523 19.5834 85.6902 19.3846 85.8523 19.7623C86.0144 20.14 86.825 20.14 86.2304 20.3984C85.6359 20.6568 85.7441 20.7164 85.3929 20.637C85.0418 20.5575 84.9607 19.9866 84.5554 20.451C84.1502 20.9153 84.2043 21.0943 83.8531 21.2334C83.5019 21.3725 83.4748 21.0943 83.1508 21.5316C82.8265 21.9689 83.3398 22.0087 82.6105 22.5057C81.881 23.0027 81.5299 22.7641 81.4758 23.1816C81.4217 23.5991 81.773 24.0961 81.5838 24.1956C81.3947 24.295 81.4217 24.275 81.2056 23.9968C80.9894 23.7184 81.0976 23.5595 80.3412 23.5197C79.5847 23.4798 79.6388 23.3407 79.3416 23.5793C79.0443 23.8179 79.4496 23.8974 78.6121 23.8179C77.7746 23.7384 77.6666 23.0028 77.5045 23.8577C77.3424 24.7125 77.3154 24.8118 77.5855 25.0504C77.8556 25.289 78.5851 25.8654 78.9093 25.607C79.2336 25.3486 78.8283 25.0306 79.4498 25.1299C80.0711 25.2293 80.2332 25.1101 80.1252 25.3685C80.0172 25.6269 79.1797 25.6667 79.855 25.9052C80.5304 26.1438 81.0978 25.8654 81.1517 26.2433C81.2058 26.621 81.0707 26.7204 81.0976 26.939C81.1246 27.1576 81.2597 27.3167 81.881 27.3167C82.5023 27.3167 82.4754 27.1378 82.6375 27.3763C82.7996 27.6149 83.3129 27.4956 83.5291 27.1576C83.7453 26.8196 83.9074 26.4419 84.2314 26.8396C84.5556 27.2371 84.6095 27.3167 84.9338 27.1576C85.258 26.9985 85.258 26.9985 85.258 26.9985C85.258 26.9985 85.6092 26.7599 85.9064 26.9587C86.2037 27.1575 86.6898 26.9389 86.798 27.2171C86.906 27.4953 86.7439 27.5352 87.2033 27.6346C87.6627 27.7341 88.2029 27.575 88.473 27.8532C88.7431 28.1316 88.0136 27.9527 88.7972 28.2905C89.5806 28.6286 89.8238 28.6682 89.7699 28.887C89.7158 29.1057 89.932 29.1454 90.6343 29.2647C91.3367 29.384 91.2287 29.3243 91.7961 29.6424C92.3634 29.9604 92.8226 29.8213 93.0119 29.9804C93.201 30.1395 93.5252 30.1791 93.2551 30.6165C92.9849 31.0538 92.7148 30.9545 92.4986 31.2924C92.2824 31.6304 92.0933 31.7099 92.1474 32.3063C92.2015 32.9028 92.2285 32.8431 92.0664 33.1413C91.9043 33.4396 91.3099 33.4792 90.8236 33.698C90.3373 33.9167 90.3103 33.7378 89.9861 34.3341C89.6619 34.9305 89.851 34.6124 89.5808 35.1293C89.3107 35.6461 89.6888 35.3877 88.9054 35.6859C88.122 35.9841 87.8248 35.7257 87.7437 35.9046C87.6627 36.0835 88.2031 35.9444 87.6357 36.3221C87.0683 36.6998 86.8252 36.7993 86.474 36.9582C86.1228 37.1172 85.9066 37.2962 85.9877 37.6341C86.0687 37.972 86.474 37.9522 86.0146 38.2702C85.5552 38.5883 85.3662 38.2702 85.2312 38.787C85.0961 39.3038 84.9611 39.0654 85.0961 39.6021C85.2312 40.1389 85.9336 40.1389 85.2851 40.4371C84.6367 40.7353 83.9343 40.8744 83.5291 40.1588C83.1238 39.4431 83.1238 39.1649 83.1238 38.6877C83.1238 38.2106 83.0427 38.5684 83.367 37.7534C83.6912 36.9384 83.1508 37.2166 83.4211 36.3221C83.6912 35.4275 83.6373 34.4733 83.9074 33.8172C84.1775 33.1612 84.7718 33.3401 84.1775 32.7438C83.5832 32.1474 83.4752 32.2468 82.9619 31.8492C82.4486 31.4516 82.7728 31.5311 82.4756 31.054C82.1783 30.5768 81.9892 30.6166 81.7461 30.2588C81.5029 29.9009 81.3677 30.0202 81.6109 29.4239C81.8541 28.8275 81.3138 28.8475 81.8541 28.6685C82.3943 28.4896 82.3134 28.0523 82.2324 27.8932C82.1513 27.7341 82.6377 27.6744 81.8812 27.5949C81.1248 27.5155 80.9086 27.6944 80.6385 27.3564C80.3683 27.0183 80.5843 26.9588 80.0172 26.7599C79.4498 26.5612 78.8285 26.5612 78.6123 26.4021C78.3961 26.243 78.3961 26.243 78.3961 26.243C78.3961 26.243 78.8013 26.1237 77.8828 26.0442C76.9642 25.9647 76.2888 26.0442 75.8295 25.5671C75.3701 25.0899 75.4783 25.3683 75.3701 24.931C75.2621 24.4936 75.1269 24.4936 74.6947 24.2153C74.2625 23.937 74.2625 23.7779 73.8572 23.6586C73.4519 23.5393 73.3709 23.5792 73.3709 23.6388C73.3709 23.6984 73.3439 23.937 73.722 24.1556C74.1004 24.3744 74.1273 24.5731 74.1273 24.6724C74.1273 24.7719 73.614 24.8912 73.614 24.8912C73.614 24.8912 73.614 24.7719 73.4519 24.4936C73.2898 24.2153 73.2357 24.0761 72.9115 23.7383C72.5873 23.4004 72.5062 23.3606 72.5062 23.3606C72.5062 23.3606 72.1279 22.9232 71.4797 22.3468C70.8312 21.7703 70.6422 22.128 70.6422 21.4721C70.6422 20.816 70.8043 20.816 70.6422 20.3589C70.4801 19.9017 70.1019 19.6829 70.4259 19.6035C70.7502 19.524 70.9392 19.4047 70.3449 19.027C69.7506 18.6493 69.5343 18.8481 69.3183 18.3313C69.1021 17.8145 69.5615 17.8541 68.6699 17.6156C67.7783 17.377 67.6703 17.1782 67.265 17.0391C66.8597 16.9 66.6166 16.8205 66.6166 16.8205C66.6166 16.8205 66.6976 16.7609 65.725 16.7012C64.7523 16.6416 64.8605 16.3037 64.131 16.5223C63.4015 16.741 63.2935 16.7807 63.2935 16.7807C63.2935 16.7807 63.6988 16.4228 62.9965 16.4626C62.2941 16.5025 62.456 16.6217 62.4291 16.8603C62.4021 17.0989 62.5101 17.3771 62.0238 17.5164C61.5375 17.6555 60.8351 18.0332 61.1052 17.6357C61.3754 17.238 62.0508 16.9598 61.8076 16.8603C61.5644 16.7609 61.0511 17.0789 60.997 16.7609C60.9429 16.4428 61.0511 16.2837 60.4838 16.2639C59.9164 16.244 59.4572 16.0651 59.8894 15.9259C60.3217 15.7867 60.7269 15.8464 60.8621 15.5084C60.9972 15.1703 61.9968 15.0908 60.889 15.1108C59.7814 15.1307 59.2951 15.1307 59.4302 14.9717C59.5654 14.8126 59.5113 14.5145 60.2947 14.594C61.0785 14.6731 61.0785 14.4345 60.8894 14.2755Z" fill="#040000"/>
</g>
<path d="M16.5825 31.216C16.4635 31.0192 16.3151 30.8552 16.1219 30.724C15.9139 30.5928 15.6911 30.4945 15.4235 30.4179C15.1709 30.3522 14.8885 30.3196 14.6063 30.3196C14.309 30.3196 14.0268 30.3523 13.7743 30.4179C13.7446 30.4288 13.7 30.4397 13.6702 30.4508C13.4622 30.5274 13.2542 30.6146 13.0907 30.7241C12.8827 30.8554 12.734 31.0193 12.6151 31.2161C12.4961 31.4021 12.4368 31.6316 12.4368 31.8722V34.0808C12.4368 34.3323 12.4961 34.5509 12.6151 34.7477C12.7338 34.9446 12.8825 35.0977 13.0907 35.2398C13.2838 35.371 13.5215 35.4693 13.7741 35.5348C14.0266 35.6005 14.309 35.6333 14.6061 35.6333C14.7399 35.6333 14.8885 35.6224 15.0221 35.6114C15.1559 35.5896 15.3043 35.5676 15.4233 35.5348C15.6909 35.4693 15.9137 35.371 16.1217 35.2398C16.3149 35.0977 16.4635 34.9446 16.5823 34.7477C16.7012 34.5509 16.7606 34.3323 16.7606 34.0808V31.8722C16.7608 31.6314 16.7014 31.4018 16.5825 31.216ZM15.468 34.0698C15.468 34.2993 15.379 34.4633 15.2303 34.5946C15.0817 34.704 14.9034 34.7694 14.6805 34.7805H14.6063C14.3389 34.7805 14.1307 34.7148 13.9674 34.5946C13.8188 34.4633 13.7297 34.2994 13.7297 34.0698V31.894C13.7297 31.8502 13.7297 31.8174 13.7446 31.7846C13.7446 31.7737 13.7594 31.7628 13.7594 31.7628C13.7743 31.599 13.8485 31.4785 13.9674 31.3692C13.9971 31.3475 14.0268 31.3255 14.0565 31.3145C14.2051 31.2161 14.3834 31.1832 14.6063 31.1832C14.859 31.1832 15.0668 31.2379 15.2305 31.3692C15.3792 31.5004 15.4682 31.6753 15.4682 31.894L15.468 34.0698Z" fill="#CECECF"/>
<path d="M20.0295 30.3627L18.5881 31.2921V32.3198L20.0295 31.3905V35.589H21.3372V30.3627H20.0295Z" fill="#CECECF"/>
<path d="M23.7295 30.3627V32.0465H24.9629V31.2264H26.8498L24.5318 35.589H25.9434L28.2465 31.2264V30.3627H23.7295Z" fill="#CECECF"/>
<path d="M33.596 31.2157C33.477 31.019 33.3286 30.855 33.1354 30.7238C32.9274 30.5925 32.7046 30.4942 32.437 30.4176C32.1696 30.352 31.902 30.3193 31.6198 30.3193C31.3225 30.3193 31.0403 30.3521 30.7878 30.4176C30.5204 30.4942 30.2973 30.5925 30.1042 30.7238C29.8962 30.855 29.7327 31.019 29.6286 31.2157C29.5098 31.4017 29.4503 31.6312 29.4503 31.8718V34.0805C29.4503 34.332 29.5098 34.5506 29.6286 34.7473C29.7327 34.9442 29.8962 35.0973 30.1042 35.2394C30.2973 35.3706 30.5202 35.4689 30.7878 35.5345C31.0403 35.6001 31.3227 35.6329 31.6198 35.6329C31.902 35.6329 32.1696 35.6001 32.437 35.5345C32.7044 35.4689 32.9274 35.3706 33.1354 35.2394C33.3286 35.0973 33.4772 34.9442 33.596 34.7473C33.7147 34.5506 33.7743 34.332 33.7743 34.0805V31.8718C33.7741 31.6312 33.7147 31.4015 33.596 31.2157ZM32.4667 34.0695C32.4667 34.299 32.3924 34.463 32.2438 34.5944C32.0803 34.7145 31.8723 34.7802 31.6198 34.7802C31.3524 34.7802 31.1444 34.7145 30.9809 34.5944C30.8325 34.463 30.7432 34.2992 30.7432 34.0695V31.8938C30.7432 31.675 30.8325 31.5 30.9809 31.3689C31.1444 31.2377 31.3524 31.1829 31.6198 31.1829C31.8723 31.1829 32.0803 31.2377 32.2438 31.3689C32.3924 31.5001 32.4667 31.675 32.4667 31.8938V34.0695Z" fill="#CECECF"/>
<path d="M44.4722 33.3589C44.3832 33.1621 44.2345 32.9981 44.0562 32.8669C43.8779 32.7357 43.6847 32.6374 43.4619 32.5608C43.239 32.4952 43.0011 32.4623 42.7634 32.4623C42.6744 32.4623 42.5851 32.4623 42.496 32.4733C42.407 32.4842 42.3177 32.4951 42.2435 32.5279L42.7337 31.8173L43.7144 30.363H42.3029L42.1542 30.5818V30.5927L41.9759 30.8551L40.8021 32.6263C40.7873 32.6482 40.7724 32.6702 40.7576 32.692C40.6089 32.9106 40.4902 33.1183 40.3861 33.3261C40.2671 33.5447 40.2078 33.7854 40.2078 34.0259C40.2078 34.2774 40.2523 34.5069 40.3712 34.7145C40.4902 34.9114 40.6386 35.0863 40.8468 35.2176C40.9955 35.3269 41.1439 35.4035 41.3371 35.4691H41.3519C41.4115 35.4909 41.4857 35.5129 41.5451 35.5346C41.8125 35.6003 42.1097 35.6331 42.4218 35.6331C42.7337 35.6331 43.0162 35.6003 43.2835 35.5238C43.5658 35.4581 43.7888 35.3489 43.9968 35.2066L44.0117 35.1957C44.2048 35.0536 44.3535 34.9007 44.4574 34.6928C44.5763 34.496 44.6357 34.2664 44.6357 34.004C44.6357 33.7634 44.5763 33.5556 44.4722 33.3589ZM42.4218 33.2496C42.7041 33.2496 42.9269 33.3152 43.0906 33.4573C43.2541 33.5885 43.3431 33.7854 43.3431 34.0149C43.3431 34.2554 43.2541 34.4521 43.0757 34.5835C42.8974 34.7145 42.6894 34.7802 42.4218 34.7802C42.1544 34.7802 41.9314 34.7145 41.7531 34.5835C41.5896 34.4521 41.5005 34.2554 41.5005 34.0149C41.5005 33.7743 41.5896 33.5776 41.7531 33.4464C41.9314 33.3152 42.1542 33.2496 42.4218 33.2496Z" fill="#CECECF"/>
<path d="M50.2081 33.0963C50.1487 32.8668 49.9702 32.6371 49.6879 32.4405C49.5393 32.331 49.3612 32.2436 49.1381 32.1779C48.9153 32.1124 48.6627 32.0796 48.3506 32.0796C48.1129 32.0796 47.9049 32.1125 47.7118 32.1671C47.5186 32.2217 47.3848 32.2764 47.2958 32.342V31.2268H50.1635V30.363H46.1071V33.3152H47.2958C47.3403 33.2169 47.4295 33.1183 47.5631 33.0309C47.6522 32.9653 47.7563 32.9215 47.9049 32.9106C47.9791 32.8887 48.0684 32.8887 48.1575 32.8887C48.4842 32.8887 48.7073 32.9763 48.826 33.1292C48.9598 33.2932 49.034 33.523 49.034 33.829C49.034 33.9929 49.0043 34.146 48.9745 34.2883C48.9745 34.3101 48.9596 34.321 48.9448 34.3321C48.9448 34.343 48.9448 34.343 48.9448 34.343C48.9002 34.4523 48.8409 34.5398 48.7516 34.6055C48.5881 34.7256 48.395 34.7804 48.1276 34.7804C47.8602 34.7804 47.652 34.7256 47.5184 34.6055C47.3846 34.496 47.2956 34.343 47.2659 34.1352H45.9583C45.9879 34.3212 46.0325 34.5069 46.1069 34.6928C46.1811 34.8897 46.3149 35.0536 46.5377 35.2177C46.6864 35.338 46.9092 35.4255 47.1768 35.5129C47.4293 35.6003 47.7563 35.6332 48.1278 35.6332C48.2616 35.6332 48.3655 35.6332 48.4696 35.6114H48.4844C48.7073 35.6004 48.9004 35.5675 49.0788 35.5131C49.3313 35.4257 49.5393 35.3271 49.7028 35.2179C49.9555 35.021 50.1188 34.8133 50.2081 34.5947C50.2823 34.3759 50.327 34.1244 50.327 33.8292C50.327 33.5774 50.2823 33.3369 50.2081 33.0963Z" fill="#CECECF"/>
<path d="M51.5603 30.3627V32.0465H52.7937V31.2264H54.6808L52.3777 35.589H53.7744L56.0923 31.2264V30.3627H51.5603Z" fill="#CECECF"/>
<path d="M61.5007 31.2486C61.3966 31.0409 61.2333 30.877 61.0402 30.7348C60.8322 30.6036 60.6093 30.4942 60.3271 30.4287C60.0597 30.3521 59.7773 30.3193 59.4652 30.3193C59.1532 30.3193 58.856 30.3521 58.5886 30.4287C58.3212 30.5053 58.0833 30.6145 57.8753 30.7458C57.6822 30.8877 57.5335 31.0629 57.4148 31.2595C57.296 31.4672 57.2365 31.6969 57.2365 31.9484C57.2365 32.1999 57.296 32.4186 57.3999 32.6043C57.504 32.7903 57.6527 32.9543 57.8159 33.0853C57.9943 33.2167 58.2023 33.3259 58.4251 33.3915C58.648 33.4681 58.8857 33.501 59.1236 33.501C59.2126 33.501 59.3019 33.501 59.3909 33.4901C59.48 33.4791 59.5693 33.4571 59.6435 33.4353L58.1724 35.5892H59.5839L61.0847 33.337C61.2482 33.0964 61.382 32.8558 61.5007 32.6372C61.6197 32.4077 61.679 32.178 61.679 31.9375C61.679 31.675 61.6197 31.4454 61.5007 31.2486ZM60.1189 32.506C59.9406 32.6372 59.7325 32.7029 59.4652 32.7029C59.1829 32.7029 58.9601 32.6372 58.7964 32.506C58.6181 32.3639 58.5439 32.1779 58.5439 31.9484C58.5439 31.6969 58.6329 31.5111 58.7964 31.3798C58.9747 31.2486 59.1976 31.1829 59.4652 31.1829C59.7325 31.1829 59.9406 31.2486 60.1189 31.3798C60.2972 31.5111 60.3714 31.6969 60.3714 31.9484C60.3716 32.189 60.2972 32.3748 60.1189 32.506Z" fill="#CECECF"/>
<path d="M70.0148 30.3627L68.5586 31.2921V32.3198L70.0148 31.3905V35.589H71.3076V30.3627H70.0148Z" fill="#CECECF"/>
<path d="M73.6995 30.3627V32.0465H74.9475V31.2264H76.8198L74.5167 35.589H75.9282L78.2313 31.2264V30.3627H73.6995Z" fill="#CECECF"/>
<path d="M81.3521 30.3627L79.9106 31.2921V32.3198L81.3521 31.3905V35.589H82.6595V30.3627H81.3521Z" fill="#CECECF"/>
<path d="M89.3165 31.2486C89.2124 31.0409 89.0491 30.877 88.856 30.7348C88.648 30.6036 88.4249 30.4942 88.1427 30.4287C87.8753 30.3521 87.5929 30.3193 87.281 30.3193C86.9689 30.3193 86.6718 30.3521 86.4042 30.4287C86.1368 30.5053 85.8991 30.6145 85.6909 30.7458C85.4978 30.8877 85.3343 31.0629 85.2304 31.2595C85.1114 31.4672 85.0521 31.6969 85.0521 31.9484C85.0521 32.1999 85.1114 32.4186 85.2155 32.6043C85.3196 32.7903 85.4681 32.9543 85.6316 33.0853C85.8099 33.2167 86.003 33.3259 86.2407 33.3915C86.4636 33.4681 86.7013 33.501 86.939 33.501C87.028 33.501 87.1173 33.501 87.2064 33.4901C87.2956 33.4791 87.3847 33.4571 87.4591 33.4353L85.988 35.5892H87.3995L88.9003 33.337C89.0638 33.0964 89.1976 32.8558 89.3163 32.6372C89.4351 32.4077 89.4946 32.178 89.4946 31.9375C89.4948 31.675 89.4355 31.4454 89.3165 31.2486ZM87.9347 32.506C87.7564 32.6372 87.5483 32.7029 87.281 32.7029C86.9987 32.7029 86.7757 32.6372 86.6122 32.506C86.4339 32.3639 86.3597 32.1779 86.3597 31.9484C86.3597 31.6969 86.4487 31.5111 86.6122 31.3798C86.7905 31.2486 87.0134 31.1829 87.281 31.1829C87.5483 31.1829 87.7564 31.2486 87.9347 31.3798C88.113 31.5111 88.1872 31.6969 88.1872 31.9484C88.1872 32.189 88.113 32.3748 87.9347 32.506Z" fill="#CECECF"/>
<path d="M63.1647 44.1287C63.0756 43.9866 62.9567 43.8663 62.8229 43.7679C62.6743 43.6695 62.5108 43.5929 62.3176 43.5493C62.1245 43.4945 61.9165 43.4727 61.7084 43.4727C61.4856 43.4727 61.2924 43.4945 61.0993 43.5493C60.9061 43.5931 60.7426 43.6695 60.594 43.7679C60.4454 43.8663 60.3266 43.9866 60.2373 44.1287C60.1631 44.2709 60.1184 44.4349 60.1184 44.6098V46.2279C60.1184 46.4139 60.1629 46.5778 60.2373 46.72C60.3266 46.8621 60.4454 46.9824 60.594 47.0807C60.7426 47.1792 60.9061 47.2556 61.0993 47.2993C61.2924 47.3541 61.4856 47.3759 61.7084 47.3759C61.9165 47.3759 62.1245 47.3541 62.3176 47.2993C62.5108 47.2556 62.6743 47.1792 62.8229 47.0807C62.9567 46.9824 63.0754 46.8621 63.1647 46.72C63.254 46.5778 63.2836 46.4139 63.2836 46.2279V44.6098C63.2836 44.435 63.254 44.271 63.1647 44.1287ZM62.3327 46.228C62.3327 46.392 62.2733 46.5123 62.1692 46.6108C62.0502 46.6981 61.9018 46.7418 61.7086 46.7418C61.5155 46.7418 61.3668 46.6981 61.2481 46.6108C61.1291 46.5123 61.0698 46.392 61.0698 46.228V44.6208C61.0698 44.4679 61.1291 44.3365 61.2481 44.2381C61.367 44.1507 61.5155 44.1069 61.7086 44.1069C61.9018 44.1069 62.0504 44.1507 62.1692 44.2381C62.2733 44.3365 62.3327 44.4678 62.3327 44.6208V46.228Z" fill="#CECECF"/>
<path d="M67.4146 45.5172C67.3698 45.3423 67.2362 45.1781 67.0282 45.0251C66.9241 44.9486 66.7905 44.8829 66.6271 44.8391C66.4636 44.7845 66.2704 44.7626 66.0476 44.7626C65.8841 44.7626 65.7208 44.7845 65.587 44.8282C65.4384 44.8609 65.3345 44.9048 65.2751 44.9595V44.1286H67.3851V43.5052H64.3983V45.6701H65.2751C65.3048 45.5936 65.3792 45.5281 65.4683 45.4624C65.5722 45.3967 65.706 45.3532 65.914 45.3532C66.1368 45.3532 66.3003 45.4187 66.4042 45.5392C66.4935 45.6593 66.538 45.8234 66.538 46.0529C66.538 46.1732 66.538 46.2825 66.5083 46.3811C66.4786 46.4794 66.4192 46.556 66.3448 46.6215C66.2259 46.7089 66.0774 46.7417 65.8843 46.7417C65.6911 46.7417 65.5276 46.7089 65.4386 46.6215C65.3345 46.534 65.2751 46.4246 65.2454 46.2715H64.2944C64.3093 46.4137 64.339 46.5449 64.3985 46.687C64.4579 46.8183 64.562 46.9495 64.7255 47.0696C64.8294 47.1462 64.9929 47.2227 65.186 47.2882C65.3792 47.343 65.6169 47.3757 65.8843 47.3757C66.1517 47.3757 66.3896 47.343 66.5827 47.2882C66.761 47.2227 66.9245 47.1462 67.0433 47.0587C67.2216 46.9276 67.3552 46.7744 67.4147 46.6106C67.4741 46.4575 67.5038 46.2606 67.5038 46.0529C67.5036 45.8671 67.4739 45.6921 67.4146 45.5172Z" fill="#CECECF"/>
<path d="M70.1333 43.101L68.0381 47.7478H68.9296L71.0247 43.101H70.1333Z" fill="#CECECF"/>
<path d="M73.0009 43.5052L71.9312 44.1833V44.9377L73.0009 44.2598V47.343H73.9519V43.5052H73.0009Z" fill="#CECECF"/>
<path d="M77.162 43.5052L76.092 44.1833V44.9377L77.162 44.2598V47.343H78.1129V43.5052H77.162Z" fill="#CECECF"/>
<path d="M79.9404 45.4734V46.1293H82.1988V45.4734H79.9404Z" fill="#CECECF"/>
<path d="M86.2702 44.1284C86.1811 43.9862 86.0622 43.8659 85.9136 43.7675C85.78 43.6692 85.6017 43.5926 85.4085 43.5489C85.2153 43.4941 85.0222 43.4723 84.8142 43.4723C84.5913 43.4723 84.3981 43.4941 84.205 43.5489C84.0118 43.5927 83.8483 43.6692 83.6997 43.7675C83.5511 43.8659 83.4323 43.9862 83.3431 44.1284C83.254 44.2705 83.2241 44.4345 83.2241 44.6094V46.2275C83.2241 46.4135 83.2538 46.5775 83.3431 46.7196C83.4321 46.8618 83.5511 46.982 83.6997 47.0803C83.8483 47.1788 84.0118 47.2553 84.205 47.2989C84.3981 47.3537 84.5913 47.3755 84.8142 47.3755C85.0222 47.3755 85.2153 47.3537 85.4085 47.2989C85.6017 47.2553 85.78 47.1788 85.9136 47.0803C86.0622 46.982 86.1811 46.8618 86.2702 46.7196C86.3444 46.5775 86.389 46.4135 86.389 46.2275V44.6094C86.389 44.4346 86.3444 44.2706 86.2702 44.1284ZM85.438 46.2277C85.438 46.3916 85.3784 46.5119 85.2597 46.6104C85.1558 46.6978 84.9923 46.7415 84.814 46.7415C84.6208 46.7415 84.4573 46.6978 84.3534 46.6104C84.2345 46.5119 84.1751 46.3916 84.1751 46.2277V44.6205C84.1751 44.4675 84.2345 44.3362 84.3534 44.2377C84.4575 44.1504 84.6208 44.1065 84.814 44.1065C84.9923 44.1065 85.1558 44.1504 85.2597 44.2377C85.3786 44.3362 85.438 44.4674 85.438 44.6205V46.2277Z" fill="#CECECF"/>
<path d="M90.4306 44.1284C90.3416 43.9862 90.2226 43.8659 90.0888 43.7675C89.9402 43.6692 89.7769 43.5926 89.5837 43.5489C89.3906 43.4941 89.1826 43.4723 88.9744 43.4723C88.7515 43.4723 88.5583 43.4941 88.3652 43.5489C88.172 43.5927 88.0085 43.6692 87.8599 43.7675C87.7115 43.8659 87.5925 43.9862 87.5033 44.1284C87.4291 44.2705 87.3845 44.4345 87.3845 44.6094V46.2275C87.3845 46.4135 87.4291 46.5775 87.5033 46.7196C87.5923 46.8618 87.7113 46.982 87.8599 47.0803C88.0085 47.1788 88.172 47.2553 88.3652 47.2989C88.5583 47.3537 88.7515 47.3755 88.9744 47.3755C89.1824 47.3755 89.3904 47.3537 89.5837 47.2989C89.7769 47.2553 89.9404 47.1788 90.0888 47.0803C90.2226 46.982 90.3416 46.8618 90.4306 46.7196C90.5197 46.5775 90.5494 46.4135 90.5494 46.2275V44.6094C90.5496 44.4346 90.5199 44.2706 90.4306 44.1284ZM89.5986 46.2277C89.5986 46.3916 89.539 46.5119 89.4351 46.6104C89.3164 46.6978 89.1677 46.7415 88.9746 46.7415C88.7816 46.7415 88.6328 46.6978 88.514 46.6104C88.3953 46.5119 88.3357 46.3916 88.3357 46.2277V44.6205C88.3357 44.4675 88.3953 44.3362 88.514 44.2377C88.633 44.1504 88.7816 44.1065 88.9746 44.1065C89.1677 44.1065 89.3164 44.1504 89.4351 44.2377C89.5392 44.3362 89.5986 44.4674 89.5986 44.6205V46.2277Z" fill="#CECECF"/>
<path d="M13.1797 36.9342V37.2842H13.893V38.9352H14.4279V37.2842H15.1412V36.9342H13.1797Z" fill="#CECECF"/>
<path d="M17.5484 37.4589C17.5187 37.3934 17.5036 37.3388 17.4593 37.284C17.4296 37.2293 17.37 37.1745 17.2958 37.12C17.2068 37.0545 17.1026 36.9998 16.9839 36.967C16.865 36.9342 16.7312 36.9122 16.5827 36.9122C16.4192 36.9122 16.2855 36.9341 16.1667 36.967C16.048 36.9998 15.9439 37.0545 15.8548 37.12C15.7806 37.1747 15.721 37.2294 15.6913 37.284C15.6466 37.3388 15.6318 37.3934 15.6023 37.4589C15.5874 37.5246 15.5874 37.6012 15.5726 37.6777V38.1915C15.5874 38.2679 15.5874 38.3336 15.6023 38.3993C15.6319 38.4648 15.6468 38.5305 15.6913 38.5851C15.721 38.6289 15.7804 38.6836 15.8548 38.7382C15.9439 38.8039 16.048 38.8585 16.1667 38.8912C16.2857 38.9351 16.4194 38.946 16.5827 38.946C16.7314 38.946 16.8651 38.9351 16.9839 38.8912C17.1026 38.8585 17.2068 38.8039 17.2958 38.7382C17.37 38.6836 17.4296 38.6288 17.4593 38.5851C17.5038 38.5305 17.5187 38.4648 17.5484 38.3993C17.5632 38.3336 17.578 38.2679 17.578 38.1915V37.6777C17.578 37.6011 17.5632 37.5246 17.5484 37.4589ZM17.0431 38.1698C17.0431 38.2353 17.0282 38.279 17.0134 38.3227C17.0134 38.3665 16.9985 38.3993 16.9837 38.4211C16.9689 38.443 16.939 38.4648 16.9093 38.4867C16.8796 38.5196 16.8351 38.5522 16.7757 38.5631C16.7163 38.585 16.6567 38.5959 16.5825 38.5959C16.5083 38.5959 16.4341 38.585 16.3745 38.5631C16.33 38.5522 16.2704 38.5194 16.2261 38.4867C16.2112 38.4648 16.1814 38.443 16.1665 38.4211C16.1517 38.3993 16.1368 38.3664 16.1368 38.3227C16.122 38.2789 16.1071 38.2353 16.1071 38.1698V37.6886C16.1071 37.634 16.122 37.5792 16.1368 37.5355C16.1368 37.4917 16.1517 37.4589 16.1665 37.4372C16.1814 37.4154 16.211 37.3934 16.2261 37.3716C16.2706 37.3388 16.3302 37.3169 16.3745 37.2951C16.4341 37.2733 16.5083 37.2623 16.5825 37.2623C16.6567 37.2623 16.7163 37.2733 16.7757 37.2951C16.8351 37.3169 16.8798 37.3389 16.9093 37.3716C16.939 37.3934 16.9689 37.4154 16.9837 37.4372C16.9985 37.4589 17.0134 37.4918 17.0134 37.5355C17.0282 37.5794 17.0431 37.634 17.0431 37.6886V38.1698Z" fill="#CECECF"/>
<path d="M20.1037 37.3167C20.074 37.2401 20.0146 37.1744 19.9253 37.1198C19.8511 37.0543 19.7619 37.0106 19.6431 36.9777C19.539 36.9448 19.4054 36.9338 19.2716 36.9338H18.2166V38.9348H18.7515V38.1805H19.2714C19.4052 38.1805 19.5388 38.1586 19.6429 38.1257C19.7619 38.0928 19.8509 38.0491 19.9251 37.9943C20.0144 37.9397 20.0738 37.8742 20.1035 37.7976C20.1482 37.721 20.1628 37.6337 20.1628 37.5571C20.163 37.4698 20.1484 37.3933 20.1037 37.3167ZM19.539 37.754C19.4648 37.7979 19.3607 37.8306 19.2417 37.8306H18.7515V37.2839H19.2417C19.3607 37.2839 19.4646 37.3058 19.539 37.3496C19.5984 37.4042 19.6431 37.4698 19.6431 37.5573C19.6431 37.6339 19.5984 37.6994 19.539 37.754Z" fill="#CECECF"/>
<path d="M22.4964 37.2842V36.9342H20.7134V38.9352H22.4964V38.5852H21.2483V38.0933H22.3181V37.7433H21.2483V37.2842H22.4964Z" fill="#CECECF"/>
<path d="M24.3386 38.5194C24.2644 38.574 24.1603 38.5959 24.0267 38.5959C23.9525 38.5959 23.8929 38.5849 23.8335 38.574C23.7741 38.5522 23.7294 38.5303 23.6849 38.4975C23.67 38.4757 23.6404 38.4539 23.6255 38.4211C23.6107 38.3992 23.5958 38.3663 23.581 38.3226C23.581 38.2788 23.5661 38.2353 23.5661 38.1697C23.5661 38.104 23.5513 38.0274 23.5513 37.9291C23.5513 37.8308 23.5661 37.7542 23.5661 37.6887C23.5661 37.6341 23.581 37.5793 23.581 37.5356C23.5958 37.4918 23.6107 37.459 23.6255 37.4373C23.6404 37.4155 23.67 37.3826 23.6849 37.3717C23.7294 37.3389 23.7741 37.3061 23.8335 37.2952C23.8929 37.2734 23.9525 37.2624 24.0267 37.2624C24.1603 37.2624 24.2644 37.2843 24.3386 37.339C24.413 37.3936 24.4575 37.4592 24.4872 37.5467H25.0222C24.9777 37.339 24.8587 37.1749 24.6804 37.0766C24.5021 36.9671 24.2792 36.9125 24.0267 36.9125C23.8781 36.9125 23.7294 36.9343 23.6107 36.9672C23.5066 37 23.3878 37.0548 23.2988 37.1203C23.2392 37.1749 23.1798 37.2297 23.1353 37.2843C23.1056 37.339 23.0759 37.3936 23.0611 37.4592C23.0462 37.5249 23.0314 37.6015 23.0314 37.6779V38.1917C23.0314 38.2682 23.0462 38.3339 23.0611 38.3995C23.0759 38.4651 23.1058 38.5307 23.1353 38.5854C23.18 38.6292 23.2394 38.6838 23.2988 38.7384C23.3878 38.8041 23.5068 38.8587 23.6107 38.8915C23.7296 38.9353 23.8781 38.9462 24.0267 38.9462C24.2792 38.9462 24.5023 38.8915 24.6804 38.7932C24.8587 38.6838 24.9777 38.5307 25.0222 38.312H24.4872C24.4575 38.3991 24.413 38.4646 24.3386 38.5194Z" fill="#CECECF"/>
<path d="M27.4888 37.6777C27.4888 37.6012 27.474 37.5246 27.4591 37.4589C27.4443 37.3934 27.4144 37.3388 27.3701 37.284C27.3404 37.2293 27.281 37.1745 27.2214 37.12C27.1324 37.0545 27.0283 36.9998 26.9095 36.967C26.7906 36.9342 26.6568 36.9122 26.4935 36.9122C26.33 36.9122 26.1962 36.9341 26.0775 36.967C25.9585 36.9998 25.8546 37.0545 25.7654 37.12C25.6912 37.1747 25.6464 37.2294 25.6019 37.284C25.5722 37.3388 25.5423 37.3934 25.5277 37.4589C25.5128 37.5246 25.498 37.6012 25.498 37.6777C25.498 37.7541 25.4832 37.8307 25.4832 37.9292C25.4832 38.0275 25.498 38.1152 25.498 38.1916C25.498 38.2681 25.5128 38.3338 25.5277 38.3994C25.5425 38.465 25.5722 38.5306 25.6019 38.5853C25.6464 38.6291 25.691 38.6837 25.7654 38.7383C25.8544 38.804 25.9585 38.8586 26.0775 38.8914C26.1962 38.9352 26.33 38.9461 26.4935 38.9461C26.657 38.9461 26.7908 38.9352 26.9095 38.8914C27.0283 38.8586 27.1324 38.804 27.2214 38.7383C27.281 38.6837 27.3404 38.6289 27.3701 38.5853C27.4146 38.5306 27.4443 38.465 27.4591 38.3994C27.474 38.3338 27.4888 38.2681 27.4888 38.1916C27.4888 38.1152 27.5037 38.0276 27.5037 37.9292C27.5037 37.8307 27.4888 37.7541 27.4888 37.6777ZM26.9539 38.1698C26.9539 38.2353 26.939 38.279 26.939 38.3227C26.9242 38.3665 26.9093 38.3993 26.8945 38.4211C26.8796 38.443 26.8648 38.4648 26.8351 38.4867C26.7904 38.5196 26.746 38.5522 26.6865 38.5631C26.6271 38.585 26.5675 38.5959 26.4933 38.5959C26.4191 38.5959 26.3597 38.585 26.3001 38.5631C26.2408 38.5522 26.196 38.5194 26.1515 38.4867C26.1218 38.4648 26.107 38.443 26.0921 38.4211C26.0625 38.3993 26.0625 38.3664 26.0474 38.3227C26.0326 38.2789 26.0326 38.2353 26.0177 38.1698V37.6886C26.0326 37.634 26.0326 37.5792 26.0474 37.5355C26.0623 37.4917 26.0623 37.4589 26.0921 37.4372C26.107 37.4154 26.1218 37.3934 26.1515 37.3716C26.196 37.3388 26.2406 37.3169 26.3001 37.2951C26.3597 37.2733 26.4191 37.2623 26.4933 37.2623C26.5675 37.2623 26.6271 37.2733 26.6865 37.2951C26.746 37.3169 26.7906 37.3389 26.8351 37.3716C26.8648 37.3934 26.8796 37.4154 26.8945 37.4372C26.9093 37.4589 26.9242 37.4918 26.939 37.5355C26.939 37.5794 26.9539 37.634 26.9539 37.6886C26.9687 37.7541 26.9687 37.8307 26.9687 37.929C26.9687 38.0275 26.9687 38.1041 26.9539 38.1698Z" fill="#CECECF"/>
<path d="M29.6876 36.9342V38.1588L28.603 36.9342H28.1274V38.9352H28.6624V37.6996L29.747 38.9352H30.2224V36.9342H29.6876Z" fill="#CECECF"/>
<path d="M33.8631 38.1696C33.8334 38.1149 33.7889 38.0601 33.7293 38.0164C33.6997 37.9946 33.67 37.9727 33.6403 37.9618C33.6106 37.9399 33.5809 37.929 33.5215 37.9072C33.7444 37.8087 33.8633 37.6775 33.8633 37.4806C33.8633 37.3932 33.8336 37.3166 33.804 37.2511C33.7594 37.1854 33.6999 37.1308 33.6256 37.0763C33.5663 37.0434 33.5217 37.0216 33.4473 36.9997C33.4325 36.9888 33.4028 36.9779 33.3731 36.967C33.2541 36.9451 33.1502 36.9342 33.0165 36.9342H31.9319V38.9352H33.0612C33.1948 38.9352 33.3137 38.9134 33.403 38.8914C33.5071 38.8586 33.5961 38.8257 33.6704 38.7711C33.7446 38.7274 33.8041 38.6617 33.8338 38.5962C33.8784 38.5306 33.8934 38.4432 33.8934 38.3557C33.8928 38.2898 33.878 38.2241 33.8631 38.1696ZM32.4514 37.2839H32.9715C33.0012 37.2839 33.0311 37.2839 33.0459 37.2948C33.135 37.2948 33.1795 37.3057 33.2391 37.3386C33.2985 37.3823 33.3282 37.4371 33.3282 37.5135C33.3282 37.5792 33.2985 37.634 33.2391 37.6775C33.1647 37.7212 33.0905 37.7431 32.9715 37.7431H32.4514V37.2839ZM33.2688 38.5194C33.2094 38.5631 33.1202 38.585 33.0163 38.585H32.4516V38.093H33.0163C33.1204 38.093 33.2094 38.1149 33.2688 38.1587C33.3284 38.2024 33.3729 38.2571 33.3729 38.3336C33.3727 38.4101 33.3282 38.4756 33.2688 38.5194Z" fill="#CECECF"/>
<path d="M35.6464 36.9342H35.2304L34.2349 38.9352H34.7847L34.9481 38.5743H35.914L36.0774 38.9352H36.6272L35.6464 36.9342ZM35.0966 38.2464L35.4532 37.5247L35.7802 38.2464H35.0966Z" fill="#CECECF"/>
<path d="M38.6183 36.9342V38.1588L37.5335 36.9342H37.073V38.9352H37.5931V37.6996L38.6779 38.9352H39.1535V36.9342H38.6183Z" fill="#CECECF"/>
<path d="M41.1145 37.7213L42.0059 36.9342H41.367L40.4012 37.798V36.9342H39.8811V38.9352H40.4012V38.3337L40.7579 38.0165L41.4561 38.9351H42.0801L41.1145 37.7213Z" fill="#CECECF"/>
<path d="M69.4947 24.4041C69.4205 24.4588 69.3164 24.4807 69.1828 24.4807C69.1084 24.4807 69.049 24.4697 68.9896 24.4477C68.93 24.4368 68.8855 24.4039 68.841 24.3821C68.8261 24.3602 68.7964 24.3382 68.7816 24.3056C68.7667 24.2838 68.7519 24.2509 68.7371 24.2073C68.7371 24.1635 68.7222 24.1089 68.7222 24.0541C68.7222 23.9886 68.7074 23.9121 68.7074 23.8137C68.7074 23.7152 68.7222 23.6388 68.7222 23.5731C68.7222 23.5074 68.7371 23.4637 68.7371 23.4202C68.7519 23.3763 68.7667 23.3436 68.7816 23.3217C68.7964 23.2889 68.8261 23.267 68.841 23.2451C68.8855 23.2125 68.93 23.1905 68.9896 23.1687C69.049 23.1577 69.1084 23.147 69.1828 23.147C69.3164 23.147 69.4205 23.1687 69.4947 23.2234C69.5689 23.278 69.6136 23.3437 69.6433 23.4311H70.1783C70.1335 23.2125 70.0148 23.0594 69.8365 22.9501C69.6582 22.8518 69.4353 22.797 69.1828 22.797C69.0341 22.797 68.8855 22.8188 68.7816 22.8518C68.6626 22.8845 68.5587 22.9391 68.4546 23.0047C68.3953 23.0594 68.3359 23.114 68.306 23.1687C68.2615 23.2125 68.2318 23.2779 68.2169 23.3436C68.2021 23.4092 68.1873 23.4748 68.1873 23.5512V24.0761C68.1873 24.1527 68.2021 24.2184 68.2169 24.2839C68.2318 24.3494 68.2615 24.4042 68.306 24.4588C68.3357 24.5136 68.3953 24.5682 68.4546 24.6227C68.5587 24.6883 68.6626 24.7431 68.7816 24.7759C68.8857 24.8086 69.0341 24.8305 69.1828 24.8305C69.4353 24.8305 69.6582 24.7759 69.8365 24.6665C70.0148 24.5682 70.1335 24.4041 70.1783 24.1964H69.6433C69.6136 24.2838 69.5689 24.3493 69.4947 24.4041Z" fill="#CECECF"/>
<path d="M72.1844 23.945C72.2586 23.9341 72.3182 23.9121 72.3775 23.8793C72.4371 23.8464 72.4965 23.8136 72.541 23.7699C72.5855 23.7261 72.6154 23.6716 72.6451 23.6169C72.66 23.584 72.6748 23.5403 72.6748 23.4966C72.6896 23.4747 72.6896 23.4418 72.6896 23.4201C72.6896 23.3435 72.66 23.256 72.6301 23.1905C72.5855 23.114 72.5262 23.0483 72.4518 22.9936C72.3775 22.939 72.2883 22.8953 72.1695 22.8625C72.1102 22.8407 72.0656 22.8296 71.9912 22.8187H71.9764C71.917 22.8077 71.8576 22.8077 71.798 22.8077H70.7432V24.8086H71.2633V24.0105H71.6496L72.1846 24.8086H72.7937L72.1844 23.945ZM72.0508 23.6169C71.9764 23.6607 71.8873 23.6935 71.7686 23.6935H71.2633V23.1575H71.7686C71.8873 23.1575 71.9766 23.1794 72.0508 23.234C72.125 23.2778 72.1549 23.3435 72.1549 23.4201C72.1547 23.5075 72.125 23.5623 72.0508 23.6169Z" fill="#CECECF"/>
<path d="M75.1264 23.1576V22.8077H73.3284V24.8086H75.1264V24.4588H73.8633V23.9776H74.9332V23.6278H73.8633V23.1576H75.1264Z" fill="#CECECF"/>
<path d="M77.6971 23.4527C77.6971 23.4309 77.6823 23.4091 77.6823 23.3981C77.6823 23.3434 77.6526 23.2888 77.6377 23.2449C77.6081 23.1903 77.5782 23.1466 77.5336 23.1029C77.4446 23.0045 77.3256 22.928 77.1918 22.8842C77.0583 22.8405 76.9096 22.8077 76.7163 22.8077H75.7356V24.8086H76.7163C76.9094 24.8086 77.0581 24.7869 77.1918 24.7431C77.2663 24.7212 77.3256 24.6883 77.385 24.6555C77.4446 24.6226 77.4891 24.5791 77.5336 24.5243C77.5782 24.4806 77.6079 24.4369 77.6377 24.3822C77.6526 24.3383 77.6823 24.2839 77.6823 24.2293C77.6971 24.1745 77.6971 24.1088 77.712 24.0433V23.584C77.6971 23.5401 77.6971 23.4966 77.6971 23.4527ZM77.177 24.0213C77.177 24.0759 77.1622 24.1196 77.1622 24.1634C77.1473 24.2073 77.1473 24.24 77.1325 24.2617C77.1176 24.2945 77.0877 24.3165 77.0731 24.3382C76.984 24.4257 76.8502 24.4586 76.6719 24.4586H76.2707V23.1574H76.6719C76.8502 23.1574 76.984 23.2012 77.0731 23.2886C77.0879 23.3105 77.1176 23.3325 77.1325 23.3652C77.1473 23.3871 77.1473 23.42 77.1622 23.4635C77.1622 23.5072 77.177 23.5509 77.177 23.6057V24.0213Z" fill="#CECECF"/>
<path d="M78.3508 22.8077V24.8086H78.8709V22.8077H78.3508Z" fill="#CECECF"/>
<path d="M79.4058 22.8077V23.1576H80.119V24.8086H80.6392V23.1576H81.3524V22.8077H79.4058Z" fill="#CECECF"/>
<path d="M84.0863 24.4041C84.0121 24.4588 83.908 24.4807 83.7742 24.4807C83.7 24.4807 83.6406 24.4697 83.581 24.4477C83.5214 24.4368 83.4769 24.4039 83.4324 24.3821C83.4175 24.3602 83.3879 24.3382 83.373 24.3056C83.3582 24.2838 83.3433 24.2509 83.3285 24.2073C83.3285 24.1635 83.3136 24.1089 83.3136 24.0541C83.2988 23.9886 83.2988 23.9121 83.2988 23.8137C83.2988 23.7152 83.2988 23.6388 83.3136 23.5731C83.3136 23.5074 83.3285 23.4637 83.3285 23.4202C83.3433 23.3763 83.3582 23.3436 83.373 23.3217C83.3879 23.2889 83.4175 23.267 83.4324 23.2451C83.4769 23.2125 83.5214 23.1905 83.581 23.1687C83.6404 23.1577 83.6998 23.147 83.7742 23.147C83.908 23.147 84.0119 23.1687 84.0863 23.2234C84.1605 23.278 84.2052 23.3437 84.2349 23.4311H84.7699C84.7254 23.2125 84.6064 23.0594 84.4281 22.9501C84.2498 22.8518 84.0269 22.797 83.7744 22.797C83.6257 22.797 83.4773 22.8188 83.3584 22.8518C83.2543 22.8845 83.1355 22.9391 83.0463 23.0047C82.972 23.0594 82.9275 23.114 82.8828 23.1687C82.8531 23.2125 82.8234 23.2779 82.8086 23.3436C82.7937 23.4092 82.7789 23.4748 82.7789 23.5512V24.0761C82.7789 24.1527 82.7937 24.2184 82.8086 24.2839C82.8234 24.3494 82.8531 24.4042 82.8828 24.4588C82.9273 24.5136 82.9718 24.5682 83.0463 24.6227C83.1353 24.6883 83.2543 24.7431 83.3584 24.7759C83.4773 24.8086 83.6257 24.8305 83.7744 24.8305C84.0271 24.8305 84.25 24.7759 84.4281 24.6665C84.6064 24.5682 84.7254 24.4041 84.7699 24.1964H84.2349C84.2052 24.2838 84.1605 24.3493 84.0863 24.4041Z" fill="#CECECF"/>
<path d="M86.4337 22.8077H86.0177L85.0222 24.8086H85.5869L85.7503 24.4588H86.7162L86.8796 24.8086H87.4294L86.4337 22.8077ZM85.899 24.1307L86.2408 23.3981L86.5675 24.1307H85.899Z" fill="#CECECF"/>
<path d="M89.3016 23.945C89.3758 23.9341 89.4352 23.9121 89.4947 23.8793C89.5541 23.8464 89.6137 23.8136 89.6582 23.7699C89.7027 23.7261 89.7324 23.6716 89.7623 23.6169C89.792 23.5621 89.8068 23.4966 89.8068 23.4201C89.8068 23.3435 89.792 23.256 89.7475 23.1905C89.7029 23.114 89.6434 23.0483 89.5691 22.9936C89.4949 22.939 89.4057 22.8953 89.2869 22.8625C89.1828 22.8296 89.0641 22.8077 88.9303 22.8077H87.8604V24.8086H88.3953V24.0105H88.7668L89.3018 24.8086H89.9109L89.3016 23.945ZM89.1678 23.6169C89.0936 23.6607 89.0043 23.6935 88.8855 23.6935H88.3953V23.1575H88.8855C89.0045 23.1575 89.0936 23.1794 89.1678 23.234C89.2422 23.2778 89.2719 23.3435 89.2719 23.4201C89.2719 23.5075 89.2422 23.5623 89.1678 23.6169Z" fill="#CECECF"/>
<path d="M92.4072 23.3981C92.3923 23.3434 92.3775 23.2888 92.3478 23.2449C92.333 23.1903 92.2884 23.1466 92.2587 23.1029C92.1546 23.0045 92.0359 22.928 91.9021 22.8842C91.7832 22.8405 91.6199 22.8077 91.4267 22.8077H90.446V24.8086H91.4267C91.6199 24.8086 91.7833 24.7869 91.9021 24.7431C92.0357 24.6992 92.1546 24.6226 92.2587 24.5243C92.2884 24.4806 92.333 24.4369 92.3478 24.3822C92.3775 24.3383 92.3923 24.2839 92.4072 24.2293C92.4072 24.1745 92.422 24.1088 92.422 24.0433V23.584C92.422 23.5183 92.4072 23.4527 92.4072 23.3981ZM91.8873 24.0213C91.8873 24.0759 91.8873 24.1196 91.8724 24.1634C91.8724 24.2073 91.8576 24.24 91.8427 24.2617C91.8279 24.2945 91.813 24.3165 91.7831 24.3382C91.6941 24.4257 91.5603 24.4586 91.382 24.4586H90.9808V23.1574H91.382C91.5603 23.1574 91.6939 23.2012 91.7831 23.2886C91.8128 23.3105 91.8277 23.3325 91.8427 23.3652C91.8576 23.3871 91.8724 23.42 91.8724 23.4635C91.8873 23.5072 91.8873 23.5509 91.8873 23.6057V24.0213Z" fill="#CECECF"/>
<path d="M92.6995 4.68881V12.3949C92.6995 12.705 92.3548 12.9587 91.9333 12.9587H79.0343C78.6128 12.9587 78.2681 12.705 78.2681 12.3949V4.68881C78.2681 4.37866 78.6128 4.125 79.0343 4.125H91.9333C92.3546 4.12486 92.6995 4.37866 92.6995 4.68881Z" fill="#F7D072"/>
<path opacity="0.2" d="M89.8664 5.9921L92.1101 4.34106H91.382L89.4503 5.77336L89.1533 5.9921L88.9304 6.14516L87.4 7.27134H84.0716L83.7744 7.0526L82.5412 6.14516L82.0507 5.77336L80.1042 4.34106H79.3761L81.3078 5.77336L81.605 5.9921H78.5292V6.36376H82.125L83.0759 7.07445L83.3285 7.27134V7.70854H78.5291V8.09126H83.3285V9.43603H78.5291V9.80769H83.3285V10.2559H83.3582L82.422 10.934L82.1248 11.1528H78.5291V11.5355H81.6048L79.6732 12.9569H80.4013L82.333 11.5355L84.0714 10.2564H87.3998L91.0849 12.957H91.798L89.8664 11.5356H92.7042V11.1529H89.3611L88.1427 10.2564V9.80812H92.7044V9.43646H88.1427V8.09169H92.7044V7.70897H88.1427V7.27178L89.3611 6.36419H92.7042V5.99254H89.8664V5.9921ZM87.6376 9.87351H83.8337V7.64314H87.6376V9.87351Z" fill="white"/>
<path d="M83.8191 7.05225L84.3244 7.4239H86.6424L86.8504 7.27099L87.1477 7.05225H83.8191ZM83.8191 7.05225L84.3244 7.4239H86.6424L86.8504 7.27099L87.1477 7.05225H83.8191ZM83.8191 7.05225L84.3244 7.4239H86.6424L86.8504 7.27099L87.1477 7.05225H83.8191ZM83.8191 7.05225L84.3244 7.4239H86.6424L86.8504 7.27099L87.1477 7.05225H83.8191ZM86.9395 9.87316L86.6424 9.65456H84.3244L84.0422 9.87316H84.0273L83.8193 10.0371H87.1477L86.9395 9.87316ZM83.8191 7.05225L84.3244 7.4239H86.6424L86.8504 7.27099L87.1477 7.05225H83.8191ZM83.0762 7.05225V10.0371H87.8904V7.05225H83.0762ZM87.3852 9.65456H83.5812V7.42405H87.3852V9.65456ZM83.8191 7.05225L84.3244 7.4239H86.6424L86.8504 7.27099L87.1477 7.05225H83.8191ZM83.8191 7.05225L84.3244 7.4239H86.6424L86.8504 7.27099L87.1477 7.05225H83.8191ZM83.8191 7.05225L84.3244 7.4239H86.6424L86.8504 7.27099L87.1477 7.05225H83.8191ZM83.8191 7.05225L84.3244 7.4239H86.6424L86.8504 7.27099L87.1477 7.05225H83.8191ZM83.8191 7.05225L84.3244 7.4239H86.6424L86.8504 7.27099L87.1477 7.05225H83.8191ZM83.8191 7.05225L84.3244 7.4239H86.6424L86.8504 7.27099L87.1477 7.05225H83.8191Z" fill="#717070"/>
<path d="M82.0771 5.76953L82.588 6.1455H78.2681V5.76953H82.0771Z" fill="#717070"/>
<path d="M92.6995 5.76953V6.1455H88.3796L88.8903 5.76953H92.6995Z" fill="#717070"/>
<path d="M83.5841 7.49292H78.2681V7.86889H83.5841V7.49292Z" fill="#717070"/>
<path d="M92.6993 7.49292H87.3832V7.86889H92.6993V7.49292Z" fill="#717070"/>
<path d="M83.5841 9.21594H78.2681V9.59191H83.5841V9.21594Z" fill="#717070"/>
<path d="M92.6993 9.21594H87.3832V9.59191H92.6993V9.21594Z" fill="#717070"/>
<path d="M82.5886 10.9385L82.0776 11.3144H78.2681V10.9385H82.5886Z" fill="#717070"/>
<path d="M92.6998 10.9385V11.3144H88.89L88.3793 10.9385H92.6998Z" fill="#717070"/>
<path d="M84.3287 9.65784L79.8427 12.9588H79.1207L83.6066 9.65784H84.3287Z" fill="#717070"/>
<path d="M91.8478 4.12488L87.3619 7.42581H86.6398L91.1258 4.12488H91.8478Z" fill="#717070"/>
<path d="M84.3279 7.42581H83.6056L79.1197 4.12488H79.842L84.3279 7.42581Z" fill="#717070"/>
<path d="M91.8469 12.9588H91.1247L87.1497 10.0338L86.937 9.8773L86.6387 9.65784H87.361L87.6387 9.86221L87.8719 10.0338L88.1497 10.2382L89.101 10.9382L89.3993 11.1577L89.612 11.3142L89.9102 11.5337L91.8469 12.9588Z" fill="#717070"/>
<path d="M15.4335 7.49229C15.4335 6.3158 16.0929 5.25315 17.1535 4.49173C16.1265 3.75445 14.7234 3.29944 13.1753 3.29944C10.0283 3.29944 7.47729 5.17669 7.47729 7.49229C7.47729 9.80802 10.0285 11.6851 13.1753 11.6851C14.7236 11.6851 16.1267 11.2301 17.1535 10.4928C16.0929 9.73157 15.4335 8.66877 15.4335 7.49229Z" fill="#DC3B39"/>
<path d="M21.1318 3.29944C19.5835 3.29944 18.1806 3.75445 17.1536 4.49173C18.2142 5.25315 18.8735 6.3158 18.8735 7.49229C18.8735 8.66877 18.2142 9.73142 17.1536 10.4928C18.1806 11.2301 19.5837 11.6851 21.1318 11.6851C24.2788 11.6851 26.8298 9.80788 26.8298 7.49229C26.8298 5.17669 24.2786 3.29944 21.1318 3.29944Z" fill="#E6AB2D"/>
<path d="M18.8734 7.49238C18.8734 6.3159 18.2141 5.25324 17.1535 4.49182C16.093 5.25324 15.4336 6.3159 15.4336 7.49238C15.4336 8.66886 16.093 9.73152 17.1535 10.4929C18.2141 9.73166 18.8734 8.66886 18.8734 7.49238Z" fill="#D67261"/>
<path d="M18.8733 7.49206C18.8733 7.40353 18.8684 7.31586 18.861 7.22863L16.2618 5.31616C16.0713 5.54626 15.9098 5.79072 15.7817 6.04726L18.7778 8.2519C18.8393 8.00528 18.8733 7.75176 18.8733 7.49206Z" fill="#E6AB2D"/>
<path d="M15.4916 6.8988C15.4543 7.09268 15.4336 7.29058 15.4336 7.49193C15.4336 7.6529 15.4471 7.81156 15.4711 7.96778L17.9424 9.78625C18.1412 9.56335 18.3117 9.32578 18.4506 9.076L15.4916 6.8988Z" fill="#E6AB2D"/>
<path opacity="0.2" d="M100 26.5579H0V27.4764H100V26.5579Z" fill="#040000"/>
<defs>
<linearGradient id="paint0_linear_223_1698" x1="50" y1="-4.31156e-05" x2="50" y2="50" gradientUnits="userSpaceOnUse">
<stop stop-color="#0C0F5F"/>
<stop offset="1" stop-color="#0C0F5F"/>
</linearGradient>
</defs>
</svg>
