<svg width="67" height="58" viewBox="0 0 67 58" fill="none" xmlns="http://www.w3.org/2000/svg">
<g clip-path="url(#clip0_89_28)">
<path fill-rule="evenodd" clip-rule="evenodd" d="M33.701 0C15.2026 0 0.20105 12.9847 0.20105 29C0.20105 45.0153 15.2026 58 33.701 58C52.2038 58 67.201 45.0153 67.201 29C67.201 12.9847 52.2038 0 33.701 0ZM33.5 54.375C17.3168 54.375 4.18755 43.0184 4.18755 29C4.18755 14.9852 17.3168 3.625 33.5 3.625C49.6833 3.625 62.8125 14.9852 62.8125 29C62.8125 43.022 49.6833 54.375 33.5 54.375Z" fill="#44E2EE"/>
<path fill-rule="evenodd" clip-rule="evenodd" d="M12.3909 9.7295C11.2602 14.6015 15.4687 22.0509 24.4174 23.8634C33.3619 25.6759 29.5177 24.1679 28.1275 21.75C26.7289 19.3321 27.9809 17.5196 30.1459 16.9179C32.315 16.3125 31.7664 17.98 34.9824 14.5C35.7948 7.25 28.8184 14.4021 28.1233 11.3825C35.0327 4.43338 24.9157 1.8125 21.9802 2.71875C19.0448 3.625 13.5215 4.85388 12.3909 9.7295Z" fill="#44E2EE"/>
<path fill-rule="evenodd" clip-rule="evenodd" d="M28.7807 27.8907C28.2614 28.0901 25.8411 29.3987 25.0077 30.305C24.1744 31.2112 23.8101 33.1252 25.0077 33.93C26.2054 34.7383 24.9407 38.5663 28.1693 39.2696C31.3979 39.9728 34.6306 40.3825 34.7521 42.5937C34.8651 44.805 34.4506 49.9416 32.897 50.4491C34.9907 51.4532 40.0869 46.1172 41.8792 43.297C43.6756 40.4803 44.2744 36.4493 44.153 35.4416C44.0316 34.4375 44.8691 32.3241 45.2292 29.6053C45.5851 26.8866 42.8423 26.7053 42.4864 25.4982C42.1221 24.2875 41.6363 22.9571 28.7807 27.8907Z" fill="#44E2EE"/>
<path fill-rule="evenodd" clip-rule="evenodd" d="M54.961 14.5C54.961 14.5 46.5357 17.6211 52.2642 22.2575C57.9844 26.8866 60.8989 31.2838 60.6183 32.2915C60.3587 33.292 54.8396 38.4758 58.0095 38.0698C61.1962 37.6674 63.5454 32.2299 64.0521 29.0036C64.5504 25.7774 60.1828 19.4373 60.0027 18.937C59.852 18.4259 56.9794 14.5544 54.961 14.5Z" fill="#44E2EE"/>
</g>
<defs>
<clipPath id="clip0_89_28">
<rect width="67" height="58" fill="white"/>
</clipPath>
</defs>
</svg>
