<svg width="67" height="49" viewBox="0 0 67 49" fill="none" xmlns="http://www.w3.org/2000/svg">
<path fill-rule="evenodd" clip-rule="evenodd" d="M7.3886 33.0651C7.9581 37.051 9.782 40.8597 12.6667 44.0851L6.7819 48.0323C3.07827 43.8918 0.733266 38.9875 0 33.8545L7.3886 33.0651ZM65.1117 21.236C65.7705 22.9824 66.2395 24.7933 66.5001 26.6203C66.6676 27.8287 66.7495 29.0112 66.7495 30.2389C66.7495 31.4633 66.6676 32.6459 66.5001 33.8478C65.7668 38.9872 63.4218 43.8914 59.7182 48.032L53.8334 44.0848C56.7181 40.8593 58.542 37.0507 59.1115 33.0648C59.2418 32.1368 59.305 31.1991 59.305 30.2389C59.305 29.2754 59.2418 28.3378 59.1115 27.4033C58.9068 25.9952 58.5494 24.5936 58.0395 23.2402L65.1117 21.236ZM60.3964 8.49695L65.6596 13.0532L35.1113 39.4979L16.9692 23.7928L22.2324 19.2366L35.1113 30.3855L60.3964 8.49695ZM6.7819 12.4426L12.6667 16.3898C9.782 19.6152 7.9581 23.4239 7.3886 27.4098L0 26.6203C0.733266 21.4873 3.07827 16.5831 6.7819 12.4426ZM29.0731 1.45575L29.9851 7.85188C25.3769 8.34165 20.9773 9.92375 17.2551 12.421L12.6916 7.32665C17.4747 4.12054 23.1362 2.08731 29.0731 1.45575ZM37.4291 1.45544C43.3624 2.09021 49.0276 4.12021 53.8069 7.32631L49.2435 12.4206C45.525 9.92344 41.1216 8.34131 36.5172 7.85155L37.4291 1.45544Z" fill="#1EE8EB" stroke="#1EE8EB"/>
</svg>
