<svg width="62" height="62" viewBox="0 0 62 62" fill="none" xmlns="http://www.w3.org/2000/svg">
<path d="M37.6667 11V7.66667C37.6667 3.98477 34.682 1 31 1C27.318 1 24.3333 3.98477 24.3333 7.66667V11M21 27.6667H41C42.841 27.6667 44.3333 26.1743 44.3333 24.3333V14.3333C44.3333 12.4924 42.841 11 41 11H21C19.1591 11 17.6667 12.4924 17.6667 14.3333V24.3333C17.6667 26.1743 19.1591 27.6667 21 27.6667ZM7.66667 61H54.3333C58.0153 61 61 58.0153 61 54.3333V44.3333C61 40.6513 58.0153 37.6667 54.3333 37.6667H7.66667C3.98477 37.6667 1 40.6513 1 44.3333V54.3333C1 58.0153 3.98477 61 7.66667 61Z" stroke="#6CD1EA" stroke-width="2" stroke-linecap="round" stroke-linejoin="round"/>
<path d="M16 54.3333C18.7614 54.3333 21 52.0947 21 49.3333C21 46.5718 18.7614 44.3333 16 44.3333C13.2386 44.3333 11 46.5718 11 49.3333C11 52.0947 13.2386 54.3333 16 54.3333Z" fill="#6CD1EA" stroke="#9BE1F3"/>
<path d="M31 54.3333C33.7614 54.3333 36 52.0947 36 49.3333C36 46.5718 33.7614 44.3333 31 44.3333C28.2386 44.3333 26 46.5718 26 49.3333C26 52.0947 28.2386 54.3333 31 54.3333Z" fill="#6CD1EA" stroke="#9BE1F3"/>
<path d="M46 54.3333C48.7614 54.3333 51 52.0947 51 49.3333C51 46.5718 48.7614 44.3333 46 44.3333C43.2386 44.3333 41 46.5718 41 49.3333C41 52.0947 43.2386 54.3333 46 54.3333Z" fill="#6CD1EA" stroke="#9BE1F3"/>
</svg>
