<svg width="67" height="58" viewBox="0 0 67 58" fill="none" xmlns="http://www.w3.org/2000/svg">
<path d="M57.0665 51.6279C56.9458 51.6279 56.8477 51.6634 56.7699 51.7324C56.6922 51.8014 56.6514 51.9041 56.6514 52.0315C56.6514 52.1572 56.6902 52.2563 56.7638 52.3289C56.8394 52.4015 56.9396 52.4387 57.0665 52.4387C57.185 52.4387 57.2852 52.4032 57.363 52.3324C57.4407 52.2616 57.4796 52.1625 57.4796 52.0315C57.4796 51.9041 57.4407 51.8015 57.363 51.7324C57.2852 51.6633 57.185 51.6279 57.0665 51.6279Z" fill="#44E2EE" stroke="#44E2EE"/>
<path d="M52.9954 52.3289C53.1099 52.3289 53.204 52.2953 53.2797 52.2298C53.3553 52.1625 53.3921 52.0811 53.3921 51.9784C53.3921 51.8793 53.3553 51.7962 53.2797 51.7289C53.204 51.6616 53.1099 51.6279 52.9954 51.6279C52.8809 51.6279 52.7868 51.6616 52.7091 51.7289C52.6335 51.7962 52.5946 51.8793 52.5946 51.9784C52.5946 52.0811 52.6335 52.1625 52.7091 52.2298C52.7868 52.2953 52.8809 52.3289 52.9954 52.3289Z" fill="#44E2EE" stroke="#44E2EE"/>
<path d="M44.8597 52.7255C44.7411 52.7255 44.6409 52.7609 44.5631 52.8317C44.4854 52.9025 44.4465 53.0016 44.4465 53.1326C44.4465 53.2619 44.4854 53.3627 44.5631 53.4318C44.6409 53.5026 44.741 53.5362 44.8597 53.5362C44.9803 53.5362 45.0805 53.5026 45.1581 53.4318C45.2359 53.3628 45.2747 53.2619 45.2747 53.1326C45.2747 53.007 45.2359 52.9095 45.1623 52.8352C45.0866 52.7626 44.9865 52.7255 44.8597 52.7255Z" fill="#44E2EE" stroke="#44E2EE"/>
<path d="M52.9954 52.7697C52.8686 52.7697 52.7643 52.8068 52.6806 52.8811C52.5968 52.9554 52.5538 53.0457 52.5538 53.1555C52.5538 53.2634 52.5967 53.3555 52.6806 53.428C52.7645 53.5005 52.8688 53.536 52.9954 53.536C53.1221 53.536 53.2265 53.5005 53.3103 53.428C53.394 53.3555 53.4371 53.2634 53.4371 53.1555C53.4371 53.0457 53.3941 52.9554 53.3103 52.8811C53.2264 52.8068 53.1222 52.7697 52.9954 52.7697Z" fill="#44E2EE" stroke="#44E2EE"/>
<path d="M61.0843 25.6229C61.8327 23.8422 61.6815 21.7962 60.4649 20.0456L49.5359 4.3189C48.1251 2.29049 45.6388 1.16821 43.089 1.16821C41.7702 1.16821 40.435 1.46739 39.2246 2.09927L3.6431 20.6279C0.0854284 22.4829 -1.06168 26.4777 1.07708 29.5558L10.4478 43.0398V50.3288C10.4478 53.9201 13.8113 56.8318 17.962 56.8318H59.4854C63.6361 56.8318 66.9996 53.9201 66.9996 50.3288V31.9755C66.9996 28.8585 64.4663 26.2565 61.0843 25.6229ZM49.9552 10.1989L57.774 21.4456C58.6675 22.7323 58.5592 24.2917 57.6676 25.4706H20.6323L49.9552 10.1989ZM26.748 30.0284C26.748 30.9966 25.8401 31.7825 24.7218 31.7825C23.6035 31.7825 22.6975 30.9965 22.6975 30.0284C22.6975 29.0603 23.6033 28.2744 24.7218 28.2744C25.8403 28.2744 26.748 29.0602 26.748 30.0284ZM21.3214 34.7756V36.6642C21.3214 36.728 21.2581 36.7775 21.1804 36.7775H20.0517H19.931H19.6325C19.5548 36.7775 19.4894 36.7279 19.4894 36.6642V36.0482C19.4894 35.9844 19.5548 35.9314 19.6325 35.9314H19.79V34.7756C19.79 34.7136 19.8533 34.6605 19.931 34.6605H21.1804C21.2581 34.6606 21.3214 34.7137 21.3214 34.7756ZM10.4478 31.9755V37.7652L6.87978 32.6321L10.595 30.6993C10.499 31.1117 10.4478 31.5382 10.4478 31.9755ZM4.26063 28.8638L3.76781 28.1558C2.52465 26.3663 3.1953 24.0352 5.26039 22.9572L40.842 4.42867C41.5249 4.07467 42.3018 3.88708 43.0891 3.88708C44.643 3.88708 46.0457 4.57209 46.8451 5.72087L47.3359 6.42888L4.26063 28.8638ZM17.1278 30.0284C17.1278 29.0602 18.0336 28.2744 19.152 28.2744C20.2726 28.2744 21.1783 29.0603 21.1783 30.0284C21.1783 30.9965 20.2724 31.7825 19.152 31.7825C18.0336 31.7826 17.1278 30.9966 17.1278 30.0284ZM25.0284 53.9697H24.4436V51.7413L23.7893 52.2315V51.6863L24.4436 51.1942H25.0284V53.9697ZM26.3595 47.8083L26.1284 48.4101C26.0609 48.5765 25.8688 48.6933 25.6479 48.6933H25.5047C25.3452 48.6933 25.1939 48.6314 25.0999 48.5269C25.0058 48.4207 24.9792 48.2862 25.0262 48.1623L25.2573 47.5622C25.3248 47.3941 25.519 47.2772 25.7378 47.2772H25.881C26.0405 47.2772 26.1917 47.3392 26.2858 47.4436C26.3799 47.5499 26.4086 47.6844 26.3595 47.8083ZM29.6065 53.5148V53.9697H27.6579V53.5148L28.856 52.3094C28.9153 52.2492 28.9582 52.1943 28.9828 52.1448C29.0094 52.0952 29.0217 52.0385 29.0217 51.9749C29.0217 51.8704 28.989 51.7873 28.9236 51.7235C28.856 51.6597 28.76 51.6279 28.6353 51.6279C28.5862 51.6279 28.5392 51.6332 28.4942 51.6455C28.4472 51.6562 28.4042 51.6774 28.3674 51.7022C28.3285 51.7305 28.2999 51.766 28.2774 51.812C28.2549 51.8579 28.2426 51.9146 28.2426 51.9819H27.6578C27.6578 51.8544 27.6824 51.7412 27.7314 51.642C27.7805 51.5411 27.85 51.4561 27.94 51.3853C28.028 51.3163 28.1302 51.2632 28.2508 51.2261C28.3674 51.1889 28.4962 51.1712 28.6353 51.1712C28.7763 51.1712 28.9072 51.1889 29.0258 51.2279C29.1464 51.2668 29.2486 51.3182 29.3345 51.3871C29.4203 51.458 29.4878 51.5411 29.5348 51.642C29.5839 51.7412 29.6064 51.8544 29.6064 51.9784C29.6064 52.0457 29.6002 52.1058 29.5839 52.1589C29.5696 52.2121 29.5471 52.2652 29.5184 52.3147C29.4898 52.3625 29.4551 52.4103 29.4121 52.4598C29.367 52.5076 29.318 52.5589 29.2648 52.6121L28.3692 53.5148H29.6065ZM30.6103 41.4858L29.04 43.2665C28.9378 43.3833 28.7681 43.447 28.5943 43.4364C28.4205 43.4257 28.2631 43.3426 28.1833 43.2169L27.1507 41.5849C27.0627 41.4486 26.8911 41.3619 26.705 41.3619H25.4434C25.3412 41.3619 25.2409 41.3937 25.157 41.4415C24.971 41.5743 24.924 41.7937 25.0589 41.9672L26.1304 43.3373C26.2101 43.4399 26.2306 43.5656 26.1835 43.6806L24.2574 48.4951C24.1899 48.6632 23.9978 48.7783 23.7809 48.7783H21.3662C21.0881 48.7783 20.8631 48.5942 20.8631 48.3694V45.2985C20.8631 45.0719 20.6382 44.8897 20.3601 44.8897H18.8041C18.526 44.8897 18.3011 44.7074 18.3011 44.4808V41.5904C18.3011 41.3656 18.526 41.1815 18.8041 41.1815H21.8487C22.1267 41.1815 22.3517 40.9993 22.3517 40.7744V40.6664C22.3517 40.4417 22.1267 40.2576 21.8487 40.2576H21.3968C21.1187 40.2576 20.8938 40.2966 20.8938 40.463C20.8938 40.7355 20.6811 40.8595 20.4153 40.8666C20.4236 40.8666 20.4317 40.8701 20.44 40.8701H20.3909C20.4011 40.8701 20.4071 40.8666 20.4153 40.8666C20.1496 40.8595 19.9371 40.7268 19.9371 40.463C19.9371 40.3142 19.7121 40.2576 19.434 40.2576H18.8042C18.5261 40.2576 18.3012 40.077 18.3012 39.8505V38.8593C18.3012 38.7158 18.3953 38.5831 18.5486 38.5088L20.3807 37.6273C20.4584 37.5902 20.5463 37.5725 20.6383 37.5725H24.1573C24.3884 37.5725 24.5887 37.4432 24.6439 37.2628L24.7789 36.8132C24.8258 36.6539 24.7523 36.4981 24.607 36.4025C24.4619 36.4132 24.3228 36.4574 24.237 36.5583L23.8935 36.9654C23.7422 37.1442 23.4457 37.1973 23.2188 37.0858L22.6524 36.808C22.4255 36.6965 22.3457 36.4646 22.4623 36.2752L23.965 33.8608C24.0509 33.7228 24.2227 33.6361 24.4128 33.6361H25.4208C25.5987 33.6361 25.7644 33.7122 25.8523 33.8378L26.6026 34.875C26.6946 35.0007 26.8582 35.0768 27.0362 35.0768H27.5862C27.7825 35.0768 27.9603 34.983 28.0421 34.8414L28.9295 33.2944C29.0112 33.1528 29.1891 33.0607 29.3834 33.0607L40.0342 33.0501C40.2836 33.0501 40.486 33.213 40.486 33.4147V36.1017C40.486 36.2414 40.3879 36.3707 40.2324 36.4309L36.3066 37.6769C36.1675 37.7301 36.0694 37.8345 36.0347 37.9566L35.7097 39.1709C35.6606 39.3568 35.4561 39.4896 35.2189 39.4896H35.2005C34.9245 39.4896 34.6975 39.309 34.6975 39.0824C34.6975 38.9638 34.4215 39.001 34.2435 39.1674C34.1004 39.3055 33.8939 39.5497 33.7753 39.7037L32.6466 41.1285C32.5546 41.2453 32.3951 41.3161 32.2254 41.3161H31.0171C30.8557 41.3159 30.7044 41.376 30.6103 41.4858ZM33.1336 43.8859C32.9721 43.8859 32.8432 43.7868 32.8432 43.6628V43.5496C32.8432 43.4256 32.7144 43.3265 32.5528 43.3265H32.4935C32.334 43.3265 32.2032 43.2256 32.2032 43.1018V42.9318C32.2032 42.8062 32.334 42.7071 32.4935 42.7071H34.3092C34.4441 42.7071 34.5648 42.6328 34.5913 42.53L34.7528 41.9495C34.7815 41.8468 34.9 41.7724 35.0371 41.7724H35.8488C35.9367 41.7724 36.0206 41.8042 36.0737 41.8574C36.1289 41.9105 36.1515 41.9795 36.131 42.045L35.6628 43.7088C35.6322 43.8133 35.5156 43.8859 35.3807 43.8859H33.1336ZM34.0904 44.4346V44.5373C34.0904 44.6612 33.9617 44.762 33.8021 44.762H33.1908C33.0312 44.762 32.9004 44.6611 32.9004 44.5373V44.4346C32.9004 44.309 33.0312 44.2081 33.1908 44.2081H33.8021C33.9617 44.2081 34.0904 44.309 34.0904 44.4346ZM35.2784 41.4681C35.1925 41.4681 35.1107 41.4398 35.0555 41.3867C35.0003 41.3335 34.9778 41.2663 34.9941 41.2008L35.1762 40.4626C35.2027 40.3564 35.3213 40.2786 35.4604 40.2786H36.722C36.8078 40.2786 36.8896 40.3087 36.9449 40.36C37.0001 40.4131 37.0226 40.4804 37.0062 40.5441L36.8242 41.2876C36.7976 41.3902 36.6791 41.4681 36.54 41.4681H35.2784ZM31.4365 44.7921V44.647C31.4365 44.5249 31.4692 44.424 31.3301 44.424H31.2994C31.1707 44.424 31.097 44.323 31.097 44.1974V43.8894C31.097 43.7655 31.2258 43.6628 31.3853 43.6628H31.4365H32.1704C32.33 43.6628 32.4587 43.7655 32.4587 43.8894V44.424V44.7921C32.4587 44.9178 32.33 45.0169 32.1704 45.0169H31.7267C31.5673 45.017 31.4365 44.9179 31.4365 44.7921ZM33.6018 53.529C33.5466 53.6334 33.473 53.7202 33.3809 53.7874C33.2868 53.8582 33.1785 53.9078 33.0558 53.9431C32.9331 53.9768 32.8022 53.9927 32.6633 53.9927C32.5324 53.9927 32.4056 53.9786 32.285 53.9467C32.1622 53.9149 32.0538 53.8671 31.9599 53.7998C31.8638 53.7343 31.7902 53.6494 31.7309 53.5467C31.6757 53.4441 31.645 53.3202 31.643 53.1751H32.2278C32.2299 53.237 32.2441 53.2919 32.2687 53.3362C32.2912 53.3821 32.3239 53.4193 32.3628 53.4512C32.4017 53.4796 32.4467 53.5009 32.4998 53.515C32.5529 53.5292 32.6062 53.5363 32.6634 53.5363C32.7902 53.5363 32.8945 53.5045 32.9763 53.4372C33.056 53.3717 33.0969 53.2761 33.0969 53.1505C33.0969 53.0337 33.0581 52.9416 32.9803 52.8726C32.9006 52.8036 32.7902 52.77 32.647 52.77H32.5612V52.3292H32.647C32.7902 52.3292 32.8945 52.2956 32.9578 52.2301C33.0212 52.1628 33.0519 52.0813 33.0519 51.9822C33.0519 51.8654 33.0131 51.7768 32.9353 51.7167C32.8556 51.6565 32.7656 51.6282 32.6593 51.6282C32.5489 51.6282 32.4569 51.6565 32.3834 51.7167C32.3097 51.7733 32.2689 51.8548 32.2627 51.9627H31.6779C31.6819 51.8371 31.7085 51.7273 31.7618 51.6299C31.815 51.5325 31.8845 51.4493 31.9704 51.3821C32.0583 51.3131 32.1605 51.2634 32.2791 51.2263C32.3976 51.1891 32.5244 51.1715 32.6593 51.1715C32.8004 51.1715 32.9313 51.1909 33.0519 51.2299C33.1705 51.2689 33.2748 51.3237 33.3627 51.3945C33.4486 51.4635 33.5161 51.5468 33.5651 51.6459C33.6121 51.7415 33.6367 51.8513 33.6367 51.9662C33.6367 52.1167 33.6019 52.2371 33.5303 52.3274C33.4608 52.4177 33.3729 52.4867 33.2686 52.5345C33.381 52.5876 33.4792 52.6637 33.561 52.7645C33.6407 52.8637 33.6816 52.9982 33.6816 53.1682C33.6815 53.306 33.6549 53.4263 33.6018 53.529ZM34.6956 49.1606L34.4973 48.8881C34.4605 48.8367 34.3909 48.8049 34.3173 48.8049H32.0621C31.9455 48.8049 31.8535 48.7288 31.8535 48.6368V47.4332C31.8535 47.3765 31.8841 47.3269 31.9393 47.2951L33.3399 46.4632C33.4054 46.4242 33.4892 46.4207 33.5587 46.449C33.6303 46.4773 33.6732 46.5358 33.6732 46.6012V46.5358C33.6732 46.6296 33.7673 46.7057 33.8838 46.7057H34.7446C34.8612 46.7057 34.9532 46.6296 34.9532 46.5358C34.9532 46.442 35.0473 46.364 35.1637 46.364H35.2517C35.313 46.364 35.3702 46.387 35.4112 46.4225L36.5521 47.4775C36.5849 47.5076 36.6033 47.5483 36.6033 47.5889V48.5536C36.6033 48.5979 36.5808 48.6421 36.54 48.6758L35.8755 49.1979C35.8366 49.228 35.7835 49.2457 35.7303 49.2457H34.8757C34.802 49.2456 34.7324 49.2137 34.6956 49.1606ZM37.824 53.5751H37.5316V53.9697H36.9693V53.5751H35.6586V53.0971L36.7567 51.1943H37.3967L36.2987 53.0971H36.9693V52.5767H37.5316V53.0971H37.824V53.5751ZM41.7497 53.4405C41.7149 53.5573 41.6373 53.667 41.5207 53.7662C41.4492 53.8299 41.3551 53.883 41.2386 53.9273C41.1241 53.9715 40.9809 53.9927 40.8133 53.9927C40.6457 53.9927 40.5025 53.9714 40.3819 53.9273C40.2612 53.8831 40.1671 53.8299 40.0976 53.7697C39.9995 53.6847 39.932 53.5926 39.8993 53.4935C39.8665 53.3944 39.8461 53.2953 39.8359 53.1943H40.4227C40.437 53.3023 40.4758 53.3872 40.5372 53.4474C40.5986 53.5075 40.6906 53.5359 40.8132 53.5359C40.9298 53.5359 41.0237 53.5075 41.0934 53.4474C41.1445 53.4031 41.1772 53.3448 41.1936 53.274C41.212 53.2032 41.2182 53.1217 41.2182 53.0332C41.2182 52.874 41.1895 52.75 41.1303 52.6651C41.0729 52.5766 40.9707 52.5341 40.8276 52.5341C40.7069 52.5341 40.619 52.5589 40.5597 52.6067C40.5004 52.6545 40.4616 52.7077 40.4412 52.7607H39.9054V51.1942H41.7313V51.6509H40.435V52.2474C40.4779 52.2103 40.5414 52.1784 40.6272 52.1483C40.7131 52.12 40.8093 52.1058 40.9176 52.1058C41.0525 52.1058 41.1691 52.1235 41.2694 52.1571C41.3675 52.1908 41.4493 52.2368 41.5168 52.2934C41.6436 52.4032 41.7214 52.52 41.7541 52.6474C41.7868 52.7713 41.8031 52.9023 41.8031 53.0332C41.803 53.1891 41.7866 53.3254 41.7497 53.4405ZM45.784 53.4936C45.7328 53.5999 45.6613 53.6919 45.5714 53.7662C45.4813 53.8388 45.3751 53.8971 45.2544 53.9343C45.1317 53.9732 45.0008 53.9927 44.8597 53.9927C44.7187 53.9927 44.5878 53.9751 44.4672 53.9361C44.3444 53.8989 44.2403 53.844 44.1481 53.7697C44.0581 53.6989 43.9886 53.6086 43.9376 53.5024C43.8864 53.3945 43.8599 53.2741 43.8599 53.1361C43.8599 53.0087 43.8885 52.8847 43.9416 52.7644C43.9969 52.6458 44.0582 52.5237 44.1298 52.3963L44.8066 51.1945H45.4467L44.7801 52.3396C44.8189 52.329 44.8578 52.3183 44.8986 52.3148C44.9396 52.3077 44.9783 52.3042 45.0172 52.3042C45.1255 52.3042 45.2298 52.3255 45.3301 52.3626C45.4303 52.3998 45.5223 52.4529 45.602 52.5237C45.6797 52.5945 45.743 52.6795 45.7902 52.7821C45.8373 52.8847 45.8596 53.0016 45.8596 53.1291C45.8596 53.2652 45.835 53.3874 45.784 53.4936ZM49.9694 51.651L48.9307 53.9697H48.2948L49.3355 51.651H48.489V52.0881H47.9308V51.1942H49.9693V51.651H49.9694ZM53.9422 53.5184C53.887 53.6229 53.8134 53.7096 53.7213 53.7786C53.6272 53.8476 53.5188 53.9026 53.3941 53.9397C53.2694 53.9752 53.1365 53.9928 52.9954 53.9928C52.8543 53.9928 52.7214 53.9752 52.5967 53.9397C52.472 53.9026 52.3636 53.8476 52.2716 53.7786C52.1775 53.7096 52.104 53.6229 52.0488 53.5184C51.9956 53.4158 51.9691 53.2989 51.9691 53.1626C51.9691 53.0758 51.9814 53.0015 52.0079 52.9379C52.0325 52.8706 52.0653 52.8139 52.104 52.7644C52.1429 52.7113 52.1858 52.6688 52.2328 52.6335C52.2797 52.5981 52.3248 52.5662 52.3698 52.5397C52.3268 52.5167 52.2859 52.4865 52.243 52.4494C52.202 52.4139 52.1633 52.3715 52.1285 52.3255C52.0937 52.2795 52.0671 52.2245 52.0446 52.1662C52.0221 52.106 52.0098 52.0387 52.0098 51.9626C52.0098 51.8405 52.0363 51.7307 52.0875 51.6334C52.1406 51.5361 52.2122 51.4512 52.3022 51.3839C52.3923 51.3149 52.4964 51.2634 52.6151 51.2263C52.7338 51.1891 52.8605 51.1715 52.9954 51.1715C53.1303 51.1715 53.2571 51.1891 53.3757 51.2263C53.4942 51.2634 53.5985 51.3148 53.6865 51.3839C53.7765 51.4512 53.846 51.5361 53.897 51.6334C53.9502 51.7307 53.9767 51.8405 53.9767 51.9626C53.9767 52.0387 53.9665 52.106 53.9419 52.1662C53.9194 52.2246 53.8928 52.2795 53.858 52.3255C53.8232 52.3715 53.7844 52.4139 53.7414 52.4494C53.6964 52.4865 53.6556 52.5167 53.6167 52.5397C53.6617 52.5662 53.7068 52.5981 53.7537 52.6335C53.8007 52.6688 53.8438 52.7114 53.8846 52.7644C53.9256 52.814 53.9583 52.8707 53.9827 52.9379C54.0093 53.0016 54.0216 53.0759 54.0216 53.1626C54.022 53.2989 53.9954 53.4157 53.9422 53.5184ZM57.9866 52.3998C57.9335 52.5184 57.8721 52.6423 57.8006 52.7697L57.1197 53.9698H56.4858L57.1524 52.8247C57.1136 52.837 57.0727 52.846 57.0318 52.8512C56.9908 52.8564 56.9521 52.86 56.9132 52.86C56.8049 52.86 56.7006 52.8405 56.5984 52.8034C56.4962 52.7644 56.4061 52.7113 56.3284 52.6405C56.2507 52.5697 56.1873 52.4847 56.1402 52.3821C56.0911 52.283 56.0665 52.1662 56.0665 52.0369C56.0665 51.9007 56.0931 51.7802 56.1443 51.6723C56.1954 51.5643 56.2649 51.4722 56.3548 51.3997C56.4449 51.3254 56.5511 51.2688 56.6718 51.2298C56.7945 51.1908 56.9254 51.1713 57.0664 51.1713C57.2075 51.1713 57.3384 51.189 57.4611 51.228C57.5818 51.267 57.688 51.3201 57.7781 51.3944C57.8681 51.467 57.9376 51.5573 57.9886 51.6634C58.0396 51.7696 58.0663 51.89 58.0663 52.0281C58.0663 52.1554 58.0398 52.2794 57.9866 52.3998ZM58.823 44.4913C58.823 44.6134 58.7657 44.732 58.6594 44.8346L54.2408 49.0437C54.063 49.2118 53.7664 49.3127 53.4495 49.3127H52.0939C51.826 49.3127 51.5726 49.2419 51.3926 49.1145C51.2106 48.9906 51.1227 48.8206 51.1452 48.6507L51.9467 42.661C51.9754 42.4556 51.8403 42.2538 51.5847 42.1264L47.5015 40.0714C47.3093 39.9758 47.1825 39.8377 47.1457 39.6837L46.5855 37.4039C46.5118 37.1066 46.1133 36.887 45.6449 36.887H43.774C43.2485 36.887 42.8232 36.6127 42.8232 36.2746V33.6729C42.8232 33.3331 43.2485 33.0605 43.774 33.0605H56.13C56.5594 33.0605 56.9356 33.2446 57.0481 33.5101L58.4079 36.7175C58.4918 36.9157 58.4161 37.1281 58.2075 37.2803L55.0831 39.5919C54.9032 39.7246 54.6394 39.8007 54.3655 39.8007H53.8809C53.5088 39.8007 53.1714 39.9423 53.0161 40.1583C52.8627 40.376 52.9179 40.6327 53.1612 40.8149L53.8605 41.3335C54.0405 41.4716 54.3043 41.5495 54.5802 41.5495H57.8723C58.3957 41.5495 58.8231 41.822 58.8231 42.1584V44.4913H58.823Z" fill="#44E2EE"/>
<path d="M20.4153 40.8666C20.6811 40.8595 20.8938 40.7355 20.8938 40.463C20.8938 40.2966 21.1187 40.2576 21.3968 40.2576H21.8487C22.1267 40.2576 22.3517 40.4417 22.3517 40.6664V40.7744C22.3517 40.9993 22.1267 41.1815 21.8487 41.1815H18.8041C18.526 41.1815 18.3011 41.3656 18.3011 41.5904V44.4808C18.3011 44.7074 18.526 44.8897 18.8041 44.8897H20.3601C20.6382 44.8897 20.8631 45.0719 20.8631 45.2985V48.3694C20.8631 48.5942 21.0881 48.7783 21.3662 48.7783H23.7809C23.9978 48.7783 24.1899 48.6632 24.2574 48.4951L26.1835 43.6806C26.2306 43.5656 26.2101 43.4399 26.1304 43.3373L25.0589 41.9672C24.924 41.7937 24.971 41.5743 25.157 41.4415C25.2409 41.3937 25.3412 41.3619 25.4434 41.3619H26.705C26.8911 41.3619 27.0627 41.4486 27.1507 41.5849L28.1833 43.2169C28.2631 43.3426 28.4205 43.4257 28.5943 43.4364C28.7681 43.447 28.9378 43.3833 29.04 43.2665L30.6103 41.4858C30.7044 41.376 30.8557 41.3159 31.0171 41.3161H32.2254C32.3951 41.3161 32.5546 41.2453 32.6466 41.1285L33.7753 39.7037C33.8939 39.5497 34.1004 39.3055 34.2435 39.1674C34.4215 39.001 34.6975 38.9638 34.6975 39.0824C34.6975 39.309 34.9245 39.4896 35.2005 39.4896H35.2189C35.4561 39.4896 35.6606 39.3568 35.7097 39.1709L36.0347 37.9566C36.0694 37.8345 36.1675 37.7301 36.3066 37.6769L40.2324 36.4309C40.3879 36.3707 40.486 36.2414 40.486 36.1017V33.4147C40.486 33.213 40.2836 33.0501 40.0342 33.0501L29.3834 33.0607C29.1891 33.0607 29.0112 33.1528 28.9295 33.2944L28.0421 34.8414C27.9603 34.983 27.7825 35.0768 27.5862 35.0768H27.0362C26.8582 35.0768 26.6946 35.0007 26.6026 34.875L25.8523 33.8378C25.7644 33.7122 25.5987 33.6361 25.4208 33.6361H24.4128C24.2227 33.6361 24.0509 33.7228 23.965 33.8608L22.4623 36.2752C22.3457 36.4646 22.4255 36.6965 22.6524 36.808L23.2187 37.0858C23.4457 37.1973 23.7422 37.1442 23.8935 36.9654L24.237 36.5583C24.3228 36.4574 24.4619 36.4132 24.607 36.4025C24.7523 36.4981 24.8258 36.6539 24.7789 36.8132L24.6439 37.2628C24.5887 37.4432 24.3884 37.5725 24.1573 37.5725H20.6383C20.5463 37.5725 20.4584 37.5902 20.3807 37.6273L18.5486 38.5088C18.3953 38.5831 18.3012 38.7158 18.3012 38.8593V39.8505C18.3012 40.077 18.5261 40.2576 18.8042 40.2576H19.434C19.7121 40.2576 19.9371 40.3142 19.9371 40.463C19.9371 40.7268 20.1496 40.8595 20.4153 40.8666ZM20.4153 40.8666C20.4236 40.8666 20.4317 40.8701 20.44 40.8701H20.3909C20.4011 40.8701 20.4071 40.8666 20.4153 40.8666ZM61.0843 25.6229C61.8327 23.8422 61.6815 21.7962 60.4649 20.0456L49.5359 4.3189C48.1251 2.29049 45.6388 1.16821 43.089 1.16821C41.7702 1.16821 40.435 1.46739 39.2246 2.09927L3.6431 20.6279C0.0854284 22.4829 -1.06168 26.4777 1.07708 29.5558L10.4478 43.0398V50.3288C10.4478 53.9201 13.8113 56.8318 17.962 56.8318H59.4854C63.6361 56.8318 66.9996 53.9201 66.9996 50.3288V31.9755C66.9996 28.8585 64.4663 26.2565 61.0843 25.6229ZM49.9552 10.1989L57.774 21.4456C58.6675 22.7323 58.5592 24.2917 57.6676 25.4706H20.6323L49.9552 10.1989ZM26.748 30.0284C26.748 30.9966 25.8401 31.7825 24.7218 31.7825C23.6035 31.7825 22.6975 30.9965 22.6975 30.0284C22.6975 29.0603 23.6033 28.2744 24.7218 28.2744C25.8403 28.2744 26.748 29.0602 26.748 30.0284ZM21.3214 34.7756V36.6642C21.3214 36.728 21.2581 36.7775 21.1804 36.7775H20.0517H19.931H19.6325C19.5548 36.7775 19.4894 36.7279 19.4894 36.6642V36.0482C19.4894 35.9844 19.5548 35.9314 19.6325 35.9314H19.79V34.7756C19.79 34.7136 19.8533 34.6605 19.931 34.6605H21.1804C21.2581 34.6606 21.3214 34.7137 21.3214 34.7756ZM10.4478 31.9755V37.7652L6.87978 32.6321L10.595 30.6993C10.499 31.1117 10.4478 31.5382 10.4478 31.9755ZM4.26063 28.8638L3.76781 28.1558C2.52465 26.3663 3.1953 24.0352 5.26039 22.9572L40.842 4.42867C41.5249 4.07467 42.3018 3.88708 43.0891 3.88708C44.643 3.88708 46.0457 4.57209 46.8451 5.72087L47.3359 6.42888L4.26063 28.8638ZM17.1278 30.0284C17.1278 29.0602 18.0336 28.2744 19.152 28.2744C20.2726 28.2744 21.1783 29.0603 21.1783 30.0284C21.1783 30.9965 20.2724 31.7825 19.152 31.7825C18.0336 31.7826 17.1278 30.9966 17.1278 30.0284ZM25.0284 53.9697H24.4436V51.7413L23.7893 52.2315V51.6863L24.4436 51.1942H25.0284V53.9697ZM26.3595 47.8083L26.1284 48.4101C26.0609 48.5765 25.8688 48.6933 25.6479 48.6933H25.5047C25.3452 48.6933 25.1939 48.6314 25.0999 48.5269C25.0058 48.4207 24.9792 48.2862 25.0262 48.1623L25.2573 47.5622C25.3248 47.3941 25.519 47.2772 25.7378 47.2772H25.881C26.0405 47.2772 26.1917 47.3392 26.2858 47.4436C26.3799 47.5499 26.4086 47.6844 26.3595 47.8083ZM29.6065 53.5148V53.9697H27.6579V53.5148L28.856 52.3094C28.9153 52.2492 28.9582 52.1943 28.9828 52.1448C29.0094 52.0952 29.0217 52.0385 29.0217 51.9749C29.0217 51.8704 28.989 51.7873 28.9236 51.7235C28.856 51.6597 28.76 51.6279 28.6353 51.6279C28.5862 51.6279 28.5392 51.6332 28.4942 51.6455C28.4472 51.6562 28.4042 51.6774 28.3674 51.7022C28.3285 51.7305 28.2999 51.766 28.2774 51.812C28.2549 51.8579 28.2426 51.9146 28.2426 51.9819H27.6578C27.6578 51.8544 27.6824 51.7412 27.7314 51.642C27.7805 51.5411 27.85 51.4561 27.94 51.3853C28.028 51.3163 28.1302 51.2632 28.2508 51.2261C28.3674 51.1889 28.4962 51.1712 28.6353 51.1712C28.7763 51.1712 28.9072 51.1889 29.0258 51.2279C29.1464 51.2668 29.2486 51.3182 29.3345 51.3871C29.4203 51.4579 29.4878 51.5411 29.5348 51.642C29.5839 51.7412 29.6064 51.8544 29.6064 51.9784C29.6064 52.0457 29.6002 52.1058 29.5839 52.1589C29.5696 52.2121 29.5471 52.2652 29.5184 52.3147C29.4898 52.3625 29.4551 52.4103 29.4121 52.4598C29.367 52.5076 29.318 52.5589 29.2648 52.6121L28.3692 53.5148H29.6065ZM33.1336 43.8859C32.9721 43.8859 32.8432 43.7868 32.8432 43.6628V43.5496C32.8432 43.4256 32.7144 43.3265 32.5528 43.3265H32.4935C32.334 43.3265 32.2032 43.2256 32.2032 43.1018V42.9318C32.2032 42.8062 32.334 42.7071 32.4935 42.7071H34.3092C34.4441 42.7071 34.5648 42.6328 34.5913 42.53L34.7528 41.9495C34.7815 41.8468 34.9 41.7724 35.0371 41.7724H35.8488C35.9367 41.7724 36.0206 41.8042 36.0737 41.8574C36.1289 41.9105 36.1515 41.9795 36.131 42.045L35.6628 43.7088C35.6322 43.8133 35.5156 43.8859 35.3807 43.8859H33.1336ZM34.0904 44.4346V44.5373C34.0904 44.6612 33.9617 44.762 33.8021 44.762H33.1908C33.0312 44.762 32.9004 44.6611 32.9004 44.5373V44.4346C32.9004 44.309 33.0312 44.2081 33.1908 44.2081H33.8021C33.9617 44.2081 34.0904 44.309 34.0904 44.4346ZM35.2784 41.4681C35.1925 41.4681 35.1107 41.4398 35.0555 41.3867C35.0003 41.3336 34.9778 41.2663 34.9941 41.2008L35.1762 40.4626C35.2027 40.3564 35.3213 40.2786 35.4604 40.2786H36.722C36.8078 40.2786 36.8896 40.3087 36.9449 40.36C37.0001 40.4131 37.0226 40.4804 37.0062 40.5441L36.8242 41.2876C36.7976 41.3902 36.6791 41.4681 36.54 41.4681H35.2784ZM31.4365 44.7921V44.647C31.4365 44.5249 31.4692 44.424 31.3301 44.424H31.2994C31.1707 44.424 31.097 44.323 31.097 44.1974V43.8894C31.097 43.7655 31.2258 43.6628 31.3853 43.6628H31.4365H32.1704C32.33 43.6628 32.4587 43.7655 32.4587 43.8894V44.424V44.7921C32.4587 44.9178 32.33 45.0169 32.1704 45.0169H31.7267C31.5673 45.017 31.4365 44.9179 31.4365 44.7921ZM33.6018 53.529C33.5466 53.6334 33.473 53.7202 33.3809 53.7874C33.2868 53.8582 33.1785 53.9078 33.0558 53.9431C32.9331 53.9768 32.8022 53.9927 32.6633 53.9927C32.5324 53.9927 32.4056 53.9786 32.2849 53.9467C32.1622 53.9149 32.0538 53.8671 31.9599 53.7998C31.8638 53.7343 31.7902 53.6494 31.7309 53.5467C31.6757 53.4441 31.645 53.3202 31.643 53.1751H32.2278C32.2299 53.237 32.2441 53.2919 32.2687 53.3362C32.2912 53.3821 32.3239 53.4193 32.3628 53.4512C32.4017 53.4796 32.4467 53.5009 32.4998 53.515C32.5529 53.5292 32.6062 53.5363 32.6634 53.5363C32.7902 53.5363 32.8945 53.5045 32.9763 53.4372C33.056 53.3717 33.0969 53.2761 33.0969 53.1505C33.0969 53.0337 33.0581 52.9416 32.9803 52.8726C32.9006 52.8036 32.7902 52.77 32.647 52.77H32.5612V52.3292H32.647C32.7902 52.3292 32.8945 52.2956 32.9578 52.2301C33.0212 52.1628 33.0519 52.0813 33.0519 51.9822C33.0519 51.8654 33.0131 51.7768 32.9353 51.7167C32.8556 51.6565 32.7656 51.6282 32.6593 51.6282C32.5489 51.6282 32.4569 51.6565 32.3834 51.7167C32.3097 51.7733 32.2689 51.8548 32.2627 51.9627H31.6779C31.6819 51.8371 31.7085 51.7273 31.7618 51.6299C31.815 51.5325 31.8845 51.4493 31.9704 51.3821C32.0583 51.3131 32.1605 51.2634 32.2791 51.2263C32.3976 51.1891 32.5244 51.1715 32.6593 51.1715C32.8004 51.1715 32.9313 51.1909 33.0519 51.2299C33.1705 51.2689 33.2748 51.3237 33.3627 51.3945C33.4485 51.4635 33.5161 51.5468 33.5651 51.6459C33.6121 51.7415 33.6367 51.8513 33.6367 51.9662C33.6367 52.1167 33.6019 52.2371 33.5303 52.3274C33.4608 52.4177 33.3729 52.4867 33.2686 52.5345C33.381 52.5876 33.4792 52.6637 33.561 52.7645C33.6407 52.8637 33.6816 52.9982 33.6816 53.1682C33.6815 53.306 33.6549 53.4263 33.6018 53.529ZM34.6956 49.1606L34.4973 48.8881C34.4605 48.8367 34.3909 48.8049 34.3173 48.8049H32.0621C31.9455 48.8049 31.8535 48.7288 31.8535 48.6368V47.4332C31.8535 47.3765 31.8841 47.3269 31.9393 47.2951L33.3399 46.4632C33.4054 46.4242 33.4892 46.4207 33.5587 46.449C33.6303 46.4773 33.6732 46.5358 33.6732 46.6012V46.5358C33.6732 46.6296 33.7673 46.7057 33.8838 46.7057H34.7446C34.8612 46.7057 34.9532 46.6296 34.9532 46.5358C34.9532 46.442 35.0473 46.364 35.1637 46.364H35.2517C35.313 46.364 35.3702 46.387 35.4112 46.4225L36.5521 47.4775C36.5849 47.5076 36.6033 47.5483 36.6033 47.5889V48.5536C36.6033 48.5979 36.5808 48.6421 36.54 48.6758L35.8755 49.1979C35.8366 49.228 35.7835 49.2457 35.7303 49.2457H34.8757C34.802 49.2456 34.7324 49.2137 34.6956 49.1606ZM37.824 53.5751H37.5316V53.9697H36.9693V53.5751H35.6586V53.0971L36.7567 51.1943H37.3967L36.2987 53.0971H36.9693V52.5767H37.5316V53.0971H37.824V53.5751ZM41.7497 53.4405C41.7149 53.5573 41.6373 53.667 41.5207 53.7662C41.4492 53.8299 41.3551 53.883 41.2386 53.9273C41.1241 53.9715 40.9809 53.9927 40.8133 53.9927C40.6457 53.9927 40.5025 53.9714 40.3819 53.9273C40.2612 53.8831 40.1671 53.8299 40.0976 53.7697C39.9995 53.6847 39.932 53.5926 39.8993 53.4935C39.8665 53.3944 39.8461 53.2953 39.8359 53.1943H40.4227C40.437 53.3023 40.4758 53.3872 40.5372 53.4474C40.5986 53.5075 40.6906 53.5359 40.8132 53.5359C40.9298 53.5359 41.0237 53.5075 41.0934 53.4474C41.1445 53.4031 41.1772 53.3448 41.1936 53.274C41.212 53.2032 41.2182 53.1217 41.2182 53.0332C41.2182 52.874 41.1895 52.75 41.1303 52.6651C41.0729 52.5766 40.9707 52.5341 40.8276 52.5341C40.7069 52.5341 40.619 52.5589 40.5597 52.6067C40.5004 52.6545 40.4616 52.7077 40.4412 52.7607H39.9054V51.1942H41.7313V51.6509H40.435V52.2474C40.4779 52.2102 40.5414 52.1784 40.6272 52.1483C40.7131 52.12 40.8093 52.1058 40.9176 52.1058C41.0525 52.1058 41.1691 52.1235 41.2694 52.1571C41.3675 52.1908 41.4493 52.2368 41.5168 52.2934C41.6436 52.4032 41.7214 52.52 41.7541 52.6474C41.7868 52.7713 41.8031 52.9023 41.8031 53.0332C41.803 53.1891 41.7866 53.3254 41.7497 53.4405ZM45.784 53.4936C45.7328 53.5999 45.6613 53.6919 45.5714 53.7662C45.4813 53.8388 45.3751 53.8971 45.2544 53.9343C45.1317 53.9732 45.0008 53.9927 44.8598 53.9927C44.7187 53.9927 44.5878 53.9751 44.4672 53.9361C44.3444 53.8989 44.2403 53.844 44.1481 53.7697C44.0581 53.6989 43.9886 53.6086 43.9376 53.5024C43.8864 53.3945 43.8599 53.2741 43.8599 53.1361C43.8599 53.0087 43.8885 52.8847 43.9416 52.7644C43.9969 52.6458 44.0582 52.5237 44.1298 52.3963L44.8066 51.1945H45.4467L44.7801 52.3396C44.8189 52.329 44.8578 52.3183 44.8986 52.3148C44.9396 52.3077 44.9783 52.3042 45.0172 52.3042C45.1255 52.3042 45.2298 52.3255 45.3301 52.3626C45.4303 52.3998 45.5223 52.4529 45.602 52.5237C45.6797 52.5945 45.743 52.6795 45.7902 52.7821C45.8373 52.8847 45.8596 53.0016 45.8596 53.1291C45.8596 53.2652 45.835 53.3874 45.784 53.4936ZM49.9694 51.651L48.9307 53.9697H48.2948L49.3355 51.651H48.489V52.0881H47.9308V51.1942H49.9693V51.651H49.9694ZM53.9422 53.5184C53.887 53.6229 53.8134 53.7096 53.7213 53.7786C53.6272 53.8476 53.5188 53.9026 53.3941 53.9397C53.2694 53.9752 53.1365 53.9928 52.9954 53.9928C52.8543 53.9928 52.7214 53.9752 52.5967 53.9397C52.472 53.9026 52.3636 53.8476 52.2716 53.7786C52.1775 53.7096 52.104 53.6229 52.0488 53.5184C51.9956 53.4158 51.9691 53.2989 51.9691 53.1626C51.9691 53.0758 51.9814 53.0015 52.0079 52.9379C52.0325 52.8706 52.0653 52.8139 52.104 52.7644C52.1429 52.7113 52.1858 52.6688 52.2328 52.6335C52.2797 52.5981 52.3248 52.5662 52.3698 52.5397C52.3268 52.5167 52.2859 52.4865 52.243 52.4494C52.202 52.4139 52.1633 52.3715 52.1285 52.3255C52.0937 52.2795 52.0671 52.2245 52.0446 52.1662C52.0221 52.106 52.0098 52.0387 52.0098 51.9626C52.0098 51.8405 52.0363 51.7307 52.0875 51.6334C52.1406 51.5361 52.2122 51.4512 52.3022 51.3839C52.3923 51.3149 52.4964 51.2634 52.6151 51.2263C52.7338 51.1891 52.8605 51.1715 52.9954 51.1715C53.1303 51.1715 53.2571 51.1891 53.3757 51.2263C53.4942 51.2634 53.5985 51.3148 53.6865 51.3839C53.7765 51.4512 53.846 51.5361 53.897 51.6334C53.9502 51.7307 53.9767 51.8405 53.9767 51.9626C53.9767 52.0387 53.9665 52.106 53.9419 52.1662C53.9194 52.2246 53.8928 52.2795 53.858 52.3255C53.8232 52.3715 53.7844 52.4139 53.7414 52.4494C53.6964 52.4865 53.6556 52.5167 53.6167 52.5397C53.6617 52.5662 53.7068 52.5981 53.7537 52.6335C53.8007 52.6688 53.8438 52.7114 53.8846 52.7644C53.9256 52.814 53.9583 52.8707 53.9827 52.9379C54.0093 53.0016 54.0216 53.0759 54.0216 53.1626C54.022 53.2989 53.9954 53.4157 53.9422 53.5184ZM57.9866 52.3998C57.9335 52.5184 57.8721 52.6423 57.8006 52.7697L57.1197 53.9698H56.4858L57.1524 52.8247C57.1136 52.837 57.0727 52.846 57.0318 52.8512C56.9908 52.8564 56.9521 52.86 56.9132 52.86C56.8049 52.86 56.7006 52.8405 56.5984 52.8034C56.4962 52.7644 56.4061 52.7113 56.3284 52.6405C56.2507 52.5697 56.1873 52.4847 56.1402 52.3821C56.0911 52.283 56.0665 52.1662 56.0665 52.0369C56.0665 51.9007 56.0931 51.7802 56.1443 51.6723C56.1954 51.5643 56.2649 51.4722 56.3548 51.3997C56.4449 51.3254 56.5511 51.2688 56.6718 51.2298C56.7945 51.1908 56.9254 51.1713 57.0664 51.1713C57.2075 51.1713 57.3384 51.189 57.4611 51.228C57.5818 51.267 57.688 51.3201 57.7781 51.3944C57.8681 51.467 57.9376 51.5573 57.9886 51.6634C58.0396 51.7696 58.0663 51.89 58.0663 52.0281C58.0663 52.1554 58.0398 52.2794 57.9866 52.3998ZM58.823 44.4913C58.823 44.6134 58.7657 44.732 58.6594 44.8346L54.2408 49.0437C54.063 49.2118 53.7664 49.3127 53.4495 49.3127H52.0939C51.826 49.3127 51.5726 49.2419 51.3926 49.1145C51.2106 48.9906 51.1227 48.8206 51.1452 48.6507L51.9467 42.661C51.9754 42.4556 51.8403 42.2538 51.5847 42.1264L47.5015 40.0714C47.3093 39.9758 47.1825 39.8377 47.1457 39.6837L46.5855 37.4039C46.5118 37.1066 46.1133 36.887 45.6449 36.887H43.774C43.2485 36.887 42.8232 36.6127 42.8232 36.2746V33.6729C42.8232 33.3331 43.2485 33.0605 43.774 33.0605H56.13C56.5594 33.0605 56.9356 33.2446 57.0481 33.5101L58.4079 36.7175C58.4918 36.9157 58.4161 37.1281 58.2075 37.2803L55.0831 39.5919C54.9032 39.7246 54.6394 39.8007 54.3655 39.8007H53.8809C53.5088 39.8007 53.1714 39.9423 53.0161 40.1583C52.8627 40.376 52.9179 40.6327 53.1612 40.8149L53.8605 41.3336C54.0404 41.4716 54.3043 41.5495 54.5802 41.5495H57.8723C58.3957 41.5495 58.8231 41.822 58.8231 42.1584V44.4913H58.823Z" stroke="#44E2EE"/>
</svg>
