<svg width="100" height="50" viewBox="0 0 100 50" fill="none" xmlns="http://www.w3.org/2000/svg">
<path d="M100 2.50638V47.4818C100 48.8703 98.5525 50 96.8064 50H3.13416C1.4328 49.9764 0.0300659 48.8822 0.000183105 47.5287V2.50638C0.000183105 1.12967 1.4328 0 3.17889 0H96.8066C98.5525 0 100 1.12967 100 2.50638Z" fill="url(#paint0_linear_214_378)"/>
<g opacity="0.1">
<path d="M60.0956 19.7458C60.0956 19.7458 59.8419 19.8869 59.6927 20.0518C59.6329 20.1224 59.4688 20.1575 59.3048 20.1693H59.2897C59.0212 20.1929 58.7077 20.1693 58.5436 20.1105C58.2452 20.0283 58.1407 19.875 57.9616 19.9222C57.9169 19.934 57.902 19.9457 57.8722 19.9574C57.7677 20.0163 57.7229 20.0868 57.4393 20.1573C57.0663 20.228 57.096 20.3223 57.0811 20.534C57.0663 20.7458 57.1557 20.8753 57.0514 21.0166C56.962 21.1695 56.335 21.1107 55.9472 21.0871C55.8427 21.0754 55.7382 21.0871 55.6487 21.1225H55.6337V21.1342C55.4099 21.1931 55.2157 21.3341 54.9472 21.5343C54.5741 21.8285 54.6934 21.8402 54.2011 21.7814C54.0817 21.7578 53.9474 21.7697 53.7981 21.7932C53.4101 21.8285 52.9923 21.9931 52.6192 22.1579C52.1269 22.3699 52.4552 22.464 52.4104 22.8875C52.3657 23.2995 52.2462 23.5112 51.9477 23.6876C51.6493 23.8642 51.4104 23.8878 50.9479 24.3585C50.9032 24.3937 50.8733 24.4291 50.8435 24.4644C50.4704 24.8291 50.4106 24.8644 50.2616 24.841C50.0825 24.8291 50.2019 23.9585 50.2019 23.6876C50.2019 23.4287 50.381 23.1228 50.8286 22.8287L50.8437 22.8168C51.2765 22.5462 51.5749 22.4874 51.9331 22.1227C52.2763 21.746 52.321 21.5225 52.1868 21.334C52.0524 21.1458 51.6794 21.6753 51.3958 21.7812C51.0974 21.8753 51.0675 21.7224 50.8437 21.5693L50.8286 21.5576C50.7243 21.4988 50.5601 21.5223 50.3958 21.5693V21.5812C50.172 21.6398 49.9331 21.7577 49.8138 21.7695C49.6198 21.7812 49.396 21.8636 49.0528 22.0284C49.038 22.0284 49.0081 22.0403 48.9931 22.052C48.6349 22.2283 48.5005 22.0872 48.0978 21.9577C47.7097 21.8167 47.2919 21.7224 46.695 21.9107C46.4712 21.9813 46.1429 22.2049 45.8294 22.4638C45.8144 22.4757 45.7847 22.4874 45.7698 22.4992C45.2624 22.9229 44.7849 23.417 44.8296 23.5701C44.9191 23.829 45.2773 23.7818 45.7548 24.0053C46.2323 24.2289 45.8593 24.2289 45.6802 24.7233C45.5011 25.2174 45.5608 25.2764 45.4413 25.6999C45.3071 26.1234 44.5011 26.4766 44.3071 26.6294C44.1132 26.7824 43.6357 27.159 43.1431 27.1002C42.6507 27.0295 42.6507 27.3826 42.2775 27.8886C41.9193 28.3945 42.188 28.2534 42.2624 28.5359C42.3372 28.8065 41.9491 29.4773 41.6655 29.7008C41.397 29.9243 41.1433 29.5125 41.2775 29.0654C41.3968 28.6064 41.1134 28.83 40.7999 28.7476C40.4716 28.6535 41.0237 28.477 40.964 28.2417C40.9193 28.0064 40.5462 28.2181 40.4118 28.2653C40.2777 28.3239 40.1134 28.418 39.8448 28.1946C39.6062 28.0064 39.6509 27.924 39.6657 27.9121C39.621 27.9474 39.3226 28.1827 38.9495 28.4533C38.5316 28.7593 39.0241 28.5828 39.4868 28.6769C39.9493 28.7592 39.7554 28.6769 40.1583 28.8299C40.5612 28.9945 39.8599 29.0062 39.5763 29.0888C39.3077 29.1595 39.3226 29.2887 39.6359 29.4655C39.9343 29.6418 40.1284 29.9243 40.2626 30.5952C40.4118 31.2659 39.8745 31.4188 39.3821 31.913C38.8747 32.4191 37.9495 32.6426 37.3228 32.7838C36.6812 32.925 36.8452 33.1249 36.3079 33.0544C35.7857 32.972 35.9947 32.8896 35.5468 33.0074C35.0991 33.1367 35.5468 33.4191 35.9796 33.8194C36.4124 34.2195 35.8603 35.1374 35.5616 35.2549C35.2632 35.3609 35.1886 35.7256 34.8005 35.6785C34.3976 35.6315 34.5021 35.3843 34.129 35.2314C33.741 35.0667 34.0841 35.6433 34.3677 36.2786C34.6363 36.8905 34.9347 36.8788 35.0392 37.22C35.0392 37.2317 35.054 37.2552 35.054 37.2788C35.0988 37.5258 34.7704 37.4789 34.3675 37.2788C34.3226 37.2552 34.2929 37.2435 34.2482 37.22C34.0095 37.0907 33.7706 36.9258 33.5468 36.7376C32.9052 36.1845 32.9499 36.2669 32.741 35.6785C32.5322 35.0901 32.547 35.0313 32.2783 34.8782C32.0097 34.7136 32.0695 34.6076 32.129 34.3487C32.1886 34.0781 30.771 32.8189 30.204 32.772C29.622 32.7248 29.8011 32.8896 29.5175 33.1485C29.2339 33.4191 28.5923 33.6663 28.1296 33.9135C27.6669 34.1725 27.6968 34.3489 27.6968 35.055C27.6968 35.7491 27.4431 35.7257 26.5777 35.9258C25.7123 36.1257 26.13 35.3726 25.8615 35.2078C25.5929 35.055 25.2794 34.2782 25.1302 33.4544C24.9662 32.619 24.8466 33.278 24.0707 33.1014C23.3097 32.925 23.6378 32.2777 23.1304 32.0543C22.623 31.8308 22.4291 31.9247 21.9515 32.1014C21.474 32.2777 20.9666 32.0543 20.6533 31.7365C20.3548 31.4188 19.9519 31.6189 19.3998 31.5248C18.8476 31.4424 19.0267 31.3247 18.5343 31.2657C18.042 31.1952 18.5791 31.607 18.9224 32.0071C19.2507 32.4073 19.6537 32.2072 20.8175 32.5602C21.9816 32.9132 20.9369 33.0663 20.4744 33.431C20.0117 33.7958 19.6238 33.8429 18.982 34.1135C18.3404 34.396 18.1015 34.4196 17.43 34.6312C16.7734 34.8431 16.6242 34.69 16.1765 34.5489C15.7289 34.4077 15.4304 33.7368 14.923 32.8779C14.4008 32.0071 14.0426 31.4424 13.6547 31.0657C13.2666 30.6891 13.3562 31.1481 13.4756 31.4188C13.6099 31.6777 13.8933 32.0307 14.1918 32.7133C14.5052 33.384 14.4455 33.1485 14.6097 33.631C14.7888 34.1018 15.6545 35.1373 16.1765 35.3609C16.6988 35.5962 17.9523 35.1842 18.5791 35.1724C19.2207 35.1605 18.5343 35.4196 17.9673 36.4316C17.5345 37.1965 17.3107 37.0906 16.8779 37.22C16.7437 37.2671 16.5795 37.3378 16.3705 37.4671C15.5347 38.0085 15.4601 38.597 15.3408 39.2792C15.3109 39.5147 15.3259 39.7265 15.3556 39.9383C15.3556 39.9618 15.3556 39.9854 15.3705 39.9971C15.3853 40.1148 15.4004 40.2441 15.43 40.362C15.4449 40.4325 15.4599 40.5147 15.4599 40.5973C15.4748 40.6678 15.4896 40.7501 15.4896 40.8326C15.5045 40.9386 15.5195 41.0679 15.5045 41.1858C15.5045 41.1976 15.5045 41.221 15.4896 41.2329C15.4896 41.327 15.4599 41.4092 15.4002 41.4918C15.3554 41.6094 15.2509 41.7271 15.1465 41.8331C14.833 42.1625 14.3853 42.4448 14.1467 42.6803C14.0869 42.7391 14.0422 42.7979 14.0123 42.8449C13.9974 42.8685 13.9826 42.8921 13.9826 42.9156C13.9527 42.9744 13.9379 43.0333 13.9228 43.0804C13.8929 43.1626 13.8781 43.2333 13.8633 43.3157C13.8035 43.5158 13.7289 43.7864 13.4752 44.3159C13.4304 44.3983 13.4006 44.469 13.3558 44.5278C13.2961 44.6219 13.2217 44.7043 13.1619 44.7633C13.1021 44.8338 13.0277 44.8808 12.9531 44.9279C12.7293 45.0575 12.4906 45.0927 12.2367 45.1633C12.0726 45.2104 11.8935 45.2811 11.7295 45.3987C11.1625 45.8106 10.9086 45.8694 10.3267 46.0459C10.2521 46.0695 10.1625 46.1047 10.073 46.1283C9.28221 46.3872 8.41658 45.9871 8.32713 45.6224C8.23768 45.2575 8.47635 45.2104 8.37186 44.6102C8.2824 44.01 7.43163 42.8098 7.13319 42.2213C6.83475 41.633 7.0287 41.5155 7.52127 40.8917C7.99881 40.2563 7.17792 39.5736 6.71542 38.8442C6.25272 38.1145 6.22303 38.5146 6.22303 37.9969C6.22303 37.4792 6.17831 37.3025 5.65604 37.0909C5.14862 36.879 4.83534 36.7496 3.95468 36.5731C3.07421 36.3966 3.08906 36.785 2.23847 36.6908C1.37304 36.585 1.41777 36.7967 0.865623 36.7496C0.611913 36.726 0.298632 36.5731 0 36.3966V30.0307C0.313476 29.8423 0.835741 29.7365 1.55215 29.5365C2.62656 29.2423 2.44746 29.5012 3.38769 29.2893C4.32792 29.0775 5.47694 28.8659 6.11874 28.901C6.77538 28.9363 6.67089 29.3129 6.67089 29.607C6.67089 29.8895 6.83495 29.8425 7.65584 30.0071C8.49158 30.1718 8.04393 30.3837 8.65565 30.4778C9.2824 30.5838 9.07342 30.3837 9.37186 29.9954C9.65545 29.607 9.84939 29.9954 10.6402 30.3015C11.4461 30.6192 11.3863 30.4308 12.3863 30.3486C13.3713 30.2543 13.4607 30.372 13.6845 30.2897C13.9084 30.2191 13.9383 29.4073 13.8039 29.0423C13.6547 28.6776 13.416 28.96 12.8935 28.96C12.5504 28.96 12.4308 28.9012 12.4459 28.76C12.4459 28.6777 12.4758 28.5717 12.5353 28.4304C12.5502 28.4068 12.5502 28.3834 12.5652 28.3715C12.6547 28.1715 12.7293 28.1243 12.9234 28.0655C13.0279 28.0302 13.192 27.995 13.4158 27.9126C13.4306 27.9009 13.4605 27.9009 13.4756 27.9009V27.889C13.6845 27.8302 13.9084 27.7949 14.1322 27.7832C14.5203 27.7479 14.8933 27.7479 15.1769 27.6184C15.2365 27.5831 15.2814 27.5596 15.2963 27.536C15.3857 27.4068 14.9381 27.289 14.6545 27.1359C14.5949 27.1125 14.55 27.0889 14.5052 27.0537C14.3261 26.9007 14.3261 26.7595 14.3709 26.5947C14.4008 26.5006 14.4455 26.3946 14.4902 26.277C14.5947 25.9593 14.2365 26.1829 13.8187 26.3711C13.4009 26.5594 13.8933 26.63 13.7142 26.8889C13.6248 27.0182 13.4756 27.0065 13.3412 26.9358C13.2517 26.9006 13.1771 26.8302 13.1174 26.7476C13.0726 26.7124 13.0427 26.6769 13.0279 26.6417C12.9533 26.5125 12.8488 26.5125 12.6845 26.5947C12.5652 26.6417 12.416 26.7359 12.207 26.8536C11.8636 27.042 11.9832 27.1832 12.0131 27.4185C12.0279 27.489 12.0279 27.5596 12.0131 27.642C12.0131 27.6891 11.9832 27.7361 11.9683 27.7832C11.8638 28.0302 11.6847 28.0538 11.5056 28.0421C11.3265 28.0421 11.1474 28.0185 11.058 28.1479C10.864 28.4068 10.9982 28.6069 10.64 28.654C10.2969 28.7128 10.4312 28.8659 10.267 29.0658C10.1178 29.2659 9.75955 28.9129 9.69998 28.5246C9.64041 28.1362 9.04334 27.7127 8.98377 27.5125C8.92401 27.3126 8.25252 27.0772 7.89432 26.983C7.55096 26.9006 7.77498 27.183 8.05838 27.4536C8.34198 27.7127 8.87908 27.7949 8.92401 28.0774C8.95389 28.3715 8.68514 28.2186 8.47635 28.3834C8.26737 28.5482 8.37186 28.8895 8.05838 28.9951C7.73006 29.1129 7.77479 28.6776 7.8494 28.2893C7.92401 27.9126 7.46131 27.842 7.13319 27.5949C6.79003 27.336 6.26757 27.1008 6.08866 26.983C5.9246 26.8772 5.4619 27.289 4.95448 27.2771C4.4621 27.2654 4.65605 27.1949 4.4621 27.3714C4.26816 27.5477 4.04413 27.8537 3.71601 27.9009C3.38769 27.9597 3.22363 28.1479 3.16386 28.4421C3.08925 28.7481 2.80566 28.7717 2.31328 28.9363C1.8207 29.1011 1.14922 28.901 0.731444 28.7834C0.313476 28.6776 0.388085 28.4302 0.507616 28.1715C0.552343 28.0892 0.567186 27.9716 0.612108 27.8419C0.686717 27.5713 0.806053 27.2417 1.22383 27.1242C1.38808 27.0771 1.50742 27.0654 1.61191 27.0654C1.62675 27.0537 1.62675 27.0537 1.62675 27.0537C1.92519 27.042 2.07441 27.1243 2.41777 27.0537C2.88046 26.9477 2.73105 26.7712 2.71621 26.2651C2.71621 26.2417 2.71621 26.2181 2.70136 26.1946C2.6416 25.7945 2.02988 25.9475 1.94043 25.6534C1.86582 25.3474 2.47753 25.5474 3.5373 25.4179C3.61191 25.4062 3.68652 25.3943 3.74609 25.3708C4.14902 25.2767 4.29823 25.0766 4.38769 24.8647C4.47714 24.6529 4.50702 24.4178 4.67128 24.3116C5.04433 24.0646 5.26815 23.9821 5.40253 23.488C5.55175 22.9939 6.04413 22.8054 6.49178 22.9468C6.58124 22.9821 6.641 23.0173 6.67089 23.0645C6.77538 23.2292 6.50682 23.4646 6.53651 23.688C6.56639 23.9822 7.01405 23.9235 7.29764 23.9822C7.5662 24.0293 8.7453 23.8647 9.14803 23.6292C9.4615 23.4292 9.68533 23.2527 9.95389 23.088C10.0135 23.0527 10.0732 23.0058 10.1478 22.9704C10.5209 22.7703 10.2373 22.6408 10.3269 22.5467C10.4015 22.4409 10.7 22.1701 10.5806 21.8759C10.4613 21.6288 10.0584 21.7466 9.80467 21.5935C9.77479 21.5699 9.7451 21.5348 9.71522 21.4994C9.566 21.2993 9.67049 21.0757 9.80467 20.8639C9.86443 20.7697 9.924 20.6756 9.98377 20.5815C10.0285 20.4991 10.0285 20.452 9.99861 20.452C9.96873 20.4285 9.89412 20.452 9.80467 20.4755C9.67049 20.5226 9.50623 20.5933 9.37186 20.6405C9.02869 20.7697 8.81971 21.0404 8.50623 21.4053C8.3869 21.5465 8.32713 21.6642 8.31229 21.7818C8.29744 21.7937 8.29744 21.7937 8.29744 21.7937C8.25272 21.9819 8.31229 22.1584 8.32733 22.382C8.35721 22.7467 7.68573 23.0997 7.37225 23.0527C7.20819 23.0175 7.11854 22.8998 7.05897 22.7586C7.02909 22.6409 7.01424 22.4997 6.9992 22.3939C6.96932 22.1703 6.77538 22.029 6.52167 22.0997C6.26796 22.1821 5.76054 22.3586 5.26815 22.2525C4.77558 22.1584 4.92499 21.6053 5.16366 21.1228C5.40253 20.6405 5.53671 20.7932 6.32772 20.4755C7.13358 20.1695 6.90956 20.0403 7.55135 19.6047C8.17811 19.1576 8.31248 18.8518 8.93924 18.4869C9.55096 18.1221 9.96893 17.9927 11.5209 17.8632C12.7297 17.7574 12.491 17.8867 12.64 18.1102C12.6549 18.1573 12.6998 18.2045 12.7742 18.2516C12.789 18.2752 12.8189 18.2987 12.8488 18.3104C13.2218 18.5223 13.5054 18.593 13.8636 18.6517C14.0576 18.687 14.2814 18.7105 14.55 18.7694C15.3259 18.9223 15.2513 19.1225 15.341 19.2636C15.4455 19.4048 14.9978 19.6519 14.5949 19.6637H14.4158V19.652C14.1322 19.6403 13.9681 19.5579 13.789 19.4991C13.5652 19.4285 13.7144 19.6639 13.8636 19.8051C13.983 19.9109 14.1621 19.9463 14.4457 19.9463C14.5203 19.9463 14.6248 19.9346 14.7142 19.9228C15.1619 19.8875 15.8037 19.6403 15.9976 19.6757C16.0722 19.6874 16.2215 19.6757 16.4006 19.6405C16.7138 19.5698 17.1466 19.4758 17.4601 19.4051C17.9525 19.2873 17.9525 19.0403 18.1466 18.9345C18.2959 18.8404 18.6242 18.8168 19.3404 18.8639C19.4597 18.8756 19.6089 18.8756 19.7584 18.8875C20.7582 18.9463 20.6537 18.8051 21.2955 18.6049C21.564 18.5225 21.7582 18.5108 21.9222 18.5344C22.1611 18.5579 22.355 18.6402 22.6386 18.6402C23.131 18.6402 23.8474 18.4047 24.0861 18.1459C24.1009 18.1342 24.1009 18.1224 24.116 18.1224C24.325 17.887 24.4294 17.993 24.8025 17.8164C25.2054 17.6282 25.0859 17.6517 26.1455 17.4988C27.2199 17.3458 27.5035 17.7107 27.9662 17.4988C28.4287 17.2869 27.7423 16.8045 27.8765 16.675C27.9958 16.5339 29.0255 16.6514 29.4732 16.4986C29.921 16.3337 29.6523 16.1219 29.8613 15.9339C30.0703 15.7338 30.891 15.6514 31.7267 15.5926C32.5773 15.5219 32.5326 15.7572 32.9056 15.6748C33.2638 15.6043 33.1593 15.3924 33.4577 15.3454C33.7562 15.3101 33.7562 15.1804 33.9353 15.1099C34.1144 15.0394 34.7261 15.0511 35.2036 15.2864C35.6962 15.5217 35.7857 15.2511 36.2929 15.2864C36.8003 15.3217 36.5765 15.6747 36.5765 15.8395C36.5765 16.0043 36.2034 16.3454 35.8902 16.4513C35.5917 16.569 35.8603 16.7219 36.3079 16.6984C36.7556 16.6748 37.0392 16.5454 37.5765 16.5102C38.0988 16.4866 38.2927 16.569 38.7853 16.7455C39.2777 16.9219 39.6956 16.9219 40.0089 16.8632C40.3372 16.7926 40.2327 16.569 40.4118 16.522C40.5909 16.4632 41.4864 16.7574 41.964 16.9103C42.4415 17.0632 41.8894 17.2397 41.964 17.4045C42.0235 17.5573 42.5759 17.8398 42.9339 17.8045C43.2771 17.7692 43.1429 17.4869 43.7099 17.5103C44.2919 17.5339 44.456 17.5339 45.0679 17.381C45.6946 17.2396 45.6499 17.1221 46.5603 17.169C47.4706 17.2279 47.4558 17.2867 47.769 17.322C48.0825 17.3572 48.2167 17.2513 48.8435 17.4044C49.4552 17.5454 49.2612 17.8984 49.4255 17.9691C49.5896 18.0397 49.8583 18.0161 50.4999 17.9808C50.679 17.9691 50.7835 17.9691 50.8431 17.9808C51.0222 18.0044 50.9774 18.1102 51.246 18.2514C51.619 18.4513 51.3804 18.4985 51.619 18.4632C51.6638 18.4632 51.7235 18.4515 51.7831 18.4396C52.0069 18.4044 52.2905 18.3338 52.7083 18.3103C53.2604 18.2633 53.2456 18.322 53.5589 18.4868C53.8724 18.6397 54.1261 18.6161 54.4544 18.4985C54.7677 18.3691 54.5438 18.2514 54.5886 18.2514C54.6483 18.2514 55.2302 18.3455 56.0511 18.4278C56.2899 18.4513 56.469 18.4866 56.6331 18.522C57.0061 18.6044 57.245 18.7102 57.7673 18.8633C57.9313 18.9103 58.0657 18.9574 58.1554 19.0161C58.4837 19.181 58.4538 19.3574 58.7075 19.5103C59.0507 19.7104 59.0507 19.5456 59.3641 19.4398C59.394 19.4281 59.4089 19.4281 59.4237 19.4281C59.7075 19.3457 59.8569 19.534 60.0956 19.7458Z" fill="url(#paint1_linear_214_378)"/>
<path d="M46.0922 26.5955C46.3008 26.656 46.6984 26.91 46.9377 26.8975C47.1769 26.8849 47.3047 27.1365 47.1131 27.1616C46.9217 27.1867 46.2834 27.4258 46.2834 27.4258C46.2834 27.4258 46.092 27.2371 45.9803 27.4258C45.8685 27.6144 45.8047 27.7529 45.8367 27.8661C45.8685 27.9793 46.092 28.3064 45.9644 28.47C45.8367 28.6335 45.6613 28.7216 45.6613 28.9229C45.6613 29.1242 45.8209 29.3381 45.5974 29.4262C45.374 29.5143 45.1508 29.5394 44.9592 29.5898C44.7678 29.6402 44.6242 29.6526 44.5443 29.7911C44.4646 29.9295 44.273 30.1308 43.8742 30.1182C43.4754 30.1056 43.4754 29.8541 43.1084 30.0931C42.7414 30.3321 42.7256 30.4706 42.534 30.4076C42.3426 30.3448 42.4861 30.2567 42.534 30.0176C42.5818 29.7786 41.8799 29.8414 42.518 29.5647C43.1562 29.2879 43.1562 29.2502 43.5869 29.1998C44.0178 29.1495 44.257 29.313 44.4326 29.0236C44.608 28.7343 44.4326 28.6211 44.7836 28.6084C45.1345 28.5958 45.358 28.7216 45.4219 28.4071C45.4857 28.0926 45.4379 27.8284 45.4219 27.6271C45.4058 27.4258 45.3101 27.2371 45.5974 27.1616C45.8847 27.0862 45.9166 27.2245 45.9484 27.0484C45.9804 26.8724 45.789 26.5076 46.0922 26.5955Z" fill="url(#paint2_linear_214_378)"/>
<path d="M39.6785 33.4143C39.9816 33.452 40.1251 33.8797 40.0294 34.0559C39.9337 34.2321 39.838 34.4334 40.1091 34.4711C40.3804 34.5089 40.5718 34.534 40.5718 34.6851C40.5718 34.836 40.6835 34.5215 40.891 34.9241C41.0984 35.3267 40.907 35.3897 41.1462 35.6915C41.3855 35.9935 41.6728 36.1445 41.3376 36.2954C41.0027 36.4463 41.258 36.6099 40.9068 36.5218C40.5558 36.4337 40.6994 36.4841 40.524 36.2199C40.3484 35.9558 40.2369 36.1696 40.0773 36.1571C39.9177 36.1445 39.8699 36.1445 39.9976 35.9684C40.1251 35.7922 40.189 35.8049 40.0455 35.6036C39.9019 35.4023 40.1252 35.1633 39.9177 35.1255C39.7103 35.0878 39.6464 35.3646 39.2794 35.5407C38.9125 35.7169 38.3701 35.7671 38.3861 35.7043C38.4021 35.6415 38.6095 35.5534 38.9445 35.2263C39.2794 34.8991 39.4869 35.1004 39.4232 34.5973C39.3593 34.094 39.1361 34.2324 39.3435 33.8802C39.5509 33.5275 39.6785 33.4143 39.6785 33.4143Z" fill="url(#paint3_linear_214_378)"/>
<path d="M38.6575 36.2702C38.8989 36.4605 39.2159 36.4086 39.1202 36.5973C39.0245 36.786 38.7402 36.8112 38.8984 36.9999C39.0566 37.1886 39.2001 37.4655 39.4075 37.4402C39.615 37.4151 39.5989 37.2893 40.1095 37.2893C40.62 37.2893 40.9392 37.2012 40.971 37.3647C41.0028 37.5283 40.7476 37.5409 40.4126 37.78C40.0777 38.019 39.7425 38.258 40.0138 38.4089C40.2851 38.5599 40.3966 38.8366 40.3009 38.9374C40.2052 39.0381 40.1095 39.1386 40.3327 39.2645C40.5562 39.3903 41.6251 39.3526 41.3698 39.6544C41.1146 39.9564 40.4923 40.1199 39.8382 40.1325C39.1841 40.1451 39.7099 39.994 38.3861 39.8935C37.0622 39.7927 36.8388 40.057 35.9134 39.7048C34.988 39.3526 34.3818 39.6544 33.8712 39.0128C33.3607 38.3712 33.5681 38.6857 32.9298 38.019C32.2917 37.3523 32.5949 37.3523 32.0523 37.088C31.5099 36.8239 31.0472 36.4464 31.414 36.4464C31.781 36.4464 31.6054 36.1066 32.7382 36.849C33.871 37.5913 33.5679 37.5534 34.3976 37.9939C35.2273 38.4342 35.4984 38.4846 35.8017 38.4342C36.1048 38.3838 36.5515 38.4342 36.2644 38.1448C35.9773 37.8554 35.8177 37.4906 36.057 37.4277C36.2962 37.3649 36.2804 37.6794 36.6792 37.3396C37.0781 36.9999 37.078 36.9119 37.429 36.7986C37.78 36.6854 37.5886 36.7986 37.9236 36.635C38.2587 36.4715 38.3863 36.0564 38.6575 36.2702Z" fill="url(#paint4_linear_214_378)"/>
<path d="M43.0448 37.7295C43.2184 37.9056 43.5075 38.1321 43.635 38.3208C43.7627 38.5095 44.002 38.1609 44.4647 38.1717C44.9274 38.1825 45.6135 38.3836 45.9006 38.4843C46.1877 38.5851 46.6825 38.6479 46.9856 38.975C47.2887 39.3021 47.5122 39.1135 47.528 39.4406C47.544 39.7677 47.6077 39.73 47.8789 39.9187C48.1502 40.1073 48.1981 40.4597 47.7194 40.3086C47.2407 40.1577 47.0971 39.6419 46.5866 39.6921C46.076 39.7425 46.2834 39.8557 45.8846 39.9185C45.4858 39.9813 45.3102 39.8681 44.8317 39.843C44.353 39.8179 44.002 39.9438 44.2254 39.604C44.4489 39.2643 44.6084 39.2518 43.8266 39.0001C43.0448 38.7485 42.7417 38.8743 42.7417 38.6102C42.7417 38.346 42.8694 38.3208 42.5661 38.0944C42.2629 37.868 42.1672 37.7044 42.3586 37.5911C42.5502 37.4779 42.9331 37.6163 43.0448 37.7295Z" fill="url(#paint5_linear_214_378)"/>
<path d="M43.9701 41.3528C44.4966 41.5667 44.704 41.9944 44.9593 41.919C45.2146 41.8435 45.1189 41.7177 45.3103 41.2647C45.5017 40.8118 45.5177 40.3464 45.757 40.535C45.9962 40.7237 45.773 41.0921 46.1558 41.2099C46.5388 41.3277 46.6185 41.4158 46.6982 41.768C46.7779 42.1203 46.8577 42.0071 47.2566 42.3719C47.6554 42.7368 48.0136 42.6739 48.0818 43.089C48.1499 43.5042 48.82 43.9319 48.8521 44.3596C48.8839 44.7873 48.9798 45.0893 48.5808 45.6303C48.182 46.1712 48.0224 46.4481 47.8947 46.6745C47.7669 46.9009 47.3841 47.0143 46.9693 47.0143C46.5544 47.0143 46.3152 46.8758 46.0599 46.9262C45.8046 46.9765 45.629 47.2282 45.3259 47.052C45.0228 46.8758 44.8472 46.6494 44.7515 46.511C44.6558 46.3725 44.6079 45.9071 44.1613 45.9575C43.7146 46.0078 43.7785 46.1839 43.5072 45.9575C43.2359 45.7311 43.4273 45.5422 42.6296 45.4417C41.832 45.3409 41.6245 45.2907 41.2894 45.3536C40.9544 45.4166 40.6033 45.5045 40.2365 45.7311C39.8695 45.9575 39.2951 45.8443 38.9761 45.9575C38.657 46.0707 38.1785 46.3223 37.8273 46.1714C37.4763 46.0204 37.6039 45.945 37.6199 45.5926C37.6359 45.2404 37.6039 45.4794 37.3806 44.8755C37.1572 44.2716 37.2529 44.3597 37.0457 44.0703C36.8382 43.781 36.6787 43.9194 36.966 43.5042C37.2531 43.089 37.1574 43.001 37.3169 42.8626C37.4765 42.7243 37.6201 42.9003 38.1624 42.6109C38.7048 42.3216 38.8644 42.4474 39.3591 42.2964C39.8537 42.1455 39.9654 41.5667 40.2685 41.3905C40.5716 41.2144 40.6515 41.0761 40.8747 41.0761C41.098 41.0761 41.3535 41.1768 41.7523 41.3025C42.1511 41.4283 42.0714 41.4408 42.4064 41.1515C42.7413 40.8621 42.4064 40.5854 43.0126 40.6357C43.6189 40.6861 43.8423 40.6106 43.922 40.8874C44.0021 41.1642 43.9701 41.3528 43.9701 41.3528Z" fill="url(#paint6_linear_214_378)"/>
<path d="M55.0427 47.291C55.3618 46.9639 55.5214 46.9262 55.4096 46.5488C55.2979 46.1714 55.3298 45.8754 55.7446 46.2122C56.1594 46.549 56.6221 46.7377 56.9413 46.7501C57.2604 46.7628 58.0262 46.9514 57.2444 47.4169C56.4626 47.8824 56.6061 47.5553 55.9841 48.2471C55.362 48.9389 55.8405 48.9516 55.0907 49.2913C54.3409 49.6311 53.5112 49.782 53.6708 49.48C53.8304 49.178 53.7505 49.178 54.4366 48.7754C55.1227 48.3728 55.5694 48.0709 55.5694 47.7312C55.5694 47.3914 55.0427 47.291 55.0427 47.291Z" fill="url(#paint7_linear_214_378)"/>
<path d="M16.9429 43.8942C16.6558 43.5671 16.6558 43.4665 16.6238 42.9381C16.592 42.4097 16.3685 42.158 16.6238 41.8562C16.8791 41.5541 17.5492 41.051 17.8045 40.6988C18.0597 40.3465 18.1236 39.5917 18.2832 40.2711C18.4427 40.9504 18.9533 41.353 18.1875 42.2589C17.4216 43.1645 16.9429 43.8942 16.9429 43.8942Z" fill="url(#paint8_linear_214_378)"/>
<path d="M1.59465 25.1739C1.53079 25.0732 1.81809 24.7463 1.81809 24.7463C1.81809 24.7463 2.16907 24.5953 2.07336 24.0416C1.97766 23.4881 1.91379 23.8153 1.65852 23.2868C1.40325 22.7584 1.02024 22.8591 1.40325 22.5068C1.78606 22.1545 2.23293 21.6261 2.32864 22.0538C2.42434 22.4815 2.2011 22.7584 2.42434 22.9597C2.64778 23.161 3.09445 23.2026 3.34973 23.534C3.605 23.8655 4.62609 23.9913 3.86027 24.419C3.09445 24.8467 2.74348 24.5699 2.45637 24.8719C2.16926 25.1739 1.59465 25.1739 1.59465 25.1739Z" fill="url(#paint9_linear_214_378)"/>
<path d="M0.573402 24.7714C1.08395 24.545 1.27047 24.5952 1.24098 24.1926C1.21149 23.79 1.56246 23.4378 1.02008 23.4125C0.477699 23.3874 0.318129 23.6389 0.254262 23.8151C0.190395 23.9913 0.190395 24.0415 0.349965 24.2177C0.509535 24.3939 0.541371 24.6454 0.477699 24.7712C0.414028 24.897 0.573402 24.7714 0.573402 24.7714Z" fill="url(#paint10_linear_214_378)"/>
<path d="M99.993 41.0306C99.8942 41.2161 99.8395 41.4329 99.8748 41.8558C99.9385 42.6111 99.9703 42.535 99.7793 42.9131C99.5873 43.2903 98.8862 43.3405 98.3112 43.6174C97.7373 43.8943 97.7055 43.6676 97.3225 44.4229C96.9397 45.1774 97.1623 44.7751 96.843 45.4291C96.5248 46.0831 96.9713 45.7562 96.0453 46.1334C95.1203 46.5105 94.7692 46.1836 94.6737 46.4103C94.5782 46.637 95.2159 46.4605 94.5465 46.9388C93.876 47.4164 93.5885 47.5427 93.1739 47.7435C92.7592 47.9451 92.5036 48.1719 92.6 48.5992C92.6955 49.0266 93.1739 49.0015 92.6319 49.4049C92.1069 49.7937 91.8807 49.4309 91.7217 49.997H89.2172V49.9325C89.2172 49.3286 89.1217 49.782 89.5047 48.7506C89.8877 47.7184 89.2491 48.0705 89.5684 46.9388C89.8877 45.8062 89.8241 44.5983 90.1422 43.7677C90.4616 42.9381 91.1637 43.1646 90.4616 42.4094C89.7592 41.6549 89.6321 41.7804 89.0264 41.2768C88.4196 40.7741 88.8026 40.8745 88.4514 40.2704C88.1002 39.6666 87.8776 39.7168 87.5901 39.2643C87.3026 38.8109 87.1436 38.9623 87.4299 38.207C87.7174 37.4525 87.0799 37.4776 87.7174 37.2509C88.3561 37.0251 88.2606 36.4713 88.1639 36.2697C88.0684 36.069 88.6434 35.9928 87.7491 35.8925C86.8559 35.7922 86.6002 36.0179 86.2821 35.5906C85.9627 35.1633 86.2172 35.087 85.5481 34.8361C84.8776 34.5843 84.1436 34.5843 83.8879 34.3827C83.6334 34.1811 83.6335 34.1811 83.6335 34.1811C83.6335 34.1811 84.1118 34.0307 83.0266 33.9302C81.9426 33.8291 81.1438 33.9302 80.6018 33.3264C80.0598 32.7225 80.187 33.0746 80.0598 32.5209C79.9315 31.9671 79.7723 31.9671 79.2622 31.615C78.7508 31.2628 78.7508 31.0612 78.2725 30.9107C77.7942 30.7593 77.6987 30.8104 77.6987 30.8856C77.6987 30.9608 77.6669 31.2628 78.1135 31.5397C78.5602 31.8166 78.5919 32.0684 78.5919 32.1938C78.5919 32.3191 77.985 32.4707 77.985 32.4707C77.985 32.4707 77.985 32.3193 77.794 31.9671C77.602 31.615 77.5383 31.4393 77.1553 31.011C76.7723 30.5836 76.677 30.5334 76.677 30.5334C76.677 30.5334 76.2305 29.9797 75.4645 29.2503C74.6987 28.52 74.4749 28.9734 74.4749 28.1428C74.4749 27.3122 74.6669 27.3122 74.4749 26.7333C74.2839 26.1553 73.8374 25.8785 74.2204 25.7772C74.6034 25.6769 74.826 25.5263 74.1249 25.0478C73.4227 24.5693 73.1671 24.8211 72.9114 24.167C72.6569 23.5129 73.1989 23.5631 72.1466 23.2611C71.0932 22.9591 70.9659 22.7073 70.4864 22.5317C70.0081 22.3552 69.7206 22.2548 69.7206 22.2548C69.7206 22.2548 69.8171 22.1795 68.6684 22.1034C67.5196 22.0281 67.647 21.6007 66.7856 21.8776C65.9776 22.1374 65.8151 22.1975 65.797 22.2038C65.822 22.1796 66.2515 21.7532 65.4448 21.8015C64.6153 21.8525 64.8073 22.0031 64.7755 22.3051C64.7436 22.6072 64.871 22.9592 64.2972 23.1357C63.7222 23.3113 62.8927 23.7898 63.212 23.2862C63.5313 22.7835 64.329 22.4314 64.0415 22.305C63.754 22.1796 63.1483 22.5819 63.0835 22.1796C63.0198 21.7764 63.1483 21.5757 62.4778 21.5506C61.8075 21.5255 61.2653 21.2988 61.7757 21.1223C62.2858 20.9468 62.7653 21.0219 62.9245 20.5945C63.0835 20.1662 64.2642 20.066 62.9563 20.0909C61.6485 20.116 61.0735 20.116 61.2337 19.9144C61.3929 19.7137 61.3292 19.3364 62.2542 19.4368C63.1804 19.5373 63.1804 19.2352 62.9563 19.0346C62.4587 18.5856 61.6485 18.556 62.286 18.2793C62.9247 18.0024 63.3075 17.8268 63.9144 17.7255C64.52 17.6252 65.1585 17.8268 66.1472 18.0275C67.1368 18.2291 68.7323 18.0526 69.4663 18.2291C70.2003 18.4056 70.5503 18.7576 70.7743 18.7327C70.9981 18.7067 71.6356 18.1789 72.2743 18.1789C72.9118 18.1789 73.2311 18.1036 74.5401 18.2291C75.8481 18.3544 77.1241 18.4056 77.1559 18.6565C77.1878 18.9083 77.1878 19.0346 77.6673 19.0346C78.1456 19.0346 78.5604 18.8079 78.8479 19.1601C79.1342 19.5121 79.5809 19.764 79.5172 19.487C79.4536 19.2101 79.1342 18.9834 79.3899 18.8832C79.6456 18.7828 80.3796 18.7327 80.5706 18.7828C80.7626 18.833 81.3682 18.9083 81.5602 18.8832C81.7512 18.8581 81.6239 18.6063 82.2614 18.7576C82.9001 18.9083 82.9954 19.2854 83.1239 19.3105C83.2512 19.3366 83.5387 18.9244 83.5704 18.652C83.6022 18.3795 83.8885 18.3795 83.3147 18.0275C82.7409 17.6754 83.259 17.2479 83.6704 17.3985C84.0805 17.5499 83.8251 17.7507 84.2397 18.0777C84.6545 18.4056 84.7192 18.6816 85.0055 18.5813C85.293 18.4809 85.1338 18.0526 85.5168 18.3797C85.8998 18.7068 85.9952 18.5428 86.3463 18.4863C86.6975 18.4307 86.41 18.2542 86.8249 18.4307C87.2397 18.6063 87.9418 18.8079 87.4305 19.135C86.9204 19.4621 86.1545 19.4119 85.6124 19.6637C85.0692 19.9146 85.2295 19.8393 85.0692 20.1413C84.9102 20.4433 84.9737 20.4684 84.3364 20.5947C83.6977 20.7201 83.5057 20.6198 83.5387 21.0472C83.5706 21.4746 83.5057 21.5257 83.2831 21.7515C83.0592 21.9782 83.1876 22.1798 83.4422 22.2802C83.6979 22.3806 83.9854 22.2049 83.9854 22.5069C83.9854 22.8089 84.4637 23.0347 85.1024 23.0347C85.7399 23.0347 86.0274 23.161 86.4104 23.5383C86.7932 23.9155 86.2502 23.9406 86.8887 24.4191C87.5274 24.8967 88.1329 25.1234 88.2295 24.696C88.325 24.2677 88.2295 24.1673 88.325 23.6648C88.4206 23.1611 89.0274 23.1109 88.7081 22.6575C88.3887 22.205 87.9104 22.0034 88.3569 21.7516C88.8034 21.5007 88.2614 21.2677 89.0274 21.145C89.7932 21.0222 90.3036 20.9218 90.6227 21.3743C90.9409 21.8277 90.5909 22.1296 90.909 22.3304C91.2284 22.532 92.218 22.23 92.409 22.0535C92.601 21.8779 93.1432 21.9029 93.3352 22.5571C93.526 23.2112 93.6534 23.3877 93.9409 23.463C94.2284 23.5383 94.2284 23.6897 94.5795 23.9406C94.9307 24.1924 95.6 24.5956 94.5795 24.6709C93.558 24.7462 92.7286 24.6458 92.3455 24.9227C91.9627 25.1987 91.9307 24.998 92.1866 25.3752C92.4411 25.7524 92.2502 25.5006 92.4411 25.9791C92.633 26.4576 93.5899 26.4576 92.8875 26.7846C92.1864 27.1117 92.3137 27.1869 91.8989 27.0866C91.484 26.9854 91.3887 26.2631 90.9092 26.851C90.4309 27.4387 90.4944 27.6646 90.0797 27.8411C89.6649 28.0176 89.6332 27.6646 89.2502 28.2183C88.8672 28.7721 89.4741 28.8221 88.6127 29.4511C87.7502 30.0803 87.3354 29.7783 87.2719 30.3068C87.2083 30.8355 87.6231 31.4645 87.3993 31.5899C87.1766 31.7162 87.2083 31.6903 86.9526 31.3381C86.6981 30.986 86.8254 30.7852 85.9323 30.7342C85.0379 30.684 85.1028 30.5084 84.7516 30.8104C84.4004 31.1123 84.8788 31.2127 83.8891 31.1123C82.9006 31.0111 82.7733 30.0801 82.5813 31.1625C82.3905 32.244 82.3586 32.3703 82.6768 32.6723C82.9961 32.9743 83.8575 33.7037 84.2405 33.3766C84.6233 33.0495 84.145 32.6472 84.879 32.7727C85.6129 32.8981 85.804 32.7476 85.6766 33.0747C85.5495 33.4017 84.5596 33.4519 85.3573 33.7539C86.1551 34.0558 86.8254 33.7037 86.8891 34.1813C86.9528 34.6598 86.7936 34.7852 86.8254 35.0621C86.8573 35.339 87.0163 35.5406 87.7504 35.5406C88.4846 35.5406 88.4528 35.3139 88.6448 35.6159C88.8358 35.9179 89.4424 35.7673 89.6971 35.339C89.9528 34.9116 90.1436 34.4331 90.5266 34.9367C90.9096 35.4403 90.9743 35.5406 91.3561 35.339C91.7391 35.1383 91.7391 35.1383 91.7391 35.1383C91.7391 35.1383 92.1549 34.8363 92.5049 35.0872C92.8561 35.339 93.4311 35.0621 93.5582 35.4143C93.6854 35.7673 93.4946 35.8175 94.0366 35.943C94.5797 36.0693 95.2172 35.8677 95.5364 36.2199C95.8557 36.5722 94.9944 36.3455 95.9194 36.7738C96.8444 37.2011 97.1319 37.2514 97.0682 37.5283C97.0045 37.8052 97.2602 37.8552 98.0897 38.0068C98.9192 38.1573 98.7908 38.0821 99.4612 38.4844C99.651 38.5982 99.8293 38.6663 99.9942 38.7092V41.0306H99.993Z" fill="url(#paint11_linear_214_378)"/>
</g>
<path d="M14.4158 19.6635V19.6518C14.401 19.4519 14.3412 19.2636 14.2517 19.0988C14.1623 18.9223 14.0428 18.7811 13.8637 18.6517C13.8488 18.6164 13.7891 18.5812 13.7443 18.5459C13.5353 18.3928 13.2967 18.2753 13.0131 18.1927C12.9684 18.181 12.9236 18.1692 12.8787 18.1692C12.8041 18.1339 12.7146 18.122 12.64 18.1103C12.476 18.0869 12.2969 18.0751 12.1326 18.0751C11.8193 18.0751 11.5209 18.1103 11.2373 18.1927C10.9537 18.2751 10.715 18.3926 10.5061 18.5459C10.2822 18.687 10.118 18.8755 9.98379 19.0989C9.86445 19.3224 9.80469 19.5813 9.80469 19.8638V22.4057C9.80469 22.6646 9.84941 22.8998 9.95391 23.0881C9.95391 23.1116 9.96875 23.1351 9.98379 23.1587C10.1182 23.3823 10.2822 23.5707 10.5061 23.7234C10.715 23.8765 10.9537 23.994 11.2373 24.0766C11.5209 24.1473 11.8193 24.1943 12.1326 24.1943C12.431 24.1943 12.7297 24.1473 13.0131 24.0766C13.2967 23.9942 13.5353 23.8767 13.7443 23.7234C13.9682 23.5707 14.1324 23.3823 14.2517 23.1587C14.3711 22.9469 14.4457 22.688 14.4457 22.4057V19.8638C14.4457 19.7929 14.4457 19.7342 14.4158 19.6635ZM13.043 22.3937C13.043 22.6407 12.9684 22.8408 12.8041 22.982C12.625 23.1348 12.4012 23.2055 12.1326 23.2055C11.849 23.2055 11.6254 23.1348 11.4463 22.982C11.282 22.8407 11.1926 22.6407 11.1926 22.3937V19.887C11.1926 19.6517 11.2672 19.4635 11.4164 19.3223C11.4164 19.3106 11.4312 19.2987 11.4463 19.287C11.4762 19.2636 11.491 19.2517 11.5209 19.24C11.5357 19.2165 11.5656 19.2047 11.5955 19.1929C11.7447 19.0988 11.9238 19.0635 12.1326 19.0635C12.4012 19.0635 12.6252 19.1342 12.8041 19.287C12.9682 19.4284 13.043 19.6283 13.043 19.8872V22.3937Z" fill="white"/>
<path d="M17.9528 18.1219L16.4009 19.1928V20.3696L17.9528 19.3105V24.1352H19.3407V18.1219H17.9528Z" fill="white"/>
<path d="M21.9224 18.1219V20.0637H23.2505V19.1105H25.2651L22.7878 24.1353H24.295L26.7722 19.1105V18.1219H21.9224Z" fill="white"/>
<path d="M32.5029 19.0987C32.3835 18.8752 32.2193 18.6867 31.9954 18.5456C31.7866 18.3926 31.5478 18.275 31.2642 18.1925C30.9806 18.1101 30.6822 18.0748 30.3837 18.0748C30.0702 18.0748 29.7718 18.1101 29.4882 18.1925C29.2046 18.2749 28.966 18.3924 28.757 18.5456C28.5331 18.6867 28.3689 18.8752 28.2495 19.0987C28.1152 19.3222 28.0556 19.5811 28.0556 19.8635V22.4055C28.0556 22.6879 28.1152 22.9467 28.2495 23.1584C28.3689 23.3821 28.5331 23.5704 28.757 23.7232C28.966 23.8763 29.2046 23.9938 29.4882 24.0764C29.7718 24.147 30.0702 24.194 30.3837 24.194C30.6822 24.194 30.9806 24.147 31.2642 24.0764C31.5478 23.994 31.7865 23.8764 31.9954 23.7232C32.2193 23.5704 32.3835 23.3821 32.5029 23.1584C32.6372 22.9467 32.6968 22.6878 32.6968 22.4055V19.8635C32.6968 19.5811 32.637 19.3222 32.5029 19.0987ZM31.2941 22.3936C31.2941 22.6407 31.2195 22.8407 31.0552 22.9819C30.8761 23.1347 30.6523 23.2054 30.3837 23.2054C30.1001 23.2054 29.8763 23.1347 29.7122 22.9819C29.5331 22.8406 29.4437 22.6407 29.4437 22.3936V19.8869C29.4437 19.628 29.5333 19.4281 29.7122 19.2867C29.8763 19.134 30.1003 19.0633 30.3837 19.0633C30.6523 19.0633 30.8761 19.134 31.0552 19.2867C31.2195 19.4281 31.2941 19.628 31.2941 19.8869V22.3936Z" fill="white"/>
<path d="M44.1876 21.57C44.0683 21.3463 43.919 21.1581 43.7249 21.0052C43.5458 20.8523 43.322 20.7346 43.0833 20.6522C42.8444 20.5698 42.6058 20.5344 42.3372 20.5344C42.2476 20.5344 42.1581 20.5344 42.0536 20.5461C41.9642 20.5579 41.8745 20.5815 41.77 20.6049L43.3667 18.1219H41.8446L40.2329 20.7226C40.0688 21.005 39.9194 21.2756 39.7853 21.5347C39.6509 21.7936 39.5913 22.0523 39.5913 22.3348C39.5913 22.6289 39.6509 22.8995 39.7704 23.1232C39.8897 23.3586 40.0688 23.5468 40.2778 23.7115C40.4866 23.8646 40.7405 23.9821 41.0388 24.0646C41.3224 24.147 41.6356 24.194 41.9642 24.194C42.3073 24.194 42.6206 24.147 42.9042 24.0646C43.2026 23.9822 43.4415 23.8529 43.6653 23.6998C43.8743 23.5351 44.0384 23.3351 44.1579 23.1115C44.2923 22.8761 44.3518 22.6174 44.3518 22.3114C44.3516 22.0406 44.2921 21.7936 44.1876 21.57ZM42.6804 22.9704C42.4864 23.1232 42.2476 23.2057 41.9642 23.2057C41.6806 23.2057 41.4419 23.1233 41.2628 22.9704C41.0837 22.8173 40.9792 22.6055 40.9792 22.3231C40.9792 22.0406 41.0837 21.829 41.2628 21.6758C41.4419 21.523 41.6808 21.4404 41.9642 21.4404C42.2626 21.4404 42.5015 21.5228 42.6804 21.6875C42.8595 21.8404 42.9489 22.0523 42.9489 22.3229C42.9489 22.6055 42.8595 22.8171 42.6804 22.9704Z" fill="white"/>
<path d="M50.3957 21.5816V21.5697C50.3807 21.4756 50.3658 21.3697 50.3359 21.2756C50.2613 21.005 50.0674 20.7459 49.7687 20.5106C49.6047 20.3812 49.4105 20.2871 49.1719 20.2164C48.948 20.1342 48.6644 20.0988 48.3361 20.0988C48.0824 20.0988 47.8586 20.134 47.6498 20.1929C47.4408 20.2517 47.2916 20.3224 47.2021 20.4048V19.1103H50.2764V18.1217H45.9338V21.5227H47.2021C47.2619 21.4049 47.3514 21.2873 47.4857 21.1932C47.635 21.0872 47.8439 21.0284 48.1273 21.0284C48.4707 21.0284 48.7094 21.1225 48.8437 21.3108C48.9779 21.4873 49.0377 21.7109 49.0527 22.0287V22.1111C49.0527 22.2993 49.0379 22.4758 49.008 22.6287C48.9633 22.7816 48.8887 22.9112 48.7543 23.0054C48.59 23.1346 48.3812 23.2053 48.0977 23.2053C47.7992 23.2053 47.5902 23.1346 47.441 23.0054C47.2918 22.8759 47.2021 22.6994 47.1574 22.4641H45.7695V22.4995C45.7992 22.6995 45.8441 22.9113 45.9187 23.1112C45.9934 23.3231 46.1576 23.5232 46.3963 23.7114C46.5603 23.8409 46.7844 23.9469 47.0678 24.0527C47.3514 24.1469 47.6945 24.1939 48.0975 24.1939C48.5004 24.1939 48.8287 24.1469 49.1123 24.0527C49.3809 23.9469 49.6049 23.8409 49.7838 23.6997C50.0523 23.4762 50.2314 23.2409 50.3209 22.9939C50.4103 22.7467 50.4551 22.4525 50.4551 22.1114C50.4553 21.9346 50.4404 21.7581 50.3957 21.5816Z" fill="white"/>
<path d="M51.7837 18.1219V20.0637H53.1118V19.1105H55.1265L53.7983 21.7936L52.6491 24.1353H54.1563L55.6337 21.1346V21.1229H55.6487L56.6337 19.1107V18.1221L51.7837 18.1219Z" fill="white"/>
<path d="M62.5729 19.4636C62.543 19.3457 62.5131 19.2399 62.4536 19.134C62.3342 18.9103 62.1551 18.7103 61.9461 18.5573C61.7374 18.4043 61.4835 18.2749 61.185 18.1925C60.9014 18.1218 60.5881 18.0748 60.2598 18.0748C59.9167 18.0748 59.6032 18.1218 59.3196 18.2042C59.0212 18.2866 58.7825 18.4041 58.5587 18.5691C58.3944 18.6983 58.2602 18.8397 58.1557 19.016C58.111 19.0631 58.0811 19.1102 58.0512 19.1574C57.9319 19.3927 57.8721 19.6633 57.8721 19.9458V19.9575C57.8721 20.2399 57.9319 20.487 58.0512 20.6989C58.1557 20.9225 58.3049 21.1107 58.4989 21.2636C58.678 21.4166 58.9018 21.5227 59.1405 21.6049C59.3794 21.6872 59.6329 21.7343 59.8866 21.7343C59.976 21.7343 60.0805 21.7224 60.1702 21.7107C60.2747 21.6989 60.3641 21.6872 60.4538 21.6519L58.8719 24.135H60.3792L62.0059 21.5345C62.0059 21.5228 62.0208 21.511 62.0208 21.4993C62.1252 21.3228 62.2297 21.158 62.3192 20.9932C62.3639 20.8991 62.3938 20.8167 62.4385 20.7343C62.543 20.5224 62.6026 20.3106 62.6176 20.087C62.6325 20.04 62.6325 19.9812 62.6325 19.9341C62.6325 19.7694 62.6176 19.6163 62.5729 19.4636ZM60.9612 20.5931C60.7672 20.7459 60.5432 20.8165 60.2598 20.8165C59.9465 20.8165 59.7077 20.7459 59.5286 20.5812C59.4092 20.4753 59.3346 20.3342 59.3047 20.1692H59.2897C59.2897 20.0987 59.2747 20.0282 59.2747 19.9458C59.2747 19.734 59.3194 19.569 59.4239 19.4281C59.4538 19.3693 59.4985 19.3339 59.5432 19.2867C59.7372 19.134 59.9612 19.0633 60.2594 19.0633C60.543 19.0633 60.7669 19.134 60.9608 19.2867C61.1249 19.4281 61.2294 19.628 61.2444 19.8869V20.0165C61.2297 20.2753 61.1253 20.4518 60.9612 20.5931Z" fill="white"/>
<path d="M71.5717 18.1219L70.6912 18.7221H70.6762L70.0195 19.1928V20.3696L71.5715 19.3105V24.1352H72.9742V18.1219H71.5717Z" fill="white"/>
<path d="M75.541 18.1219V20.0637H76.8691V19.1105H78.8838L78.8539 19.1577L76.4064 24.1353H77.9137L80.391 19.1105V18.1219H75.541Z" fill="white"/>
<path d="M83.7489 18.1219L83.5997 18.2279L82.6147 18.8986L82.1968 19.1928V20.3696L83.7489 19.3105V24.1352H85.1368V18.1219H83.7489Z" fill="white"/>
<path d="M92.2848 19.134C92.1654 18.9103 92.0012 18.7103 91.7922 18.5573C91.5684 18.4043 91.3146 18.2749 91.0311 18.1925C90.7475 18.1218 90.4342 18.0748 90.091 18.0748C89.7627 18.0748 89.4492 18.1218 89.1508 18.2042C88.8672 18.2866 88.6135 18.4041 88.4047 18.5691C88.1809 18.7337 88.0166 18.922 87.8973 19.1574C87.7779 19.3927 87.7182 19.6633 87.7182 19.9458C87.7182 20.2282 87.7779 20.487 87.8822 20.6989C88.0016 20.9225 88.1508 21.1107 88.3447 21.2636C88.4193 21.3225 88.494 21.3813 88.5686 21.4166C88.6879 21.499 88.8371 21.5578 88.9863 21.6049C89.2252 21.6872 89.4787 21.7343 89.7324 21.7343C89.8219 21.7343 89.9115 21.7224 90.016 21.7107C90.1055 21.6989 90.21 21.6872 90.2996 21.6519L88.7178 24.135H90.225L91.2994 22.4053L91.8367 21.5345C92.0158 21.2638 92.165 20.9932 92.2844 20.7343C92.4037 20.4753 92.4783 20.2047 92.4783 19.9341C92.4787 19.6399 92.4191 19.3693 92.2848 19.134ZM89.3896 19.2867C89.5687 19.134 89.8076 19.0633 90.091 19.0633C90.3744 19.0633 90.6133 19.134 90.8072 19.2867C90.9863 19.4398 91.0758 19.6635 91.0758 19.9458C91.0758 20.2282 90.9863 20.44 90.8072 20.5931C90.6133 20.7459 90.3744 20.8165 90.091 20.8165C89.7926 20.8165 89.5537 20.7459 89.3746 20.5812C89.1955 20.4283 89.1061 20.2164 89.1061 19.9458C89.1061 19.6635 89.1957 19.44 89.3896 19.2867Z" fill="white"/>
<path d="M65.3786 43.1043C65.2892 42.9515 65.1847 42.8337 65.0354 42.7277C64.8862 42.6219 64.7222 42.5394 64.528 42.4924C64.3341 42.4336 64.1399 42.4102 63.9311 42.4102C63.7073 42.4102 63.5132 42.4336 63.3194 42.4924C63.1255 42.5394 62.9612 42.6218 62.812 42.7277C62.6628 42.8335 62.5435 42.9514 62.4538 43.1043C62.3792 43.2574 62.3345 43.4339 62.3345 43.6339V45.3638C62.3345 45.5637 62.3792 45.7403 62.4538 45.8933C62.5433 46.0461 62.6628 46.1757 62.812 46.2698C62.9612 46.3756 63.1255 46.4582 63.3194 46.517C63.5134 46.564 63.7073 46.5876 63.9311 46.5876C64.1401 46.5876 64.3341 46.564 64.528 46.517C64.722 46.4582 64.8862 46.3756 65.0354 46.2698C65.1847 46.1757 65.2892 46.0462 65.3786 45.8933C65.4683 45.7403 65.513 45.5637 65.513 45.3638V43.6339C65.513 43.4339 65.4683 43.2574 65.3786 43.1043ZM64.5579 45.3638C64.5579 45.5284 64.4983 45.6697 64.3788 45.7638C64.2743 45.8697 64.1102 45.9168 63.9311 45.9168C63.7372 45.9168 63.5729 45.8697 63.4685 45.7638C63.3491 45.6697 63.2894 45.5284 63.2894 45.3638V43.6456C63.2894 43.4691 63.3491 43.3279 63.4685 43.2338C63.5729 43.1279 63.737 43.0809 63.9311 43.0809C64.1102 43.0809 64.2743 43.1279 64.3788 43.2338C64.4981 43.3279 64.5579 43.4691 64.5579 43.6456V45.3638Z" fill="white"/>
<path d="M69.6313 44.5988C69.5864 44.4106 69.4522 44.2341 69.2433 44.0693C69.1388 43.9869 69.0046 43.9164 68.8403 43.8694C68.6763 43.8223 68.4972 43.7987 68.2731 43.7987C68.094 43.7987 67.9448 43.8104 67.7956 43.8576C67.6612 43.9045 67.5567 43.9517 67.4821 43.9986V43.1162H69.6013V42.4454H66.6167V44.7638H67.4972C67.5269 44.6814 67.5866 44.6107 67.6911 44.5401C67.7806 44.4696 67.9298 44.4343 68.1239 44.4343C68.3626 44.4343 68.5268 44.4932 68.6165 44.6225C68.721 44.7521 68.7657 44.9286 68.7657 45.1756C68.7657 45.3051 68.7507 45.4228 68.721 45.5287C68.6911 45.6347 68.6464 45.7171 68.5567 45.7876C68.4522 45.87 68.2882 45.9172 68.1091 45.9172C67.9001 45.9172 67.7509 45.87 67.6464 45.7876C67.5569 45.6935 67.4823 45.5642 67.4673 45.4111H66.5122C66.5272 45.5523 66.5569 45.7052 66.6167 45.8465C66.6614 45.9994 66.7808 46.1406 66.9302 46.2583C67.0495 46.3524 67.1987 46.4231 67.3929 46.4938C67.6019 46.5643 67.8257 46.5879 68.1091 46.5879C68.3776 46.5879 68.6017 46.5643 68.7956 46.4938C68.9895 46.4231 69.1388 46.3524 69.2583 46.2583C69.4522 46.1054 69.5718 45.9407 69.6313 45.7758C69.6909 45.5994 69.7208 45.3992 69.7208 45.1756C69.7208 44.9754 69.6909 44.7872 69.6313 44.5988Z" fill="white"/>
<path d="M72.3475 42.0099L70.2582 46.9875H71.1538L73.243 42.0099H72.3475Z" fill="white"/>
<path d="M75.2129 42.4454L74.1533 43.175V43.9752L75.2129 43.2457V46.5523H76.168V42.4454H75.2129Z" fill="white"/>
<path d="M79.376 42.4454L78.3164 43.175V43.9752L79.376 43.2457V46.5523H80.3311V42.4454H79.376Z" fill="white"/>
<path d="M82.167 44.5518V45.2577H84.4205V44.5518H82.167Z" fill="white"/>
<path d="M88.4794 43.1043C88.4048 42.9515 88.2854 42.8337 88.136 42.7277C88.0019 42.6219 87.8227 42.5394 87.6286 42.4924C87.4347 42.4336 87.2405 42.4102 87.0317 42.4102C86.8079 42.4102 86.614 42.4336 86.42 42.4924C86.2261 42.5394 86.0618 42.6218 85.9126 42.7277C85.7634 42.8335 85.644 42.9514 85.5694 43.1043C85.48 43.2574 85.4351 43.4339 85.4351 43.6339V45.3638C85.4351 45.5637 85.4798 45.7403 85.5694 45.8933C85.644 46.0461 85.7634 46.1757 85.9126 46.2698C86.0618 46.3756 86.2261 46.4582 86.42 46.517C86.614 46.564 86.8081 46.5876 87.0317 46.5876C87.2407 46.5876 87.4347 46.564 87.6286 46.517C87.8226 46.4582 88.0017 46.3756 88.136 46.2698C88.2853 46.1757 88.4048 46.0462 88.4794 45.8933C88.5688 45.7403 88.6136 45.5637 88.6136 45.3638V43.6339C88.6138 43.4339 88.569 43.2574 88.4794 43.1043ZM87.6587 45.3638C87.6587 45.5284 87.5989 45.6697 87.4796 45.7638C87.3751 45.8697 87.2259 45.9168 87.0317 45.9168C86.8378 45.9168 86.6886 45.8697 86.569 45.7638C86.4497 45.6697 86.3899 45.5284 86.3899 45.3638V43.6456C86.3899 43.4691 86.4497 43.3279 86.569 43.2338C86.6884 43.1279 86.8376 43.0809 87.0317 43.0809C87.2257 43.0809 87.3751 43.1279 87.4796 43.2338C87.5989 43.3279 87.6587 43.4691 87.6587 43.6456V45.3638Z" fill="white"/>
<path d="M92.6428 43.1043C92.5682 42.9515 92.4488 42.8337 92.2996 42.7277C92.1652 42.6219 91.9861 42.5394 91.7922 42.4924C91.5982 42.4336 91.4041 42.4102 91.1953 42.4102C90.9715 42.4102 90.7773 42.4336 90.5834 42.4924C90.5686 42.4924 90.5537 42.5043 90.5387 42.5043C90.3596 42.5512 90.2104 42.6336 90.0762 42.7277C89.927 42.8335 89.8225 42.9514 89.7328 43.1043C89.6434 43.2574 89.5986 43.4339 89.5986 43.6339V45.3638C89.5986 45.5637 89.6434 45.7403 89.7328 45.8933C89.7479 45.9051 89.7479 45.9287 89.7627 45.9404C89.8523 46.0696 89.9418 46.1874 90.0762 46.2698C90.2254 46.3756 90.3895 46.4582 90.5834 46.517C90.7773 46.564 90.9715 46.5876 91.1953 46.5876C91.4041 46.5876 91.5982 46.564 91.7922 46.517C91.9861 46.4582 92.1652 46.3756 92.2996 46.2698C92.4488 46.1757 92.5682 46.0462 92.6428 45.8933C92.7324 45.7403 92.7771 45.5637 92.7771 45.3638V43.6339C92.7771 43.4339 92.7322 43.2574 92.6428 43.1043ZM91.8219 45.3638C91.8219 45.5284 91.7621 45.6697 91.6578 45.7638C91.5385 45.8697 91.3893 45.9168 91.1951 45.9168C91.0012 45.9168 90.8518 45.8697 90.7326 45.7638C90.6133 45.6697 90.5535 45.5284 90.5535 45.3638V43.6456C90.5535 43.4691 90.6131 43.3279 90.7326 43.2338C90.852 43.1279 91.0012 43.0809 91.1951 43.0809C91.3891 43.0809 91.5383 43.1279 91.6578 43.2338C91.7623 43.3279 91.8219 43.4691 91.8219 43.6456V45.3638Z" fill="white"/>
<path d="M9.08838 26.5945V26.971H9.80459V28.7479H10.3269V26.971H11.0431V26.5945H9.08838Z" fill="white"/>
<path d="M13.4757 27.3948C13.4757 27.3124 13.4608 27.2417 13.4458 27.1711C13.431 27.1006 13.4011 27.0299 13.3712 26.9711C13.3563 26.9594 13.3563 26.9475 13.3413 26.9358C13.3114 26.9005 13.2667 26.8536 13.2071 26.8066C13.1772 26.783 13.1474 26.7595 13.1177 26.7478C13.0579 26.7006 12.9833 26.6654 12.8938 26.6418C12.8343 26.6184 12.7597 26.6065 12.6849 26.5948C12.6253 26.5831 12.5655 26.5831 12.4909 26.5831C12.3267 26.5831 12.1925 26.6067 12.0729 26.642C11.9536 26.6772 11.8491 26.7362 11.7595 26.8069C11.6849 26.8657 11.6401 26.9244 11.5954 26.9715C11.5655 27.0304 11.5356 27.1011 11.5208 27.1716C11.506 27.2421 11.4909 27.3128 11.4909 27.3952C11.4761 27.4776 11.4761 27.5716 11.4761 27.6777C11.4761 27.7718 11.4761 27.8659 11.4909 27.9483C11.4909 27.9837 11.4909 28.0188 11.5058 28.0424C11.5058 28.0895 11.5058 28.1365 11.5206 28.1718C11.5354 28.2425 11.5653 28.313 11.5952 28.3718C11.6399 28.4307 11.6847 28.4776 11.7593 28.5366C11.8487 28.6071 11.9532 28.666 12.0728 28.7012C12.1772 28.7484 12.2966 28.7601 12.4458 28.7601H12.4905C12.6397 28.7601 12.7739 28.7484 12.8935 28.7012C13.0128 28.666 13.1173 28.6071 13.2069 28.5366C13.2815 28.4778 13.3263 28.4307 13.371 28.3718C13.4009 28.313 13.4306 28.2425 13.4456 28.1718C13.4604 28.1129 13.4755 28.0305 13.4755 27.9483V27.8895C13.4903 27.8306 13.4903 27.7482 13.4903 27.6777C13.4907 27.5713 13.4907 27.4772 13.4757 27.3948ZM12.9235 28.0891C12.9235 28.136 12.9087 28.1713 12.8936 28.1949C12.864 28.2301 12.8489 28.2537 12.819 28.2656C12.7892 28.3008 12.7444 28.3361 12.6847 28.3597C12.6548 28.3714 12.6101 28.3832 12.5653 28.3714C12.5505 28.3832 12.5206 28.3832 12.4907 28.3832C12.4161 28.3832 12.3415 28.3832 12.2817 28.3597C12.237 28.3361 12.1772 28.3008 12.1325 28.2656C12.1177 28.2538 12.0878 28.2303 12.0729 28.1949C12.0581 28.1713 12.0431 28.136 12.0431 28.0891C12.0282 28.0538 12.0132 27.995 12.0132 27.9243V27.4183C12.0132 27.3476 12.028 27.3005 12.0431 27.2534C12.0431 27.2064 12.0579 27.171 12.0729 27.1476C12.0878 27.1123 12.1177 27.0887 12.1325 27.0652C12.1772 27.0299 12.237 27.0064 12.2817 26.9828C12.3413 26.9709 12.4159 26.9592 12.4907 26.9592C12.5503 26.9592 12.6249 26.9709 12.6847 26.9828C12.7444 27.0064 12.7892 27.0299 12.819 27.0652C12.8489 27.0887 12.8638 27.1123 12.8936 27.1476C12.9085 27.1711 12.9235 27.2064 12.9235 27.2534C12.9384 27.3005 12.9384 27.3476 12.9534 27.4183V27.9243C12.9386 27.9831 12.9386 28.0301 12.9235 28.0655C12.9235 28.0773 12.9235 28.0891 12.9235 28.0891Z" fill="white"/>
<path d="M16.0128 27.0063C15.9681 26.9239 15.9233 26.8534 15.8337 26.7946C15.7591 26.7357 15.6694 26.6886 15.5651 26.6532C15.4458 26.6179 15.3263 26.5944 15.177 26.5944H14.1323V28.7477H14.6546V27.9358H15.177C15.3263 27.9358 15.4456 27.9241 15.5651 27.8887C15.6694 27.8534 15.7591 27.8063 15.8337 27.7357C15.9233 27.6769 15.9679 27.6064 16.0128 27.5238C16.0575 27.4414 16.0724 27.3592 16.0724 27.2649C16.0726 27.183 16.0577 27.0889 16.0128 27.0063ZM15.4458 27.4772C15.4011 27.5124 15.3563 27.536 15.2966 27.536C15.2519 27.5596 15.2069 27.5596 15.1474 27.5596H14.6548V26.9712H15.1474C15.2817 26.9712 15.3712 27.0065 15.4458 27.0536C15.5054 27.1125 15.5503 27.183 15.5503 27.2654C15.5503 27.3595 15.5054 27.43 15.4458 27.4772Z" fill="white"/>
<path d="M18.4153 26.971V26.5945H16.6245V28.7479H18.4153V28.3713H17.147V27.8535H18.2214V27.477H17.147V26.9709H18.4153V26.971Z" fill="white"/>
<path d="M20.251 28.3009C20.1764 28.3597 20.0719 28.3831 19.9377 28.3831C19.8631 28.3831 19.8033 28.3831 19.7438 28.3595C19.684 28.336 19.6393 28.3124 19.5945 28.2771C19.5797 28.2536 19.5498 28.23 19.5348 28.2064C19.5199 28.1712 19.5049 28.1358 19.49 28.0888C19.49 28.0535 19.4752 27.9947 19.4752 27.924C19.4604 27.8533 19.4604 27.7711 19.4604 27.677C19.4604 27.571 19.4604 27.4886 19.4752 27.4181C19.4752 27.3474 19.49 27.3002 19.49 27.2531C19.5049 27.2061 19.5199 27.1707 19.5348 27.1473C19.5496 27.112 19.5795 27.0885 19.5945 27.0649C19.6393 27.0296 19.684 27.0061 19.7438 26.9825C19.8033 26.9707 19.8631 26.959 19.9377 26.959C20.0719 26.959 20.1764 26.9825 20.2361 27.0414C20.3107 27.1002 20.3705 27.1707 20.3854 27.2648H20.9375C20.8779 27.0295 20.7734 26.8647 20.5943 26.7472C20.4152 26.6412 20.1914 26.5824 19.9377 26.5824C19.7734 26.5824 19.6393 26.606 19.5197 26.6412C19.4152 26.6765 19.2959 26.7355 19.2065 26.8062C19.1467 26.865 19.0871 26.9237 19.0572 26.9708C19.0125 27.0296 18.9826 27.1003 18.9678 27.1709C18.9529 27.2414 18.9379 27.3121 18.9379 27.3945V27.9476C18.9379 28.03 18.9527 28.1122 18.9678 28.171C18.9826 28.2417 19.0125 28.3123 19.0572 28.3711C19.0871 28.4299 19.1469 28.4769 19.2065 28.5359C19.2959 28.6064 19.4152 28.6652 19.5197 28.7005C19.6391 28.7476 19.7734 28.7593 19.9377 28.7593C20.1914 28.7593 20.4152 28.7005 20.5943 28.5947C20.7734 28.4769 20.8779 28.3121 20.9375 28.0886H20.4004C20.3703 28.1713 20.3107 28.242 20.251 28.3009Z" fill="white"/>
<path d="M23.3701 27.1711C23.3553 27.1006 23.3254 27.0299 23.2807 26.9711C23.2508 26.9239 23.1912 26.8653 23.1314 26.8064C23.0418 26.7357 22.9375 26.6769 22.8182 26.6415C22.6988 26.6062 22.5645 26.5826 22.4002 26.5826C22.2361 26.5826 22.1018 26.6062 21.9824 26.6415C21.8631 26.6767 21.7586 26.7357 21.6689 26.8064C21.6092 26.8653 21.5496 26.9239 21.5197 26.9711C21.475 27.0299 21.4451 27.1006 21.4303 27.1711C21.4154 27.2417 21.4004 27.3123 21.4004 27.3947V27.9478C21.4004 28.0302 21.4152 28.1124 21.4303 28.1713C21.4451 28.242 21.475 28.3125 21.5197 28.3713C21.5496 28.4302 21.6092 28.4771 21.6689 28.5361C21.7584 28.6067 21.8629 28.6655 21.9824 28.7008C22.1018 28.7479 22.2361 28.7596 22.4002 28.7596C22.5645 28.7596 22.6986 28.7479 22.8182 28.7008C22.9375 28.6655 23.042 28.6067 23.1314 28.5361C23.1912 28.4773 23.2508 28.4302 23.2807 28.3713C23.3254 28.3125 23.3553 28.242 23.3701 28.1713C23.385 28.1124 23.4 28.03 23.4 27.9478V27.3947C23.4 27.3123 23.385 27.2417 23.3701 27.1711ZM22.8627 27.9244C22.8627 27.9951 22.8478 28.0538 22.8478 28.0892C22.833 28.1362 22.8182 28.1714 22.8031 28.195C22.7883 28.2303 22.7732 28.2538 22.7436 28.2657C22.6988 28.3009 22.6541 28.3362 22.5943 28.3598C22.5348 28.3833 22.475 28.3833 22.4004 28.3833C22.3258 28.3833 22.2662 28.3833 22.2064 28.3598C22.1469 28.3362 22.102 28.3009 22.0572 28.2657C22.0273 28.254 22.0125 28.2304 21.9977 28.195C21.9828 28.1714 21.9678 28.1362 21.9529 28.0892C21.9381 28.0539 21.9381 27.9951 21.9381 27.9244C21.9232 27.8537 21.9232 27.7715 21.9232 27.6774C21.9232 27.5714 21.9232 27.489 21.9381 27.4185C21.9381 27.3478 21.9381 27.3006 21.9529 27.2535C21.9678 27.2065 21.9828 27.1711 21.9977 27.1477C22.0125 27.1124 22.0275 27.0889 22.0572 27.0653C22.102 27.03 22.1467 27.0065 22.2064 26.9829C22.2662 26.9711 22.3258 26.9594 22.4004 26.9594C22.475 26.9594 22.5348 26.9711 22.5943 26.9829C22.6541 27.0065 22.6988 27.03 22.7436 27.0653C22.7734 27.0889 22.7883 27.1124 22.8031 27.1477C22.818 27.1713 22.833 27.2065 22.8478 27.2535C22.8478 27.3006 22.8627 27.3478 22.8627 27.4185C22.8775 27.489 22.8775 27.5712 22.8775 27.6774C22.8775 27.7713 22.8775 27.8537 22.8627 27.9244Z" fill="white"/>
<path d="M25.5935 26.5945V27.9124L24.519 26.5945H24.0415V28.7479H24.5788V27.43L25.6532 28.7479H26.1308V26.5945H25.5935Z" fill="white"/>
<path d="M29.7717 27.9244C29.742 27.8655 29.6971 27.8066 29.6375 27.7596C29.6076 27.736 29.5777 27.7126 29.548 27.7007C29.5182 27.6889 29.4883 27.6653 29.4287 27.6419C29.6525 27.5477 29.7719 27.3949 29.7719 27.1947C29.7719 27.1006 29.7422 27.0182 29.7123 26.9475C29.6676 26.8769 29.6078 26.8183 29.5332 26.7593C29.4734 26.7121 29.384 26.665 29.2795 26.6415C29.175 26.618 29.0557 26.5945 28.9213 26.5945H27.832V28.7479H28.9662C29.1004 28.7479 29.2199 28.7243 29.3244 28.7007C29.4139 28.6655 29.5035 28.6302 29.5781 28.5715C29.6527 28.5244 29.7125 28.4537 29.7424 28.3832C29.7871 28.3125 29.8019 28.2184 29.8019 28.1241C29.8016 28.0537 29.7865 27.9832 29.7717 27.9244ZM28.3689 26.971H28.8912C28.9957 26.971 29.0852 26.9946 29.1449 27.0417C29.2047 27.0889 29.2344 27.1475 29.2344 27.2181C29.2344 27.3005 29.2045 27.3595 29.1449 27.4066C29.0853 27.4419 28.9957 27.4654 28.8912 27.4654H28.3689V26.971ZM29.1748 28.3009C29.115 28.3479 29.0256 28.3715 28.9211 28.3715H28.3689V27.8418H28.9211C29.0256 27.8418 29.115 27.8654 29.1748 27.9125C29.2344 27.9596 29.2793 28.0183 29.2793 28.1007C29.2793 28.1831 29.2344 28.2538 29.1748 28.3009Z" fill="white"/>
<path d="M31.5477 26.5945H31.13L30.145 28.7479H30.6972L30.8614 28.3596H31.8313L31.9954 28.7479H32.5476L31.5477 26.5945ZM31.0106 28.0068L31.3538 27.2299L31.6821 28.0068H31.0106Z" fill="white"/>
<path d="M34.5171 26.5945V27.9124L33.4427 26.5945H32.98V28.7479H33.5022V27.43L34.5767 28.7479H35.0542V26.5945H34.5171Z" fill="white"/>
<path d="M37.0243 27.4536L37.9198 26.5947H37.278L36.3079 27.536V26.5947H35.7856V28.7481H36.3079V28.1008L36.6661 27.7714L37.3675 28.748H37.9792L37.0243 27.4536Z" fill="white"/>
<path d="M24.7671 37.8285V46.087C24.7671 46.4194 24.4221 46.6914 24.0007 46.6914H11.1009C10.6794 46.6914 10.3345 46.4194 10.3345 46.087V37.8285C10.3345 37.4961 10.6792 37.2241 11.1009 37.2241H24.0007C24.4221 37.2241 24.7671 37.4961 24.7671 37.8285Z" fill="#191D88"/>
<path opacity="0.2" d="M21.9372 39.2211L24.1757 37.4559H23.4444L20.997 39.3859L20.6985 39.6212L19.7731 40.3627L19.4747 40.5981H16.1319L14.5948 39.386L14.1022 38.9859L12.1622 37.4562H11.446L13.371 38.9859L13.6694 39.2214H10.5952V39.6215H14.1917L15.1468 40.3865L15.4005 40.5984V41.069H10.5956V41.4693H15.4009V42.9167H10.5956V43.3168H15.4009V43.7875H15.4157L14.4905 44.5289L14.1921 44.7644H10.5956V45.1644H13.6847L11.7446 46.6942H12.461L14.4011 45.1644L16.147 43.7877H19.4749L23.146 46.6942H23.8772L21.9372 45.1644H24.7727V44.7644H21.4298L20.1911 43.7877H20.221V43.317H24.7725V42.9169H20.221V41.4695H24.7725V41.0692H20.221V40.5985H20.1911L21.4298 39.6218H24.7725V39.2217H21.9372V39.2211ZM19.6987 43.3868H15.9083V40.9979H19.6987V43.3868Z" fill="url(#paint12_linear_214_378)"/>
<path d="M15.8782 40.3625L16.1767 40.5979H16.1915L16.4005 40.7625H18.7136L19.221 40.3625H15.8782ZM15.8782 40.3625L16.1767 40.5979H16.1915L16.4005 40.7625H18.7136L19.221 40.3625H15.8782ZM15.8782 40.3625L16.1767 40.5979H16.1915L16.4005 40.7625H18.7136L19.221 40.3625H15.8782ZM15.8782 40.3625L16.1767 40.5979H16.1915L16.4005 40.7625H18.7136L19.221 40.3625H15.8782ZM15.8782 40.3625L16.1767 40.5979H16.1915L16.4005 40.7625H18.7136L19.221 40.3625H15.8782ZM15.8782 40.3625L16.1767 40.5979H16.1915L16.4005 40.7625H18.7136L19.221 40.3625H15.8782ZM15.147 40.3625V43.5515H19.9671V40.3625H15.147ZM19.4448 43.1512H15.6544V40.7624H19.4448V43.1512ZM15.8782 40.3625L16.1767 40.5979H16.1915L16.4005 40.7625H18.7136L19.221 40.3625H15.8782ZM18.9972 43.3867L18.6987 43.1512H16.4005L16.102 43.3867H16.0872L15.8933 43.5515H19.221L18.9972 43.3867ZM15.8782 40.3625L16.1767 40.5979H16.1915L16.4005 40.7625H18.7136L19.221 40.3625H15.8782ZM15.8782 40.3625L16.1767 40.5979H16.1915L16.4005 40.7625H18.7136L19.221 40.3625H15.8782ZM15.8782 40.3625L16.1767 40.5979H16.1915L16.4005 40.7625H18.7136L19.221 40.3625H15.8782ZM15.8782 40.3625L16.1767 40.5979H16.1915L16.4005 40.7625H18.7136L19.221 40.3625H15.8782Z" fill="#717070"/>
<path d="M14.1438 38.9867L14.6548 39.3896H10.3345V38.9867H14.1438Z" fill="#717070"/>
<path d="M24.7669 38.9867V39.3896H20.4468L20.9576 38.9867H24.7669Z" fill="#717070"/>
<path d="M15.6509 40.8334H10.3345V41.2363H15.6509V40.8334Z" fill="#717070"/>
<path d="M24.7669 40.8334H19.4505V41.2363H24.7669V40.8334Z" fill="#717070"/>
<path d="M15.6509 42.6799H10.3345V43.0828H15.6509V42.6799Z" fill="#717070"/>
<path d="M24.7669 42.6799H19.4505V43.0828H24.7669V42.6799Z" fill="#717070"/>
<path d="M14.6554 44.526L14.1444 44.9289H10.3345V44.526H14.6554Z" fill="#717070"/>
<path d="M24.7669 44.526V44.9289H20.957L20.446 44.526H24.7669Z" fill="#717070"/>
<path d="M16.3954 43.1537L11.9091 46.6912H11.1869L15.6732 43.1537H16.3954Z" fill="#717070"/>
<path d="M23.9148 37.2241L19.4287 40.7618H18.7064L23.1925 37.2241H23.9148Z" fill="#717070"/>
<path d="M16.3946 40.7618H15.6726L11.1862 37.2241H11.9085L16.3946 40.7618Z" fill="#717070"/>
<path d="M23.9144 46.6912H23.1921L19.2167 43.5564L19.004 43.3887L18.7058 43.1537H19.428L19.706 43.3727L19.939 43.5564L20.2167 43.7756L21.1683 44.5258L21.4665 44.761L21.6792 44.9287L21.9775 45.1638L23.9144 46.6912Z" fill="#717070"/>
<path d="M41.5051 37.2241H41.4195H40.6972H29.4131H28.6908H28.6053C28.1838 37.2241 27.8389 37.4961 27.8389 37.8283V38.9865V39.3894V40.8331V41.236V42.6797V43.0826V44.5258V44.9287V46.0869C27.8389 46.4192 28.1838 46.6912 28.6053 46.6912H28.6914H29.2451H29.4137H29.9674H40.6539H40.6967H41.3761H41.4189H41.5051C41.9265 46.6912 42.2715 46.4192 42.2715 46.0869V45.1639V44.9287V44.761V44.5258V43.3177V43.0826V42.9148V42.6797V41.4711V41.236V41.0682V40.8331V39.6245V39.3894V39.2217V38.9865V37.8283C42.2715 37.4961 41.9265 37.2241 41.5051 37.2241Z" fill="#ECEDF7"/>
<path d="M42.2717 41.0091V46.1415C42.2717 46.4739 41.9262 46.7463 41.5048 46.7463H32.5688L27.8384 43.0162V37.8828C27.8384 37.5512 28.1839 37.2789 28.6054 37.2789H37.5413L42.2717 41.0091Z" fill="#B7C3A1"/>
<path opacity="0.2" d="M41.4826 37.2122H41.397H41.0355L29.0297 46.6792H29.2226H29.3912H29.9449H40.6314H40.6742H41.3537H41.3964H41.4826C41.9041 46.6792 42.249 46.4074 42.249 46.0749V45.1519V44.9167V44.749V44.5138V43.3058V43.0706V42.9029V42.6677V41.4592V41.224V41.0563V40.8211V39.6126V39.3774V39.2097V38.9745V37.8162C42.249 37.484 41.9041 37.2122 41.4826 37.2122Z" fill="white"/>
<path d="M34.4448 10.2897L34.8052 9.3855H37.7241L37.3638 10.2897H34.4448Z" fill="white"/>
<path d="M41.6225 12.7105H40.5352L40.417 7.39001H41.9232L41.8945 10.8574L44.9162 7.39001H46.4326L41.6225 12.7105Z" fill="white"/>
<path d="M45.1943 12.7105L47.5352 7.39001H48.9894L46.6486 12.7105H45.1943Z" fill="white"/>
<path d="M53.8884 11.1417C53.7743 11.4007 53.604 11.6294 53.3774 11.8289C53.1501 12.0283 52.8821 12.1962 52.5749 12.3329C52.2667 12.4703 51.9278 12.575 51.5569 12.6473C51.1874 12.719 50.8069 12.7555 50.4161 12.7555C49.8517 12.7555 49.37 12.7044 48.9722 12.6023C48.5735 12.5002 48.2513 12.3171 48.0048 12.0531L49.2425 11.3805C49.4056 11.5496 49.6257 11.667 49.9046 11.7314C50.1825 11.7965 50.4927 11.8287 50.8351 11.8287C51.2745 11.8287 51.6308 11.7716 51.9044 11.6565C52.1778 11.5422 52.3616 11.3781 52.456 11.1634C52.537 10.9792 52.5249 10.8326 52.42 10.7224C52.3651 10.6732 52.2974 10.6354 52.2181 10.6105C52.138 10.5855 52.0091 10.563 51.8288 10.543L50.9825 10.4463C50.6632 10.4116 50.4042 10.3576 50.206 10.2858C50.0071 10.2134 49.8499 10.1198 49.7325 10.0055C49.4843 9.7611 49.4605 9.41258 49.6599 8.95901C49.7649 8.71999 49.9196 8.50237 50.1245 8.30523C50.3302 8.10887 50.5751 7.93915 50.8614 7.79746C51.1472 7.65515 51.4675 7.54442 51.8235 7.46479C52.1796 7.38517 52.5601 7.34497 52.9644 7.34497C53.4804 7.34497 53.9091 7.39241 54.2513 7.48728C54.5938 7.58153 54.8753 7.74093 55.0976 7.96533L53.8911 8.61541C53.7313 8.45601 53.5245 8.35513 53.2706 8.31324C53.0177 8.27073 52.7683 8.24933 52.5247 8.24933C52.1339 8.24933 51.8169 8.31555 51.5741 8.44754C51.3313 8.57953 51.1688 8.73754 51.0878 8.92189C51.0569 8.99182 51.0438 9.05866 51.0466 9.1238C51.0497 9.18818 51.0769 9.2484 51.1294 9.30323C51.1841 9.35313 51.2585 9.39502 51.3511 9.43029C51.444 9.46494 51.5667 9.48989 51.7212 9.50452L52.5673 9.60186C52.894 9.63712 53.154 9.68702 53.3495 9.7514C53.544 9.81655 53.6962 9.90587 53.8067 10.0202C53.9517 10.1497 54.0276 10.3097 54.0354 10.4987C54.0427 10.6879 53.9936 10.902 53.8884 11.1417Z" fill="white"/>
<path d="M58.8829 12.7105L58.8569 11.7692H56.2106L55.346 12.7105H53.8286L58.8796 7.39001H60.0196L60.3993 12.7105H58.8829ZM58.7964 8.95893L57.003 10.8945H58.855L58.7964 8.95893Z" fill="white"/>
<path d="M62.2764 10.2897L62.6367 9.3855H65.5557L65.1953 10.2897H62.2764Z" fill="white"/>
<path opacity="0.1" d="M100 2.50638V47.4818C100 48.8703 98.5674 50 96.8213 50H50.0075V0H96.8213C98.5674 0 100 1.12967 100 2.50638Z" fill="white"/>
<defs>
<linearGradient id="paint0_linear_214_378" x1="50.0001" y1="0" x2="50.0001" y2="50" gradientUnits="userSpaceOnUse">
<stop stop-color="#331F07"/>
<stop offset="0.885" stop-color="#82601F"/>
</linearGradient>
<linearGradient id="paint1_linear_214_378" x1="30.0478" y1="15.072" x2="30.0478" y2="46.2109" gradientUnits="userSpaceOnUse">
<stop stop-color="#331F07"/>
<stop offset="0.885" stop-color="#82601F"/>
</linearGradient>
<linearGradient id="paint2_linear_214_378" x1="44.7272" y1="26.582" x2="44.7272" y2="30.4228" gradientUnits="userSpaceOnUse">
<stop stop-color="#331F07"/>
<stop offset="0.885" stop-color="#82601F"/>
</linearGradient>
<linearGradient id="paint3_linear_214_378" x1="39.938" y1="33.4143" x2="39.938" y2="36.5466" gradientUnits="userSpaceOnUse">
<stop stop-color="#331F07"/>
<stop offset="0.885" stop-color="#82601F"/>
</linearGradient>
<linearGradient id="paint4_linear_214_378" x1="36.3458" y1="36.2103" x2="36.3458" y2="40.1332" gradientUnits="userSpaceOnUse">
<stop stop-color="#331F07"/>
<stop offset="0.885" stop-color="#82601F"/>
</linearGradient>
<linearGradient id="paint5_linear_214_378" x1="45.1709" y1="37.549" x2="45.1709" y2="40.3453" gradientUnits="userSpaceOnUse">
<stop stop-color="#331F07"/>
<stop offset="0.885" stop-color="#82601F"/>
</linearGradient>
<linearGradient id="paint6_linear_214_378" x1="42.8478" y1="40.4919" x2="42.8478" y2="47.1138" gradientUnits="userSpaceOnUse">
<stop stop-color="#331F07"/>
<stop offset="0.885" stop-color="#82601F"/>
</linearGradient>
<linearGradient id="paint7_linear_214_378" x1="55.6179" y1="46.0649" x2="55.6179" y2="49.6426" gradientUnits="userSpaceOnUse">
<stop stop-color="#331F07"/>
<stop offset="0.885" stop-color="#82601F"/>
</linearGradient>
<linearGradient id="paint8_linear_214_378" x1="17.5505" y1="39.9971" x2="17.5505" y2="43.8942" gradientUnits="userSpaceOnUse">
<stop stop-color="#331F07"/>
<stop offset="0.885" stop-color="#82601F"/>
</linearGradient>
<linearGradient id="paint9_linear_214_378" x1="2.69068" y1="21.8942" x2="2.69068" y2="25.1739" gradientUnits="userSpaceOnUse">
<stop stop-color="#331F07"/>
<stop offset="0.885" stop-color="#82601F"/>
</linearGradient>
<linearGradient id="paint10_linear_214_378" x1="0.770023" y1="23.4108" x2="0.770023" y2="24.8272" gradientUnits="userSpaceOnUse">
<stop stop-color="#331F07"/>
<stop offset="0.885" stop-color="#82601F"/>
</linearGradient>
<linearGradient id="paint11_linear_214_378" x1="80.6008" y1="17.3674" x2="80.6008" y2="49.997" gradientUnits="userSpaceOnUse">
<stop stop-color="#331F07"/>
<stop offset="0.885" stop-color="#82601F"/>
</linearGradient>
<linearGradient id="paint12_linear_214_378" x1="17.684" y1="37.4559" x2="17.684" y2="46.6942" gradientUnits="userSpaceOnUse">
<stop stop-color="#331F07"/>
<stop offset="0.885" stop-color="#82601F"/>
</linearGradient>
</defs>
</svg>
