<svg width="100" height="50" viewBox="0 0 100 50" fill="none" xmlns="http://www.w3.org/2000/svg">
<path d="M99.9999 2.50638V47.4817C99.9999 48.8703 98.5524 50 96.8064 50H3.13445C1.4331 49.9764 0.0303709 48.8821 0.000488281 47.5287V2.50638C0.000488281 1.12967 1.4331 0 3.17918 0H96.8066C98.5524 0 99.9999 1.12967 99.9999 2.50638Z" fill="#387ADF"/>
<g opacity="0.1">
<path d="M60.0954 19.7457C60.0954 19.7457 59.8416 19.8868 59.6924 20.0517C59.6327 20.1222 59.4686 20.1574 59.3045 20.1692H59.2895C59.0209 20.1928 58.7075 20.1692 58.5434 20.1104C58.245 20.0281 58.1405 19.8749 57.9614 19.922C57.9167 19.9339 57.9018 19.9456 57.8719 19.9573C57.7674 20.0161 57.7227 20.0867 57.4391 20.1572C57.0661 20.2279 57.0958 20.3221 57.0809 20.5339C57.0661 20.7457 57.1555 20.8752 57.0512 21.0164C56.9618 21.1694 56.3348 21.1105 55.9469 21.087C55.8424 21.0753 55.738 21.087 55.6485 21.1224H55.6335V21.1341C55.4096 21.1929 55.2155 21.334 54.9469 21.5342C54.5739 21.8284 54.6932 21.8401 54.2009 21.7813C54.0815 21.7577 53.9471 21.7695 53.7979 21.7931C53.4098 21.8284 52.9921 21.993 52.619 22.1578C52.1266 22.3697 52.455 22.4638 52.4102 22.8874C52.3655 23.2993 52.246 23.5111 51.9475 23.6874C51.6491 23.8641 51.4102 23.8877 50.9478 24.3583C50.903 24.3936 50.8731 24.429 50.8433 24.4643C50.4702 24.829 50.4104 24.8643 50.2614 24.8408C50.0823 24.829 50.2017 23.9584 50.2017 23.6874C50.2017 23.4286 50.3808 23.1227 50.8284 22.8285L50.8435 22.8167C51.2763 22.5461 51.5747 22.4872 51.9329 22.1225C52.2761 21.7458 52.3208 21.5224 52.1866 21.3338C52.0522 21.1456 51.6792 21.6751 51.3956 21.7811C51.0972 21.8752 51.0673 21.7223 50.8435 21.5692L50.8284 21.5575C50.7241 21.4986 50.5599 21.5222 50.3956 21.5692V21.581C50.1718 21.6397 49.9329 21.7575 49.8136 21.7694C49.6196 21.7811 49.3958 21.8635 49.0526 22.0283C49.0378 22.0283 49.0079 22.0401 48.9929 22.0518C48.6347 22.2282 48.5003 22.0871 48.0976 21.9576C47.7095 21.8165 47.2917 21.7223 46.6948 21.9106C46.471 21.9812 46.1427 22.2048 45.8292 22.4637C45.8142 22.4755 45.7845 22.4872 45.7697 22.4991C45.2622 22.9228 44.7847 23.4169 44.8294 23.5699C44.9189 23.8288 45.2771 23.7817 45.7546 24.0052C46.2322 24.2288 45.8591 24.2288 45.68 24.7232C45.5009 25.2172 45.5607 25.2762 45.4411 25.6998C45.307 26.1233 44.5009 26.4764 44.307 26.6292C44.113 26.7823 43.6355 27.1589 43.1429 27.1C42.6505 27.0293 42.6505 27.3825 42.2773 27.8884C41.9191 28.3943 42.1878 28.2533 42.2623 28.5357C42.3371 28.8063 41.949 29.4772 41.6654 29.7007C41.3968 29.9241 41.1431 29.5123 41.2773 29.0652C41.3966 28.6063 41.1132 28.8299 40.7998 28.7475C40.4714 28.6534 41.0236 28.4769 40.9638 28.2416C40.9191 28.0062 40.5461 28.218 40.4117 28.2651C40.2775 28.3238 40.1132 28.4179 39.8447 28.1944C39.606 28.0062 39.6507 27.9238 39.6656 27.912C39.6209 27.9472 39.3224 28.1826 38.9494 28.4532C38.5314 28.7592 39.024 28.5827 39.4867 28.6768C39.9492 28.759 39.7552 28.6768 40.1582 28.8297C40.5611 28.9944 39.8597 29.0061 39.5761 29.0886C39.3076 29.1593 39.3224 29.2885 39.6357 29.4653C39.9341 29.6417 40.1283 29.9241 40.2625 30.595C40.4117 31.2657 39.8744 31.4187 39.382 31.9129C38.8746 32.419 37.9494 32.6424 37.3226 32.7837C36.681 32.9249 36.8451 33.1248 36.3078 33.0543C35.7855 32.9719 35.9945 32.8895 35.5467 33.0073C35.099 33.1365 35.5467 33.419 35.9795 33.8192C36.4123 34.2194 35.8601 35.1373 35.5615 35.2548C35.2631 35.3607 35.1885 35.7254 34.8004 35.6783C34.3975 35.6313 34.5019 35.3841 34.1289 35.2312C33.7408 35.0666 34.084 35.6432 34.3676 36.2785C34.6361 36.8904 34.9346 36.8787 35.0391 37.2198C35.0391 37.2315 35.0539 37.2551 35.0539 37.2786C35.0986 37.5257 34.7703 37.4787 34.3674 37.2786C34.3225 37.2551 34.2928 37.2434 34.248 37.2198C34.0094 37.0906 33.7705 36.9256 33.5467 36.7374C32.9051 36.1844 32.9498 36.2668 32.7408 35.6783C32.532 35.09 32.5469 35.0312 32.2781 34.8781C32.0096 34.7134 32.0693 34.6075 32.1289 34.3486C32.1885 34.078 30.7709 32.8188 30.2039 32.7718C29.6219 32.7247 29.801 32.8895 29.5174 33.1484C29.2338 33.419 28.5922 33.6662 28.1295 33.9133C27.6668 34.1724 27.6967 34.3487 27.6967 35.0549C27.6967 35.749 27.443 35.7256 26.5776 35.9257C25.7122 36.1256 26.1299 35.3724 25.8614 35.2077C25.5928 35.0549 25.2793 34.278 25.1301 33.4542C24.9661 32.6189 24.8465 33.2779 24.0706 33.1012C23.3096 32.9249 23.6378 32.2776 23.1303 32.0541C22.6229 31.8306 22.429 31.9246 21.9514 32.1012C21.4739 32.2776 20.9665 32.0541 20.6532 31.7364C20.3548 31.4187 19.9518 31.6187 19.3997 31.5246C18.8475 31.4422 19.0266 31.3246 18.5343 31.2656C18.0419 31.195 18.579 31.6069 18.9223 32.007C19.2507 32.4071 19.6536 32.2071 20.8175 32.56C21.9815 32.913 20.9368 33.0661 20.4743 33.4308C20.0116 33.7957 19.6237 33.8428 18.9819 34.1134C18.3403 34.3959 18.1015 34.4194 17.43 34.631C16.7733 34.843 16.6241 34.6899 16.1765 34.5488C15.7288 34.4076 15.4304 33.7367 14.923 32.8778C14.4007 32.007 14.0425 31.4422 13.6546 31.0655C13.2665 30.689 13.3562 31.1479 13.4755 31.4187C13.6099 31.6776 13.8933 32.0306 14.1917 32.7131C14.5052 33.3839 14.4454 33.1484 14.6097 33.6309C14.7888 34.1017 15.6544 35.1371 16.1765 35.3607C16.6987 35.5961 17.9522 35.1841 18.579 35.1722C19.2206 35.1604 18.5343 35.4194 17.9673 36.4314C17.5345 37.1964 17.3106 37.0904 16.8778 37.2198C16.7437 37.2669 16.5794 37.3376 16.3704 37.467C15.5347 38.0083 15.4601 38.5968 15.3407 39.2791C15.3108 39.5146 15.3259 39.7263 15.3556 39.9381C15.3556 39.9617 15.3556 39.9852 15.3704 39.9969C15.3853 40.1146 15.4003 40.244 15.43 40.3618C15.4448 40.4323 15.4599 40.5146 15.4599 40.5971C15.4747 40.6677 15.4896 40.7499 15.4896 40.8325C15.5044 40.9384 15.5194 41.0678 15.5044 41.1856C15.5044 41.1975 15.5044 41.2209 15.4896 41.2327C15.4896 41.3268 15.4599 41.4091 15.4001 41.4916C15.3554 41.6093 15.2509 41.727 15.1464 41.8329C14.8329 42.1623 14.3853 42.4446 14.1466 42.6801C14.0868 42.739 14.0421 42.7978 14.0122 42.8448C13.9974 42.8683 13.9825 42.8919 13.9825 42.9155C13.9527 42.9743 13.9378 43.0331 13.9228 43.0802C13.8929 43.1625 13.878 43.2332 13.8632 43.3156C13.8034 43.5156 13.7288 43.7862 13.4751 44.3157C13.4304 44.3981 13.4005 44.4688 13.3558 44.5277C13.296 44.6218 13.2216 44.7041 13.1618 44.7631C13.1021 44.8337 13.0277 44.8806 12.953 44.9278C12.7292 45.0573 12.4906 45.0926 12.2366 45.1631C12.0726 45.2102 11.8935 45.2809 11.7294 45.3986C11.1624 45.8104 10.9085 45.8692 10.3267 46.0457C10.2521 46.0693 10.1624 46.1046 10.073 46.1281C9.28217 46.387 8.41655 45.9869 8.3271 45.6222C8.23765 45.2574 8.47632 45.2102 8.37183 44.61C8.28237 44.0099 7.4316 42.8097 7.13316 42.2212C6.83473 41.6329 7.02867 41.5153 7.52124 40.8916C7.99878 40.2561 7.17789 39.5734 6.71539 38.844C6.2527 38.1143 6.22301 38.5144 6.22301 37.9968C6.22301 37.479 6.17828 37.3024 5.65602 37.0907C5.1486 36.8788 4.83532 36.7495 3.95466 36.573C3.0742 36.3965 3.08904 36.7849 2.23846 36.6906C1.37304 36.5848 1.41777 36.7966 0.86562 36.7495C0.611911 36.7259 0.298631 36.573 0 36.3965V30.0306C0.313475 29.8422 0.835737 29.7364 1.55214 29.5363C2.62655 29.2422 2.44745 29.5011 3.38768 29.2892C4.3279 29.0774 5.47692 28.8658 6.11871 28.9009C6.77535 28.9362 6.67086 29.3127 6.67086 29.6069C6.67086 29.8893 6.83492 29.8424 7.65581 30.007C8.49155 30.1716 8.0439 30.3836 8.65561 30.4777C9.28237 30.5836 9.07338 30.3836 9.37182 29.9953C9.65541 29.6069 9.84936 29.9953 10.6402 30.3013C11.446 30.619 11.3863 30.4307 12.3863 30.3484C13.3712 30.2542 13.4607 30.3719 13.6845 30.2896C13.9083 30.2189 13.9382 29.4071 13.8038 29.0421C13.6546 28.6774 13.4159 28.9599 12.8935 28.9599C12.5503 28.9599 12.4308 28.901 12.4458 28.7598C12.4458 28.6776 12.4757 28.5716 12.5353 28.4302C12.5501 28.4067 12.5501 28.3833 12.5652 28.3714C12.6546 28.1713 12.7292 28.1242 12.9234 28.0654C13.0279 28.0301 13.1919 27.9948 13.4157 27.9124C13.4306 27.9007 13.4605 27.9007 13.4755 27.9007V27.8889C13.6845 27.83 13.9083 27.7948 14.1321 27.7831C14.5202 27.7478 14.8933 27.7478 15.1769 27.6183C15.2364 27.583 15.2814 27.5595 15.2962 27.5359C15.3857 27.4067 14.938 27.2889 14.6544 27.1358C14.5948 27.1124 14.5499 27.0888 14.5052 27.0535C14.3261 26.9006 14.3261 26.7594 14.3708 26.5946C14.4007 26.5005 14.4454 26.3945 14.4901 26.2768C14.5946 25.9591 14.2364 26.1827 13.8187 26.3709C13.4009 26.5593 13.8933 26.6298 13.7142 26.8887C13.6247 27.0181 13.4755 27.0064 13.3411 26.9357C13.2517 26.9004 13.1771 26.8301 13.1173 26.7475C13.0726 26.7122 13.0427 26.6768 13.0279 26.6415C12.9532 26.5123 12.8488 26.5123 12.6845 26.5946C12.5652 26.6415 12.4159 26.7358 12.207 26.8535C11.8636 27.0418 11.9831 27.183 12.013 27.4184C12.0279 27.4889 12.0279 27.5594 12.013 27.6418C12.013 27.689 11.9831 27.7359 11.9683 27.7831C11.8638 28.0301 11.6847 28.0537 11.5056 28.042C11.3265 28.042 11.1474 28.0184 11.0579 28.1478C10.864 28.4067 10.9982 28.6067 10.64 28.6539C10.2968 28.7127 10.4312 28.8658 10.2669 29.0657C10.1177 29.2657 9.75951 28.9127 9.69994 28.5245C9.64037 28.1361 9.04331 27.7125 8.98374 27.5123C8.92397 27.3124 8.25249 27.0771 7.89429 26.9828C7.55093 26.9004 7.77495 27.1829 8.05835 27.4535C8.34194 27.7125 8.87905 27.7948 8.92397 28.0772C8.95385 28.3714 8.68511 28.2185 8.47632 28.3833C8.26733 28.548 8.37183 28.8893 8.05835 28.995C7.73003 29.1128 7.77476 28.6774 7.84937 28.2892C7.92398 27.9124 7.46128 27.8419 7.13316 27.5947C6.79 27.3358 6.26754 27.1006 6.08864 26.9828C5.92457 26.877 5.46188 27.2888 4.95446 27.277C4.46208 27.2653 4.65603 27.1948 4.46208 27.3712C4.26814 27.5476 4.04412 27.8536 3.71599 27.9007C3.38768 27.9596 3.22361 28.1478 3.16385 28.4419C3.08924 28.748 2.80565 28.7715 2.31327 28.9362C1.82069 29.1009 1.14921 28.9009 0.731441 28.7832C0.313475 28.6774 0.388084 28.4301 0.507614 28.1713C0.552341 28.0891 0.567184 27.9714 0.612106 27.8418C0.686715 27.5712 0.80605 27.2416 1.22382 27.1241C1.38808 27.0769 1.50741 27.0652 1.6119 27.0652C1.62675 27.0535 1.62675 27.0535 1.62675 27.0535C1.92518 27.0418 2.0744 27.1242 2.41776 27.0535C2.88045 26.9476 2.73104 26.7711 2.7162 26.265C2.7162 26.2416 2.7162 26.218 2.70135 26.1944C2.64159 25.7943 2.02987 25.9474 1.94042 25.6532C1.86581 25.3472 2.47752 25.5473 3.53728 25.4178C3.61189 25.4061 3.6865 25.3942 3.74607 25.3706C4.149 25.2765 4.29822 25.0765 4.38767 24.8646C4.47712 24.6528 4.507 24.4176 4.67126 24.3115C5.04431 24.0645 5.26813 23.9819 5.40251 23.4879C5.55172 22.9938 6.04411 22.8053 6.49176 22.9467C6.58121 22.9819 6.64098 23.0172 6.67086 23.0643C6.77535 23.2291 6.5068 23.4644 6.53648 23.6879C6.56637 23.9821 7.01402 23.9234 7.29761 23.9821C7.56617 24.0292 8.74526 23.8646 9.14799 23.6291C9.46147 23.429 9.6853 23.2525 9.95385 23.0879C10.0134 23.0526 10.0732 23.0056 10.1478 22.9702C10.5208 22.7702 10.2372 22.6406 10.3269 22.5465C10.4015 22.4407 10.6999 22.17 10.5806 21.8758C10.4613 21.6286 10.0583 21.7464 9.80463 21.5934C9.77475 21.5698 9.74506 21.5347 9.71518 21.4993C9.56596 21.2992 9.67045 21.0756 9.80463 20.8638C9.8644 20.7696 9.92397 20.6754 9.98373 20.5813C10.0285 20.499 10.0285 20.4518 9.99857 20.4518C9.96869 20.4284 9.89408 20.4518 9.80463 20.4754C9.67045 20.5225 9.50619 20.5932 9.37182 20.6403C9.02866 20.7695 8.81967 21.0403 8.5062 21.4052C8.38686 21.5464 8.3271 21.664 8.31226 21.7817C8.29741 21.7936 8.29741 21.7936 8.29741 21.7936C8.25269 21.9818 8.31226 22.1583 8.32729 22.3819C8.35718 22.7466 7.6857 23.0996 7.37222 23.0526C7.20816 23.0173 7.11851 22.8997 7.05894 22.7585C7.02906 22.6408 7.01422 22.4996 6.99918 22.3938C6.96929 22.1701 6.77535 22.0289 6.52164 22.0996C6.26793 22.182 5.76051 22.3585 5.26813 22.2524C4.77556 22.1583 4.92497 21.6052 5.16364 21.1227C5.40251 20.6403 5.53669 20.7931 6.3277 20.4754C7.13355 20.1694 6.90953 20.0402 7.55132 19.6046C8.17808 19.1575 8.31245 18.8516 8.93921 18.4868C9.55092 18.1219 9.96889 17.9926 11.5208 17.863C12.7296 17.7572 12.4909 17.8866 12.64 18.1101C12.6548 18.1572 12.6997 18.2043 12.7741 18.2515C12.789 18.275 12.8189 18.2986 12.8488 18.3103C13.2218 18.5222 13.5054 18.5929 13.8636 18.6516C14.0575 18.6869 14.2814 18.7104 14.5499 18.7693C15.3259 18.9222 15.2513 19.1224 15.3409 19.2635C15.4454 19.4047 14.9978 19.6517 14.5948 19.6636H14.4157V19.6519C14.1321 19.6402 13.9681 19.5578 13.789 19.499C13.5652 19.4284 13.7144 19.6637 13.8636 19.805C13.9829 19.9108 14.162 19.9462 14.4456 19.9462C14.5202 19.9462 14.6247 19.9345 14.7142 19.9226C15.1618 19.8874 15.8036 19.6402 15.9976 19.6756C16.0722 19.6873 16.2214 19.6756 16.4005 19.6403C16.7138 19.5696 17.1466 19.4757 17.4601 19.405C17.9524 19.2872 17.9524 19.0402 18.1466 18.9344C18.2958 18.8402 18.6241 18.8167 19.3403 18.8638C19.4597 18.8755 19.6089 18.8755 19.7583 18.8874C20.7581 18.9462 20.6536 18.805 21.2954 18.6048C21.5639 18.5224 21.7581 18.5107 21.9221 18.5342C22.161 18.5578 22.3549 18.64 22.6385 18.64C23.1309 18.64 23.8473 18.4046 24.086 18.1458C24.1008 18.1341 24.1008 18.1222 24.1159 18.1222C24.3249 17.8869 24.4293 17.9929 24.8024 17.8162C25.2053 17.628 25.0858 17.6516 26.1454 17.4987C27.2198 17.3457 27.5034 17.7106 27.966 17.4987C28.4285 17.2867 27.7422 16.8044 27.8764 16.6749C27.9957 16.5338 29.0254 16.6513 29.4731 16.4985C29.9209 16.3336 29.6522 16.1218 29.8612 15.9337C30.0701 15.7337 30.8908 15.6513 31.7266 15.5925C32.5772 15.5218 32.5324 15.7571 32.9055 15.6747C33.2637 15.6042 33.1592 15.3922 33.4576 15.3453C33.7561 15.31 33.7561 15.1803 33.9352 15.1098C34.1143 15.0392 34.726 15.051 35.2035 15.2863C35.6961 15.5216 35.7855 15.251 36.2928 15.2863C36.8002 15.3216 36.5763 15.6745 36.5763 15.8393C36.5763 16.0041 36.2033 16.3453 35.89 16.4512C35.5916 16.5689 35.8601 16.7218 36.3078 16.6983C36.7554 16.6747 37.039 16.5453 37.5763 16.5101C38.0986 16.4865 38.2925 16.5689 38.7851 16.7454C39.2775 16.9217 39.6955 16.9217 40.0088 16.8631C40.3371 16.7925 40.2326 16.5689 40.4117 16.5219C40.5908 16.4631 41.4863 16.7572 41.9638 16.9102C42.4414 17.0631 41.8892 17.2396 41.9638 17.4044C42.0234 17.5572 42.5757 17.8396 42.9337 17.8044C43.2769 17.7691 43.1427 17.4868 43.7097 17.5102C44.2917 17.5338 44.4558 17.5338 45.0677 17.3808C45.6945 17.2395 45.6497 17.1219 46.5601 17.1689C47.4704 17.2278 47.4556 17.2866 47.7689 17.3219C48.0823 17.3571 48.2165 17.2512 48.8433 17.4042C49.455 17.5453 49.261 17.8983 49.4253 17.969C49.5894 18.0395 49.8581 18.016 50.4997 17.9807C50.6788 17.969 50.7833 17.969 50.8429 17.9807C51.022 18.0043 50.9772 18.1101 51.2458 18.2513C51.6188 18.4512 51.3802 18.4983 51.6188 18.4631C51.6636 18.4631 51.7233 18.4514 51.7829 18.4395C52.0067 18.4042 52.2903 18.3337 52.7081 18.3101C53.2602 18.2632 53.2454 18.3218 53.5587 18.4866C53.8721 18.6396 54.1259 18.616 54.4542 18.4983C54.7675 18.369 54.5436 18.2513 54.5884 18.2513C54.6481 18.2513 55.2299 18.3454 56.0508 18.4277C56.2897 18.4512 56.4688 18.4865 56.6329 18.5219C57.0059 18.6043 57.2448 18.7101 57.767 18.8632C57.9311 18.9102 58.0655 18.9573 58.1551 19.016C58.4834 19.1809 58.4536 19.3573 58.7073 19.5102C59.0504 19.7103 59.0504 19.5455 59.3639 19.4397C59.3938 19.428 59.4086 19.428 59.4235 19.428C59.7073 19.3456 59.8567 19.5339 60.0954 19.7457Z" fill="white"/>
<path d="M46.0921 26.5954C46.3007 26.6559 46.6984 26.9099 46.9377 26.8974C47.1769 26.8848 47.3046 27.1364 47.113 27.1615C46.9216 27.1866 46.2834 27.4257 46.2834 27.4257C46.2834 27.4257 46.092 27.237 45.9802 27.4257C45.8685 27.6143 45.8047 27.7528 45.8367 27.866C45.8685 27.9792 46.092 28.3063 45.9644 28.4699C45.8367 28.6334 45.6613 28.7215 45.6613 28.9228C45.6613 29.1241 45.8209 29.338 45.5974 29.4261C45.374 29.5142 45.1507 29.5393 44.9591 29.5897C44.7677 29.64 44.6242 29.6525 44.5443 29.791C44.4646 29.9294 44.273 30.1307 43.8742 30.1181C43.4754 30.1055 43.4754 29.854 43.1084 30.093C42.7414 30.332 42.7256 30.4705 42.534 30.4075C42.3426 30.3446 42.4861 30.2565 42.534 30.0175C42.5818 29.7785 41.8799 29.8413 42.518 29.5646C43.1562 29.2878 43.1562 29.2501 43.5869 29.1997C44.0177 29.1493 44.257 29.3129 44.4326 29.0235C44.608 28.7341 44.4326 28.6209 44.7836 28.6083C45.1345 28.5957 45.358 28.7215 45.4218 28.407C45.4857 28.0925 45.4379 27.8282 45.4218 27.6269C45.4058 27.4257 45.3101 27.237 45.5974 27.1615C45.8847 27.0861 45.9166 27.2244 45.9484 27.0483C45.9804 26.8723 45.789 26.5074 46.0921 26.5954Z" fill="white"/>
<path d="M39.6785 33.4146C39.9816 33.4523 40.1251 33.88 40.0294 34.0562C39.9337 34.2324 39.838 34.4336 40.1091 34.4714C40.3804 34.5091 40.5718 34.5342 40.5718 34.6853C40.5718 34.8362 40.6835 34.5217 40.891 34.9243C41.0984 35.3269 40.907 35.3899 41.1462 35.6918C41.3855 35.9938 41.6728 36.1447 41.3376 36.2956C41.0027 36.4466 41.2579 36.6101 40.9068 36.522C40.5558 36.4339 40.6994 36.4843 40.524 36.2202C40.3484 35.956 40.2369 36.1698 40.0773 36.1573C39.9177 36.1447 39.8699 36.1447 39.9976 35.9687C40.1251 35.7925 40.189 35.8051 40.0455 35.6038C39.9019 35.4025 40.1251 35.1635 39.9177 35.1258C39.7103 35.088 39.6464 35.3648 39.2794 35.541C38.9125 35.7172 38.3701 35.7674 38.3861 35.7045C38.4021 35.6417 38.6095 35.5536 38.9445 35.2265C39.2794 34.8994 39.4869 35.1007 39.4232 34.5975C39.3593 34.0942 39.1361 34.2327 39.3435 33.8804C39.5509 33.5277 39.6785 33.4146 39.6785 33.4146Z" fill="white"/>
<path d="M38.657 36.2701C38.8984 36.4604 39.2154 36.4085 39.1197 36.5972C39.024 36.7858 38.7396 36.8111 38.8978 36.9998C39.056 37.1884 39.1996 37.4653 39.407 37.4401C39.6144 37.415 39.5984 37.2892 40.109 37.2892C40.6195 37.2892 40.9387 37.2011 40.9705 37.3646C41.0023 37.5282 40.747 37.5408 40.4121 37.7798C40.0771 38.0189 39.742 38.2579 40.0133 38.4088C40.2846 38.5597 40.3961 38.8365 40.3004 38.9372C40.2047 39.038 40.109 39.1385 40.3322 39.2644C40.5556 39.3902 41.6246 39.3524 41.3693 39.6543C41.114 39.9563 40.4918 40.1197 39.8377 40.1324C39.1836 40.145 39.7094 39.9939 38.3855 39.8933C37.0617 39.7926 36.8383 40.0569 35.9129 39.7047C34.9875 39.3524 34.3813 39.6543 33.8707 39.0127C33.3602 38.3711 33.5676 38.6856 32.9293 38.0189C32.2912 37.3521 32.5944 37.3521 32.0518 37.0879C31.5094 36.8237 31.0467 36.4462 31.4135 36.4462C31.7805 36.4462 31.6049 36.1065 32.7377 36.8488C33.8705 37.5912 33.5674 37.5533 34.3971 37.9938C35.2268 38.4341 35.4979 38.4844 35.8012 38.4341C36.1043 38.3837 36.551 38.4341 36.2639 38.1447C35.9768 37.8553 35.8172 37.4904 36.0565 37.4276C36.2957 37.3648 36.2799 37.6793 36.6787 37.3395C37.0775 36.9998 37.0775 36.9118 37.4285 36.7985C37.7795 36.6853 37.5881 36.7985 37.923 36.6349C38.2582 36.4714 38.3857 36.0563 38.657 36.2701Z" fill="white"/>
<path d="M43.0443 37.7295C43.2179 37.9056 43.507 38.1321 43.6345 38.3208C43.7622 38.5094 44.0015 38.1609 44.4642 38.1717C44.9269 38.1825 45.613 38.3836 45.9001 38.4843C46.1872 38.5851 46.682 38.6479 46.9851 38.975C47.2882 39.3021 47.5116 39.1135 47.5275 39.4406C47.5435 39.7677 47.6071 39.73 47.8784 39.9187C48.1497 40.1073 48.1976 40.4597 47.7189 40.3086C47.2402 40.1577 47.0966 39.6419 46.5861 39.6921C46.0755 39.7425 46.2829 39.8557 45.8841 39.9185C45.4853 39.9813 45.3097 39.8681 44.8312 39.843C44.3525 39.8179 44.0015 39.9438 44.2249 39.604C44.4484 39.2643 44.6079 39.2518 43.8261 39.0001C43.0443 38.7485 42.7412 38.8743 42.7412 38.6102C42.7412 38.346 42.8689 38.3208 42.5656 38.0944C42.2625 37.868 42.1668 37.7044 42.3582 37.5911C42.5498 37.4779 42.9326 37.6163 43.0443 37.7295Z" fill="white"/>
<path d="M43.9695 41.3529C44.4961 41.5669 44.7035 41.9945 44.9588 41.9191C45.2141 41.8436 45.1184 41.7178 45.3098 41.2648C45.5012 40.8119 45.5172 40.3465 45.7564 40.5351C45.9957 40.7238 45.7725 41.0922 46.1553 41.21C46.5383 41.3278 46.618 41.4159 46.6976 41.7682C46.7773 42.1204 46.8572 42.0072 47.256 42.372C47.6549 42.7369 48.0131 42.674 48.0812 43.0891C48.1494 43.5043 48.8195 43.932 48.8515 44.3597C48.8834 44.7874 48.9793 45.0894 48.5803 45.6304C48.1814 46.1713 48.0219 46.4482 47.8941 46.6746C47.7664 46.901 47.3836 47.0144 46.9687 47.0144C46.5539 47.0144 46.3146 46.8759 46.0594 46.9263C45.8041 46.9767 45.6285 47.2283 45.3254 47.0521C45.0223 46.8759 44.8467 46.6495 44.751 46.5111C44.6553 46.3726 44.6074 45.9072 44.1607 45.9576C43.7141 46.0079 43.7779 46.184 43.5067 45.9576C43.2354 45.7312 43.4268 45.5424 42.6291 45.4418C41.8315 45.3411 41.624 45.2909 41.2889 45.3537C40.9539 45.4167 40.6028 45.5046 40.236 45.7312C39.869 45.9576 39.2946 45.8444 38.9756 45.9576C38.6565 46.0708 38.178 46.3224 37.8268 46.1715C37.4758 46.0206 37.6034 45.9451 37.6194 45.5927C37.6354 45.2405 37.6034 45.4795 37.3801 44.8756C37.1567 44.2718 37.2524 44.3599 37.0452 44.0705C36.8377 43.7811 36.6782 43.9195 36.9655 43.5043C37.2526 43.0891 37.1569 43.0012 37.3165 42.8627C37.476 42.7244 37.6196 42.9004 38.162 42.6111C38.7043 42.3217 38.8639 42.4475 39.3586 42.2966C39.8532 42.1456 39.9649 41.5669 40.268 41.3907C40.5711 41.2145 40.651 41.0762 40.8742 41.0762C41.0975 41.0762 41.353 41.1769 41.7518 41.3026C42.1506 41.4284 42.0709 41.4409 42.4059 41.1516C42.7408 40.8623 42.4059 40.5855 43.0121 40.6359C43.6184 40.6862 43.8418 40.6108 43.9215 40.8875C44.0016 41.1643 43.9695 41.3529 43.9695 41.3529Z" fill="white"/>
<path d="M55.0422 47.291C55.3613 46.9639 55.5209 46.9262 55.4092 46.5488C55.2974 46.1714 55.3293 45.8754 55.7441 46.2122C56.1589 46.549 56.6216 46.7377 56.9408 46.7501C57.2599 46.7628 58.0257 46.9514 57.2439 47.4169C56.4621 47.8824 56.6056 47.5553 55.9836 48.2471C55.3615 48.9389 55.84 48.9516 55.0902 49.2913C54.3404 49.6311 53.5107 49.782 53.6703 49.48C53.8299 49.178 53.75 49.178 54.4361 48.7754C55.1222 48.3728 55.5689 48.0709 55.5689 47.7312C55.5689 47.3914 55.0422 47.291 55.0422 47.291Z" fill="white"/>
<path d="M16.9429 43.8941C16.6558 43.5669 16.6558 43.4664 16.6238 42.938C16.592 42.4095 16.3685 42.1579 16.6238 41.856C16.8791 41.554 17.5492 41.0509 17.8045 40.6986C18.0597 40.3464 18.1236 39.5916 18.2832 40.2709C18.4427 40.9503 18.9533 41.3529 18.1875 42.2588C17.4216 43.1644 16.9429 43.8941 16.9429 43.8941Z" fill="white"/>
<path d="M1.59416 25.1739C1.5303 25.0732 1.8176 24.7462 1.8176 24.7462C1.8176 24.7462 2.16857 24.5953 2.07287 24.0416C1.97717 23.4881 1.9133 23.8153 1.65803 23.2868C1.40276 22.7584 1.01975 22.8591 1.40276 22.5068C1.78557 22.1545 2.23244 21.6261 2.32814 22.0538C2.42385 22.4815 2.2006 22.7584 2.42385 22.9597C2.64728 23.161 3.09396 23.2026 3.34923 23.534C3.6045 23.8655 4.62559 23.9913 3.85977 24.419C3.09396 24.8467 2.74298 24.5699 2.45588 24.8719C2.16877 25.1739 1.59416 25.1739 1.59416 25.1739Z" fill="white"/>
<path d="M0.573401 24.7715C1.08394 24.5451 1.27047 24.5953 1.24098 24.1927C1.21148 23.7901 1.56246 23.4379 1.02008 23.4126C0.477698 23.3875 0.318129 23.639 0.254262 23.8152C0.190395 23.9914 0.190395 24.0416 0.349965 24.2178C0.509534 24.394 0.54137 24.6455 0.477698 24.7713C0.414027 24.8971 0.573401 24.7715 0.573401 24.7715Z" fill="white"/>
<path d="M99.9928 41.0304C99.894 41.2158 99.8393 41.4327 99.8747 41.8556C99.9383 42.6108 99.9702 42.5348 99.7792 42.9129C99.5872 43.29 98.886 43.3402 98.311 43.6172C97.7372 43.8941 97.7053 43.6674 97.3223 44.4226C96.9395 45.1771 97.1622 44.7749 96.8429 45.4288C96.5247 46.0829 96.9712 45.7559 96.0452 46.1331C95.1202 46.5103 94.769 46.1833 94.6735 46.41C94.578 46.6367 95.2157 46.4602 94.5464 46.9386C93.8759 47.4161 93.5884 47.5424 93.1737 47.7433C92.7591 47.9449 92.5034 48.1716 92.5999 48.599C92.6954 49.0263 93.1737 49.0012 92.6317 49.4046C92.1068 49.7935 91.8806 49.4306 91.7216 49.9968H89.2171V49.9322C89.2171 49.3284 89.1216 49.7818 89.5046 48.7503C89.8876 47.7182 89.249 48.0702 89.5683 46.9386C89.8876 45.806 89.8239 44.598 90.1421 43.7675C90.4614 42.9378 91.1636 43.1644 90.4614 42.4091C89.7591 41.6546 89.632 41.7801 89.0263 41.2765C88.4195 40.7738 88.8025 40.8742 88.4513 40.2702C88.1001 39.6663 87.8775 39.7165 87.59 39.264C87.3025 38.8106 87.1435 38.962 87.4298 38.2067C87.7173 37.4522 87.0798 37.4773 87.7173 37.2506C88.356 37.0248 88.2605 36.471 88.1638 36.2694C88.0683 36.0687 88.6433 35.9925 87.749 35.8922C86.8558 35.792 86.6001 36.0176 86.282 35.5904C85.9627 35.163 86.2171 35.0868 85.548 34.8359C84.8775 34.5841 84.1435 34.5841 83.8878 34.3825C83.6334 34.1809 83.6334 34.1809 83.6334 34.1809C83.6334 34.1809 84.1117 34.0304 83.0265 33.93C81.9425 33.8288 81.1437 33.93 80.6017 33.3261C80.0598 32.7222 80.1869 33.0743 80.0598 32.5206C79.9314 31.9668 79.7723 31.9668 79.2621 31.6147C78.7508 31.2625 78.7508 31.0609 78.2725 30.9104C77.7941 30.759 77.6986 30.8102 77.6986 30.8853C77.6986 30.9605 77.6668 31.2625 78.1135 31.5394C78.5601 31.8163 78.5918 32.0681 78.5918 32.1935C78.5918 32.3189 77.985 32.4704 77.985 32.4704C77.985 32.4704 77.985 32.319 77.7939 31.9668C77.602 31.6147 77.5383 31.439 77.1553 31.0107C76.7723 30.5833 76.677 30.5331 76.677 30.5331C76.677 30.5331 76.2305 29.9794 75.4645 29.25C74.6986 28.5197 74.4748 28.9731 74.4748 28.1425C74.4748 27.312 74.6668 27.312 74.4748 26.733C74.2838 26.155 73.8373 25.8783 74.2203 25.7769C74.6033 25.6767 74.826 25.526 74.1248 25.0475C73.4227 24.569 73.167 24.8208 72.9114 24.1667C72.6569 23.5127 73.1989 23.5629 72.1465 23.2608C71.0932 22.9588 70.9659 22.707 70.4864 22.5314C70.0081 22.355 69.7206 22.2545 69.7206 22.2545C69.7206 22.2545 69.817 22.1792 68.6684 22.1031C67.5196 22.0278 67.6469 21.6005 66.7856 21.8774C65.9776 22.1372 65.8151 22.1972 65.7969 22.2036C65.8219 22.1794 66.2514 21.7529 65.4448 21.8013C64.6153 21.8523 64.8073 22.0029 64.7755 22.3049C64.7436 22.6069 64.871 22.959 64.2971 23.1355C63.7222 23.3111 62.8927 23.7896 63.212 23.286C63.5313 22.7833 64.329 22.4312 64.0415 22.3047C63.754 22.1794 63.1483 22.5817 63.0835 22.1794C63.0198 21.7762 63.1483 21.5755 62.4778 21.5504C61.8075 21.5253 61.2653 21.2986 61.7757 21.1221C62.2858 20.9465 62.7653 21.0217 62.9245 20.5943C63.0835 20.166 64.2641 20.0657 62.9563 20.0907C61.6485 20.1158 61.0735 20.1158 61.2337 19.9142C61.3929 19.7135 61.3292 19.3362 62.2542 19.4366C63.1804 19.537 63.1804 19.235 62.9563 19.0343C62.4587 18.5854 61.6485 18.5558 62.286 18.279C62.9247 18.0021 63.3075 17.8266 63.9143 17.7252C64.52 17.625 65.1585 17.8266 66.1471 18.0272C67.1368 18.2288 68.7323 18.0523 69.4663 18.2288C70.2002 18.4053 70.5502 18.7574 70.7743 18.7325C70.9981 18.7064 71.6356 18.1786 72.2743 18.1786C72.9117 18.1786 73.2311 18.1033 74.5401 18.2288C75.8481 18.3542 77.124 18.4053 77.1559 18.6562C77.1877 18.908 77.1877 19.0343 77.6672 19.0343C78.1455 19.0343 78.5603 18.8076 78.8478 19.1598C79.1342 19.5119 79.5808 19.7637 79.5172 19.4868C79.4535 19.2099 79.1342 18.9832 79.3898 18.8829C79.6455 18.7825 80.3795 18.7325 80.5705 18.7825C80.7625 18.8327 81.3681 18.908 81.5601 18.8829C81.7511 18.8578 81.6238 18.606 82.2613 18.7574C82.9 18.908 82.9953 19.2852 83.1238 19.3103C83.2511 19.3363 83.5386 18.9242 83.5703 18.6517C83.6021 18.3793 83.8884 18.3793 83.3146 18.0272C82.7408 17.6752 83.259 17.2476 83.6703 17.3983C84.0804 17.5496 83.825 17.7505 84.2396 18.0774C84.6545 18.4053 84.7191 18.6813 85.0054 18.5811C85.2929 18.4806 85.1337 18.0523 85.5167 18.3795C85.8998 18.7066 85.9951 18.5426 86.3462 18.486C86.6974 18.4304 86.4099 18.2539 86.8248 18.4304C87.2396 18.606 87.9417 18.8076 87.4304 19.1347C86.9203 19.4618 86.1544 19.4116 85.6123 19.6635C85.0691 19.9143 85.2294 19.839 85.0691 20.141C84.9101 20.4431 84.9736 20.4682 84.3363 20.5944C83.6976 20.7198 83.5056 20.6196 83.5386 21.0469C83.5705 21.4743 83.5056 21.5254 83.283 21.7512C83.0591 21.9779 83.1875 22.1795 83.4422 22.2799C83.6978 22.3804 83.9853 22.2046 83.9853 22.5067C83.9853 22.8087 84.4636 23.0345 85.1023 23.0345C85.7398 23.0345 86.0273 23.1607 86.4103 23.5381C86.7931 23.9152 86.2501 23.9403 86.8886 24.4189C87.5273 24.8964 88.1327 25.1232 88.2294 24.6958C88.3249 24.2675 88.2294 24.1671 88.3249 23.6645C88.4204 23.1609 89.0273 23.1107 88.7079 22.6573C88.3886 22.2048 87.9103 22.0032 88.3568 21.7514C88.8033 21.5005 88.2613 21.2675 89.0273 21.1447C89.7931 21.022 90.3034 20.9216 90.6226 21.3741C90.9407 21.8275 90.5907 22.1293 90.9089 22.3302C91.2282 22.5318 92.2179 22.2297 92.4089 22.0532C92.6009 21.8777 93.1431 21.9026 93.3351 22.5569C93.5259 23.2109 93.6532 23.3874 93.9407 23.4628C94.2282 23.5381 94.2282 23.6895 94.5794 23.9403C94.9306 24.1922 95.5999 24.5954 94.5794 24.6707C93.5579 24.746 92.7284 24.6456 92.3454 24.9225C91.9626 25.1985 91.9306 24.9978 92.1864 25.375C92.4409 25.7521 92.2501 25.5003 92.4409 25.9788C92.6329 26.4574 93.5897 26.4574 92.8874 26.7843C92.1862 27.1114 92.3136 27.1866 91.8987 27.0863C91.4839 26.9852 91.3886 26.2628 90.9091 26.8507C90.4308 27.4384 90.4943 27.6643 90.0796 27.8408C89.6648 28.0173 89.6331 27.6643 89.2501 28.218C88.8671 28.7718 89.474 28.8219 88.6126 29.4509C87.7501 30.08 87.3353 29.778 87.2718 30.3066C87.2081 30.8353 87.623 31.4643 87.3992 31.5896C87.1765 31.7159 87.2081 31.69 86.9525 31.3378C86.698 30.9858 86.8253 30.7849 85.9322 30.7339C85.0378 30.6837 85.1027 30.5082 84.7515 30.8102C84.4003 31.112 84.8787 31.2125 83.889 31.112C82.9006 31.0109 82.7732 30.0799 82.5812 31.1622C82.3904 32.2437 82.3586 32.37 82.6767 32.672C82.9961 32.974 83.8574 33.7034 84.2404 33.3763C84.6232 33.0492 84.1449 32.6469 84.8789 32.7724C85.6128 32.8978 85.8039 32.7473 85.6765 33.0745C85.5494 33.4014 84.5595 33.4516 85.3572 33.7536C86.155 34.0555 86.8253 33.7034 86.889 34.181C86.9527 34.6595 86.7935 34.7849 86.8253 35.0618C86.8572 35.3387 87.0162 35.5403 87.7503 35.5403C88.4845 35.5403 88.4527 35.3136 88.6447 35.6156C88.8357 35.9177 89.4423 35.767 89.697 35.3387C89.9527 34.9113 90.1435 34.4328 90.5265 34.9365C90.9095 35.4401 90.9741 35.5403 91.356 35.3387C91.739 35.1381 91.739 35.1381 91.739 35.1381C91.739 35.1381 92.1548 34.836 92.5048 35.0869C92.856 35.3387 93.431 35.0618 93.5581 35.414C93.6853 35.767 93.4944 35.8172 94.0364 35.9428C94.5796 36.069 95.2171 35.8674 95.5362 36.2197C95.8556 36.5719 94.9942 36.3452 95.9192 36.7735C96.8442 37.2009 97.1317 37.2511 97.068 37.528C97.0044 37.8049 97.26 37.855 98.0895 38.0065C98.919 38.157 98.7907 38.0818 99.461 38.4841C99.6508 38.5979 99.8292 38.666 99.994 38.709V41.0304H99.9928Z" fill="white"/>
</g>
<path d="M14.4162 19.6642V19.6525C14.4013 19.4525 14.3416 19.2642 14.2521 19.0994C14.1626 18.9229 14.0431 18.7817 13.864 18.6523C13.8492 18.617 13.7894 18.5818 13.7447 18.5465C13.5357 18.3934 13.297 18.2759 13.0134 18.1933C12.9687 18.1816 12.924 18.1698 12.8791 18.1698C12.8045 18.1345 12.715 18.1227 12.6404 18.111C12.4763 18.0875 12.2972 18.0757 12.133 18.0757C11.8197 18.0757 11.5213 18.111 11.2377 18.1933C10.9541 18.2757 10.7154 18.3933 10.5064 18.5465C10.2826 18.6876 10.1183 18.8761 9.98415 19.0996C9.86482 19.323 9.80505 19.5819 9.80505 19.8644V22.4063C9.80505 22.6652 9.84978 22.9004 9.95427 23.0888C9.95427 23.1122 9.96912 23.1357 9.98415 23.1593C10.1185 23.3829 10.2826 23.5713 10.5064 23.7241C10.7154 23.8771 10.9541 23.9946 11.2377 24.0772C11.5213 24.1479 11.8197 24.1949 12.133 24.1949C12.4314 24.1949 12.73 24.1479 13.0134 24.0772C13.297 23.9948 13.5357 23.8773 13.7447 23.7241C13.9685 23.5713 14.1328 23.3829 14.2521 23.1593C14.3714 22.9475 14.446 22.6886 14.446 22.4063V19.8644C14.446 19.7935 14.446 19.7348 14.4162 19.6642ZM13.0433 22.3943C13.0433 22.6414 12.9687 22.8414 12.8044 22.9826C12.6253 23.1354 12.4015 23.2061 12.133 23.2061C11.8494 23.2061 11.6257 23.1354 11.4466 22.9826C11.2824 22.8413 11.1929 22.6414 11.1929 22.3943V19.8876C11.1929 19.6523 11.2675 19.4641 11.4168 19.3229C11.4168 19.3112 11.4316 19.2993 11.4466 19.2876C11.4765 19.2642 11.4914 19.2523 11.5213 19.2406C11.5361 19.2171 11.566 19.2054 11.5959 19.1935C11.7451 19.0994 11.9242 19.0641 12.133 19.0641C12.4015 19.0641 12.6255 19.1348 12.8044 19.2876C12.9685 19.429 13.0433 19.6289 13.0433 19.8878V22.3943Z" fill="white"/>
<path d="M17.9528 18.1219L16.4009 19.1928V20.3696L17.9528 19.3105V24.1352H19.3407V18.1219H17.9528Z" fill="white"/>
<path d="M21.9224 18.1219V20.0637H23.2505V19.1105H25.2651L22.7878 24.1353H24.295L26.7721 19.1105V18.1219H21.9224Z" fill="white"/>
<path d="M32.5029 19.0987C32.3836 18.8752 32.2193 18.6867 31.9955 18.5456C31.7867 18.3926 31.5478 18.275 31.2642 18.1925C30.9806 18.1101 30.6822 18.0748 30.3838 18.0748C30.0703 18.0748 29.7719 18.1101 29.4883 18.1925C29.2047 18.2749 28.966 18.3924 28.757 18.5456C28.5332 18.6867 28.3689 18.8752 28.2496 19.0987C28.1152 19.3222 28.0557 19.5811 28.0557 19.8635V22.4055C28.0557 22.6879 28.1152 22.9467 28.2496 23.1584C28.3689 23.3821 28.5332 23.5704 28.757 23.7232C28.966 23.8763 29.2047 23.9938 29.4883 24.0763C29.7719 24.147 30.0703 24.194 30.3838 24.194C30.6822 24.194 30.9806 24.147 31.2642 24.0763C31.5478 23.9939 31.7865 23.8764 31.9955 23.7232C32.2193 23.5704 32.3836 23.3821 32.5029 23.1584C32.6373 22.9467 32.6968 22.6878 32.6968 22.4055V19.8635C32.6968 19.5811 32.6371 19.3222 32.5029 19.0987ZM31.2941 22.3936C31.2941 22.6406 31.2195 22.8407 31.0553 22.9819C30.8762 23.1347 30.6523 23.2054 30.3838 23.2054C30.1002 23.2054 29.8764 23.1347 29.7123 22.9819C29.5332 22.8406 29.4437 22.6406 29.4437 22.3936V19.8869C29.4437 19.628 29.5334 19.4281 29.7123 19.2867C29.8764 19.134 30.1004 19.0633 30.3838 19.0633C30.6523 19.0633 30.8762 19.134 31.0553 19.2867C31.2195 19.4281 31.2941 19.628 31.2941 19.8869V22.3936Z" fill="white"/>
<path d="M44.1876 21.57C44.0682 21.3463 43.919 21.1581 43.7249 21.0052C43.5458 20.8523 43.322 20.7346 43.0833 20.6522C42.8444 20.5698 42.6057 20.5344 42.3372 20.5344C42.2475 20.5344 42.1581 20.5344 42.0536 20.5461C41.9641 20.5579 41.8745 20.5815 41.77 20.6049L43.3667 18.1219H41.8446L40.2329 20.7226C40.0688 21.005 39.9194 21.2756 39.7853 21.5347C39.6509 21.7936 39.5913 22.0523 39.5913 22.3348C39.5913 22.6289 39.6509 22.8995 39.7704 23.1232C39.8897 23.3586 40.0688 23.5468 40.2778 23.7115C40.4866 23.8646 40.7405 23.9821 41.0388 24.0646C41.3224 24.147 41.6356 24.194 41.9641 24.194C42.3073 24.194 42.6206 24.147 42.9042 24.0646C43.2026 23.9822 43.4415 23.8529 43.6653 23.6998C43.8743 23.5351 44.0384 23.3351 44.1579 23.1115C44.2923 22.8761 44.3518 22.6174 44.3518 22.3114C44.3516 22.0406 44.2921 21.7936 44.1876 21.57ZM42.6804 22.9704C42.4864 23.1232 42.2475 23.2057 41.9641 23.2057C41.6806 23.2057 41.4419 23.1233 41.2628 22.9704C41.0837 22.8173 40.9792 22.6055 40.9792 22.3231C40.9792 22.0406 41.0837 21.829 41.2628 21.6758C41.4419 21.523 41.6807 21.4404 41.9641 21.4404C42.2626 21.4404 42.5014 21.5228 42.6804 21.6875C42.8595 21.8404 42.9489 22.0523 42.9489 22.3229C42.9489 22.6055 42.8595 22.8171 42.6804 22.9704Z" fill="white"/>
<path d="M50.3952 21.5813V21.5695C50.3801 21.4754 50.3653 21.3694 50.3354 21.2753C50.2608 21.0047 50.0669 20.7457 49.7682 20.5103C49.6042 20.381 49.41 20.2869 49.1714 20.2162C48.9475 20.1339 48.6639 20.0985 48.3356 20.0985C48.0819 20.0985 47.8581 20.1338 47.6493 20.1926C47.4403 20.2514 47.2911 20.3221 47.2016 20.4045V19.1101H50.2759V18.1215H45.9333V21.5225H47.2016C47.2614 21.4047 47.3509 21.287 47.4852 21.1929C47.6345 21.0869 47.8434 21.0281 48.1268 21.0281C48.4702 21.0281 48.7089 21.1222 48.8432 21.3106C48.9774 21.4871 49.0372 21.7107 49.0522 22.0284V22.1108C49.0522 22.299 49.0374 22.4755 49.0075 22.6284C48.9628 22.7814 48.8882 22.9109 48.7538 23.0052C48.5895 23.1344 48.3807 23.2051 48.0972 23.2051C47.7987 23.2051 47.5897 23.1344 47.4405 23.0052C47.2913 22.8756 47.2017 22.6991 47.1569 22.4638H45.769V22.4992C45.7987 22.6993 45.8437 22.9111 45.9183 23.111C45.9929 23.3229 46.1571 23.5229 46.3958 23.7111C46.5599 23.8407 46.7839 23.9466 47.0673 24.0524C47.3509 24.1467 47.694 24.1937 48.097 24.1937C48.4999 24.1937 48.8282 24.1467 49.1118 24.0524C49.3803 23.9466 49.6044 23.8407 49.7833 23.6994C50.0518 23.476 50.2309 23.2406 50.3204 22.9936C50.4098 22.7464 50.4546 22.4523 50.4546 22.1111C50.4548 21.9343 50.4399 21.7578 50.3952 21.5813Z" fill="white"/>
<path d="M51.7837 18.1219V20.0637H53.1118V19.1105H55.1264L53.7983 21.7936L52.6491 24.1353H54.1563L55.6337 21.1346V21.1229H55.6487L56.6337 19.1107V18.1221L51.7837 18.1219Z" fill="white"/>
<path d="M62.5723 19.4635C62.5425 19.3457 62.5126 19.2399 62.453 19.134C62.3337 18.9103 62.1546 18.7103 61.9456 18.5573C61.7368 18.4043 61.4829 18.2749 61.1845 18.1925C60.9009 18.1218 60.5876 18.0748 60.2593 18.0748C59.9161 18.0748 59.6026 18.1218 59.319 18.2042C59.0206 18.2866 58.7819 18.4041 58.5581 18.5691C58.3938 18.6983 58.2597 18.8396 58.1552 19.016C58.1104 19.0631 58.0806 19.1102 58.0507 19.1574C57.9313 19.3927 57.8716 19.6633 57.8716 19.9458V19.9575C57.8716 20.2399 57.9313 20.487 58.0507 20.6989C58.1552 20.9225 58.3044 21.1107 58.4983 21.2636C58.6774 21.4166 58.9013 21.5227 59.1399 21.6049C59.3788 21.6872 59.6323 21.7343 59.886 21.7343C59.9755 21.7343 60.08 21.7224 60.1696 21.7107C60.2741 21.6989 60.3636 21.6872 60.4532 21.6519L58.8714 24.135H60.3786L62.0053 21.5345C62.0053 21.5228 62.0202 21.511 62.0202 21.4993C62.1247 21.3228 62.2292 21.158 62.3186 20.9932C62.3634 20.8991 62.3932 20.8167 62.438 20.7343C62.5425 20.5224 62.602 20.3106 62.6171 20.087C62.6319 20.04 62.6319 19.9812 62.6319 19.9341C62.6319 19.7694 62.6171 19.6163 62.5723 19.4635ZM60.9606 20.5931C60.7667 20.7458 60.5427 20.8165 60.2593 20.8165C59.946 20.8165 59.7071 20.7458 59.528 20.5812C59.4087 20.4753 59.3341 20.3342 59.3042 20.1692H59.2892C59.2892 20.0987 59.2741 20.0282 59.2741 19.9458C59.2741 19.734 59.3188 19.569 59.4233 19.4281C59.4532 19.3693 59.4979 19.3339 59.5427 19.2867C59.7366 19.134 59.9606 19.0633 60.2589 19.0633C60.5425 19.0633 60.7663 19.134 60.9602 19.2867C61.1243 19.4281 61.2288 19.628 61.2438 19.8869V20.0165C61.2292 20.2753 61.1247 20.4518 60.9606 20.5931Z" fill="white"/>
<path d="M71.5717 18.1219L70.6912 18.7221H70.6762L70.0195 19.1928V20.3696L71.5715 19.3105V24.1352H72.9742V18.1219H71.5717Z" fill="white"/>
<path d="M75.5405 18.1219V20.0637H76.8686V19.1105H78.8833L78.8534 19.1577L76.406 24.1353H77.9132L80.3905 19.1105V18.1219H75.5405Z" fill="white"/>
<path d="M83.7484 18.1219L83.5992 18.2279L82.6143 18.8986L82.1963 19.1928V20.3696L83.7484 19.3105V24.1352H85.1363V18.1219H83.7484Z" fill="white"/>
<path d="M92.284 19.134C92.1646 18.9103 92.0004 18.7103 91.7914 18.5573C91.5676 18.4043 91.3139 18.2749 91.0303 18.1925C90.7467 18.1218 90.4334 18.0748 90.0902 18.0748C89.7619 18.0748 89.4485 18.1218 89.15 18.2042C88.8664 18.2866 88.6127 18.4041 88.4039 18.5691C88.1801 18.7337 88.0158 18.922 87.8965 19.1574C87.7772 19.3927 87.7174 19.6633 87.7174 19.9458C87.7174 20.2282 87.7772 20.487 87.8815 20.6989C88.0008 20.9225 88.15 21.1107 88.344 21.2636C88.4186 21.3225 88.4932 21.3813 88.5678 21.4166C88.6871 21.499 88.8363 21.5578 88.9856 21.6049C89.2244 21.6872 89.4779 21.7343 89.7317 21.7343C89.8211 21.7343 89.9108 21.7224 90.0152 21.7107C90.1047 21.6989 90.2092 21.6872 90.2988 21.6519L88.717 24.135H90.2242L91.2986 22.4053L91.8359 21.5345C92.015 21.2638 92.1643 20.9932 92.2836 20.7343C92.4029 20.4753 92.4775 20.2047 92.4775 19.9341C92.4779 19.6399 92.4184 19.3693 92.284 19.134ZM89.3889 19.2867C89.568 19.134 89.8068 19.0633 90.0902 19.0633C90.3736 19.0633 90.6125 19.134 90.8065 19.2867C90.9856 19.4398 91.075 19.6635 91.075 19.9458C91.075 20.2282 90.9856 20.44 90.8065 20.5931C90.6125 20.7458 90.3736 20.8165 90.0902 20.8165C89.7918 20.8165 89.5529 20.7458 89.3738 20.5812C89.1947 20.4283 89.1053 20.2164 89.1053 19.9458C89.1053 19.6635 89.1949 19.44 89.3889 19.2867Z" fill="white"/>
<path d="M65.3776 43.1042C65.2882 42.9514 65.1837 42.8336 65.0345 42.7276C64.8852 42.6218 64.7212 42.5393 64.527 42.4923C64.3331 42.4334 64.139 42.41 63.9302 42.41C63.7063 42.41 63.5122 42.4334 63.3185 42.4923C63.1245 42.5393 62.9603 42.6216 62.811 42.7276C62.6618 42.8334 62.5425 42.9512 62.4528 43.1042C62.3782 43.2573 62.3335 43.4338 62.3335 43.6338V45.3637C62.3335 45.5636 62.3782 45.7402 62.4528 45.8932C62.5423 46.0459 62.6618 46.1756 62.811 46.2697C62.9603 46.3755 63.1245 46.4581 63.3185 46.5169C63.5124 46.5639 63.7063 46.5874 63.9302 46.5874C64.1391 46.5874 64.3331 46.5639 64.527 46.5169C64.721 46.4581 64.8852 46.3755 65.0345 46.2697C65.1837 46.1756 65.2882 46.0461 65.3776 45.8932C65.4673 45.7402 65.512 45.5636 65.512 45.3637V43.6338C65.512 43.4338 65.4673 43.2573 65.3776 43.1042ZM64.5569 45.3637C64.5569 45.5283 64.4974 45.6695 64.3778 45.7636C64.2733 45.8696 64.1093 45.9167 63.9302 45.9167C63.7362 45.9167 63.572 45.8696 63.4675 45.7636C63.3481 45.6695 63.2884 45.5283 63.2884 45.3637V43.6455C63.2884 43.469 63.3481 43.3278 63.4675 43.2337C63.572 43.1277 63.736 43.0808 63.9302 43.0808C64.1093 43.0808 64.2733 43.1277 64.3778 43.2337C64.4972 43.3278 64.5569 43.469 64.5569 43.6455V45.3637Z" fill="white"/>
<path d="M69.6308 44.5985C69.5859 44.4103 69.4517 44.2338 69.2428 44.069C69.1383 43.9866 69.0041 43.916 68.8398 43.8691C68.6758 43.8219 68.4967 43.7984 68.2726 43.7984C68.0935 43.7984 67.9443 43.8101 67.7951 43.8572C67.6607 43.9042 67.5562 43.9513 67.4816 43.9983V43.1158H69.6008V42.4451H66.6162V44.7634H67.4967C67.5264 44.681 67.5861 44.6103 67.6906 44.5398C67.7801 44.4692 67.9293 44.434 68.1234 44.434C68.3621 44.434 68.5264 44.4928 68.616 44.6222C68.7205 44.7517 68.7652 44.9282 68.7652 45.1752C68.7652 45.3048 68.7502 45.4224 68.7205 45.5284C68.6906 45.6343 68.6459 45.7167 68.5562 45.7873C68.4517 45.8697 68.2877 45.9168 68.1086 45.9168C67.8996 45.9168 67.7504 45.8697 67.6459 45.7873C67.5564 45.6932 67.4818 45.5638 67.4668 45.4107H66.5117C66.5268 45.5519 66.5564 45.7049 66.6162 45.8461C66.6609 45.999 66.7803 46.1403 66.9297 46.2579C67.049 46.352 67.1982 46.4227 67.3924 46.4934C67.6014 46.564 67.8252 46.5875 68.1086 46.5875C68.3771 46.5875 68.6012 46.564 68.7951 46.4934C68.989 46.4227 69.1383 46.352 69.2578 46.2579C69.4517 46.105 69.5713 45.9404 69.6308 45.7754C69.6904 45.5991 69.7203 45.3989 69.7203 45.1752C69.7203 44.975 69.6904 44.7868 69.6308 44.5985Z" fill="white"/>
<path d="M72.3473 42.0098L70.2581 46.9874H71.1536L73.2428 42.0098H72.3473Z" fill="white"/>
<path d="M75.2124 42.4451L74.1528 43.1746V43.9749L75.2124 43.2453V46.5519H76.1675V42.4451H75.2124Z" fill="white"/>
<path d="M79.376 42.4451L78.3164 43.1746V43.9749L79.376 43.2453V46.5519H80.331V42.4451H79.376Z" fill="white"/>
<path d="M82.166 44.5516V45.2576H84.4195V44.5516H82.166Z" fill="white"/>
<path d="M88.4779 43.1042C88.4033 42.9514 88.284 42.8336 88.1346 42.7276C88.0004 42.6218 87.8213 42.5393 87.6271 42.4923C87.4332 42.4334 87.239 42.41 87.0303 42.41C86.8064 42.41 86.6125 42.4334 86.4185 42.4923C86.2246 42.5393 86.0603 42.6216 85.9111 42.7276C85.7619 42.8334 85.6426 42.9512 85.568 43.1042C85.4785 43.2573 85.4336 43.4338 85.4336 43.6338V45.3637C85.4336 45.5636 85.4783 45.7402 85.568 45.8932C85.6426 46.0459 85.7619 46.1756 85.9111 46.2697C86.0603 46.3755 86.2246 46.4581 86.4185 46.5169C86.6125 46.5639 86.8066 46.5874 87.0303 46.5874C87.2392 46.5874 87.4332 46.5639 87.6271 46.5169C87.8211 46.4581 88.0002 46.3755 88.1346 46.2697C88.2838 46.1756 88.4033 46.0461 88.4779 45.8932C88.5674 45.7402 88.6121 45.5636 88.6121 45.3637V43.6338C88.6123 43.4338 88.5676 43.2573 88.4779 43.1042ZM87.6572 45.3637C87.6572 45.5283 87.5974 45.6695 87.4781 45.7636C87.3736 45.8696 87.2244 45.9167 87.0303 45.9167C86.8363 45.9167 86.6871 45.8696 86.5676 45.7636C86.4482 45.6695 86.3885 45.5283 86.3885 45.3637V43.6455C86.3885 43.469 86.4482 43.3278 86.5676 43.2337C86.6869 43.1277 86.8361 43.0808 87.0303 43.0808C87.2242 43.0808 87.3736 43.1277 87.4781 43.2337C87.5974 43.3278 87.6572 43.469 87.6572 43.6455V45.3637Z" fill="white"/>
<path d="M92.6428 43.1042C92.5681 42.9514 92.4488 42.8336 92.2996 42.7276C92.1652 42.6218 91.9861 42.5393 91.7922 42.4923C91.5982 42.4334 91.4041 42.41 91.1953 42.41C90.9715 42.41 90.7773 42.4334 90.5834 42.4923C90.5685 42.4923 90.5537 42.5041 90.5387 42.5041C90.3596 42.5511 90.2103 42.6335 90.0762 42.7276C89.927 42.8334 89.8225 42.9512 89.7328 43.1042C89.6434 43.2573 89.5986 43.4338 89.5986 43.6338V45.3637C89.5986 45.5636 89.6434 45.7402 89.7328 45.8932C89.7479 45.905 89.7478 45.9286 89.7627 45.9403C89.8523 46.0695 89.9418 46.1873 90.0762 46.2697C90.2254 46.3755 90.3894 46.4581 90.5834 46.5169C90.7773 46.5639 90.9715 46.5874 91.1953 46.5874C91.4041 46.5874 91.5982 46.5639 91.7922 46.5169C91.9861 46.4581 92.1652 46.3755 92.2996 46.2697C92.4488 46.1756 92.5681 46.0461 92.6428 45.8932C92.7324 45.7402 92.7771 45.5636 92.7771 45.3637V43.6338C92.7771 43.4338 92.7322 43.2573 92.6428 43.1042ZM91.8219 45.3637C91.8219 45.5283 91.7621 45.6695 91.6578 45.7636C91.5385 45.8696 91.3892 45.9167 91.1951 45.9167C91.0012 45.9167 90.8518 45.8696 90.7326 45.7636C90.6133 45.6695 90.5535 45.5283 90.5535 45.3637V43.6455C90.5535 43.469 90.6131 43.3278 90.7326 43.2337C90.8519 43.1277 91.0012 43.0808 91.1951 43.0808C91.3891 43.0808 91.5383 43.1277 91.6578 43.2337C91.7623 43.3278 91.8219 43.469 91.8219 43.6455V45.3637Z" fill="white"/>
<path d="M9.08838 26.594V26.9706H9.80459V28.7474H10.3268V26.9706H11.0431V26.594H9.08838Z" fill="white"/>
<path d="M13.4752 27.3942C13.4752 27.3118 13.4603 27.2411 13.4453 27.1705C13.4305 27.1 13.4006 27.0293 13.3707 26.9705C13.3558 26.9588 13.3558 26.9469 13.3408 26.9352C13.3109 26.8999 13.2662 26.853 13.2066 26.806C13.1767 26.7824 13.1469 26.7589 13.1172 26.7472C13.0574 26.7 12.9828 26.6648 12.8934 26.6412C12.8338 26.6178 12.7592 26.6059 12.6844 26.5942C12.6248 26.5825 12.565 26.5825 12.4904 26.5825C12.3262 26.5825 12.192 26.6061 12.0725 26.6414C11.9531 26.6766 11.8486 26.7356 11.759 26.8063C11.6844 26.8651 11.6396 26.9238 11.5949 26.9709C11.565 27.0298 11.5352 27.1005 11.5203 27.171C11.5055 27.2415 11.4904 27.3122 11.4904 27.3946C11.4756 27.477 11.4756 27.571 11.4756 27.6771C11.4756 27.7712 11.4756 27.8653 11.4904 27.9477C11.4904 27.9831 11.4904 28.0182 11.5053 28.0418C11.5053 28.0889 11.5053 28.1359 11.5201 28.1711C11.535 28.2418 11.5648 28.3124 11.5947 28.3712C11.6395 28.43 11.6842 28.477 11.7588 28.536C11.8482 28.6065 11.9527 28.6654 12.0723 28.7006C12.1768 28.7478 12.2961 28.7595 12.4453 28.7595H12.49C12.6393 28.7595 12.7734 28.7478 12.893 28.7006C13.0123 28.6654 13.1168 28.6065 13.2064 28.536C13.281 28.4772 13.3258 28.43 13.3705 28.3712C13.4004 28.3124 13.4301 28.2418 13.4451 28.1711C13.4599 28.1123 13.475 28.0299 13.475 27.9477V27.8888C13.4898 27.83 13.4898 27.7476 13.4898 27.6771C13.4902 27.5707 13.4902 27.4766 13.4752 27.3942ZM12.923 28.0884C12.923 28.1354 12.9082 28.1707 12.8932 28.1942C12.8635 28.2295 12.8484 28.2531 12.8185 28.2649C12.7887 28.3002 12.7439 28.3355 12.6842 28.359C12.6543 28.3707 12.6096 28.3826 12.5648 28.3707C12.55 28.3826 12.5201 28.3826 12.4902 28.3826C12.4156 28.3826 12.341 28.3826 12.2812 28.359C12.2365 28.3355 12.1768 28.3002 12.132 28.2649C12.1172 28.2532 12.0873 28.2297 12.0725 28.1942C12.0576 28.1707 12.0426 28.1354 12.0426 28.0884C12.0277 28.0532 12.0127 27.9943 12.0127 27.9236V27.4177C12.0127 27.347 12.0275 27.2999 12.0426 27.2528C12.0426 27.2058 12.0574 27.1704 12.0725 27.147C12.0873 27.1117 12.1172 27.0881 12.132 27.0646C12.1768 27.0293 12.2365 27.0057 12.2812 26.9822C12.3408 26.9703 12.4154 26.9586 12.4902 26.9586C12.5498 26.9586 12.6244 26.9703 12.6842 26.9822C12.7439 27.0057 12.7887 27.0293 12.8185 27.0646C12.8484 27.0881 12.8633 27.1117 12.8932 27.147C12.908 27.1705 12.923 27.2058 12.923 27.2528C12.9379 27.2999 12.9379 27.347 12.9529 27.4177V27.9236C12.9381 27.9825 12.9381 28.0295 12.923 28.0649C12.923 28.0767 12.923 28.0884 12.923 28.0884Z" fill="white"/>
<path d="M16.0118 27.0057C15.9671 26.9233 15.9224 26.8528 15.8327 26.794C15.7581 26.7351 15.6684 26.688 15.5642 26.6526C15.4448 26.6173 15.3253 26.5938 15.1761 26.5938H14.1313V28.7471H14.6536V27.9352H15.1761C15.3253 27.9352 15.4446 27.9235 15.5642 27.8881C15.6684 27.8528 15.7581 27.8057 15.8327 27.7351C15.9224 27.6763 15.9669 27.6058 16.0118 27.5232C16.0565 27.4408 16.0714 27.3586 16.0714 27.2643C16.0716 27.1824 16.0567 27.0883 16.0118 27.0057ZM15.4448 27.4765C15.4001 27.5118 15.3554 27.5354 15.2956 27.5354C15.2509 27.5589 15.206 27.5589 15.1464 27.5589H14.6538V26.9706H15.1464C15.2808 26.9706 15.3702 27.0059 15.4448 27.053C15.5044 27.1118 15.5493 27.1824 15.5493 27.2648C15.5493 27.3589 15.5044 27.4294 15.4448 27.4765Z" fill="white"/>
<path d="M18.4148 26.9706V26.594H16.624V28.7474H18.4148V28.3708H17.1465V27.853H18.2209V27.4765H17.1465V26.9704H18.4148V26.9706Z" fill="white"/>
<path d="M20.2502 28.3007C20.1756 28.3596 20.0711 28.383 19.9369 28.383C19.8623 28.383 19.8026 28.383 19.743 28.3594C19.6832 28.3358 19.6385 28.3123 19.5938 28.277C19.5789 28.2535 19.549 28.2299 19.534 28.2063C19.5192 28.1711 19.5041 28.1356 19.4893 28.0887C19.4893 28.0534 19.4744 27.9946 19.4744 27.9239C19.4596 27.8532 19.4596 27.7709 19.4596 27.6768C19.4596 27.5709 19.4596 27.4885 19.4744 27.4179C19.4744 27.3472 19.4893 27.3001 19.4893 27.253C19.5041 27.206 19.5192 27.1706 19.534 27.1472C19.5488 27.1119 19.5787 27.0884 19.5938 27.0648C19.6385 27.0295 19.6832 27.006 19.743 26.9824C19.8026 26.9705 19.8623 26.9588 19.9369 26.9588C20.0711 26.9588 20.1756 26.9824 20.2354 27.0412C20.31 27.1001 20.3697 27.1706 20.3846 27.2647H20.9367C20.8772 27.0294 20.7727 26.8646 20.5936 26.7471C20.4145 26.6411 20.1906 26.5823 19.9369 26.5823C19.7727 26.5823 19.6385 26.6058 19.519 26.6411C19.4145 26.6764 19.2951 26.7354 19.2057 26.8061C19.1459 26.8649 19.0864 26.9236 19.0565 26.9707C19.0117 27.0295 18.9819 27.1002 18.967 27.1708C18.9522 27.2413 18.9371 27.312 18.9371 27.3944V27.9474C18.9371 28.0298 18.952 28.1121 18.967 28.1709C18.9819 28.2416 19.0117 28.3121 19.0565 28.371C19.0864 28.4298 19.1461 28.4768 19.2057 28.5358C19.2951 28.6063 19.4145 28.6651 19.519 28.7004C19.6383 28.7475 19.7727 28.7592 19.9369 28.7592C20.1906 28.7592 20.4145 28.7004 20.5936 28.5946C20.7727 28.4768 20.8772 28.312 20.9367 28.0885H20.3996C20.3695 28.1712 20.31 28.2419 20.2502 28.3007Z" fill="white"/>
<path d="M23.3693 27.1708C23.3544 27.1002 23.3245 27.0295 23.2798 26.9707C23.2499 26.9236 23.1903 26.8649 23.1306 26.8061C23.0409 26.7354 22.9366 26.6765 22.8173 26.6411C22.698 26.6058 22.5636 26.5823 22.3993 26.5823C22.2353 26.5823 22.1009 26.6058 21.9816 26.6411C21.8622 26.6764 21.7577 26.7354 21.6681 26.8061C21.6083 26.8649 21.5488 26.9236 21.5189 26.9707C21.4741 27.0295 21.4443 27.1002 21.4294 27.1708C21.4146 27.2413 21.3995 27.312 21.3995 27.3944V27.9474C21.3995 28.0298 21.4144 28.1121 21.4294 28.1709C21.4443 28.2416 21.4741 28.3121 21.5189 28.371C21.5488 28.4298 21.6083 28.4768 21.6681 28.5358C21.7575 28.6063 21.862 28.6651 21.9816 28.7004C22.1009 28.7475 22.2353 28.7592 22.3993 28.7592C22.5636 28.7592 22.6978 28.7475 22.8173 28.7004C22.9366 28.6651 23.0411 28.6063 23.1306 28.5358C23.1903 28.4769 23.2499 28.4298 23.2798 28.371C23.3245 28.3121 23.3544 28.2416 23.3693 28.1709C23.3841 28.1121 23.3991 28.0297 23.3991 27.9474V27.3944C23.3991 27.312 23.3841 27.2413 23.3693 27.1708ZM22.8618 27.924C22.8618 27.9947 22.847 28.0534 22.847 28.0888C22.8321 28.1358 22.8173 28.1711 22.8023 28.1946C22.7874 28.2299 22.7724 28.2535 22.7427 28.2653C22.698 28.3006 22.6532 28.3358 22.5935 28.3594C22.5339 28.383 22.4741 28.383 22.3995 28.383C22.3249 28.383 22.2654 28.383 22.2056 28.3594C22.146 28.3358 22.1011 28.3006 22.0564 28.2653C22.0265 28.2536 22.0116 28.23 21.9968 28.1946C21.982 28.1711 21.9669 28.1358 21.9521 28.0888C21.9372 28.0535 21.9372 27.9947 21.9372 27.924C21.9224 27.8533 21.9224 27.7711 21.9224 27.677C21.9224 27.571 21.9224 27.4886 21.9372 27.4181C21.9372 27.3474 21.9372 27.3003 21.9521 27.2531C21.9669 27.2062 21.982 27.1708 21.9968 27.1473C22.0116 27.1121 22.0267 27.0885 22.0564 27.0649C22.1011 27.0297 22.1458 27.0061 22.2056 26.9826C22.2654 26.9707 22.3249 26.959 22.3995 26.959C22.4741 26.959 22.5339 26.9707 22.5935 26.9826C22.6532 27.0061 22.698 27.0297 22.7427 27.0649C22.7726 27.0885 22.7874 27.1121 22.8023 27.1473C22.8171 27.1709 22.8321 27.2062 22.847 27.2531C22.847 27.3003 22.8618 27.3474 22.8618 27.4181C22.8767 27.4886 22.8767 27.5709 22.8767 27.677C22.8767 27.7709 22.8767 27.8533 22.8618 27.924Z" fill="white"/>
<path d="M25.593 26.594V27.9119L24.5186 26.594H24.041V28.7474H24.5783V27.4295L25.6527 28.7474H26.1303V26.594H25.593Z" fill="white"/>
<path d="M29.7712 27.9239C29.7415 27.8651 29.6966 27.8061 29.637 27.7591C29.6071 27.7355 29.5772 27.7121 29.5475 27.7003C29.5177 27.6884 29.4878 27.6648 29.4282 27.6414C29.652 27.5472 29.7714 27.3944 29.7714 27.1942C29.7714 27.1001 29.7417 27.0177 29.7118 26.947C29.6671 26.8765 29.6073 26.8178 29.5327 26.7588C29.4729 26.7117 29.3835 26.6645 29.279 26.641C29.1745 26.6176 29.0552 26.594 28.9208 26.594H27.8315V28.7474H28.9657C29.0999 28.7474 29.2194 28.7238 29.3239 28.7003C29.4134 28.665 29.503 28.6297 29.5776 28.571C29.6522 28.5239 29.712 28.4532 29.7419 28.3827C29.7866 28.312 29.8015 28.2179 29.8015 28.1236C29.8011 28.0533 29.786 27.9827 29.7712 27.9239ZM28.3685 26.9706H28.8907C28.9952 26.9706 29.0847 26.9941 29.1444 27.0412C29.2042 27.0884 29.2339 27.1471 29.2339 27.2176C29.2339 27.3 29.204 27.359 29.1444 27.4061C29.0849 27.4414 28.9952 27.4649 28.8907 27.4649H28.3685V26.9706ZM29.1743 28.3004C29.1145 28.3474 29.0251 28.371 28.9206 28.371H28.3685V27.8413H28.9206C29.0251 27.8413 29.1145 27.8649 29.1743 27.912C29.2339 27.9592 29.2788 28.0178 29.2788 28.1002C29.2788 28.1826 29.2339 28.2533 29.1743 28.3004Z" fill="white"/>
<path d="M31.5473 26.594H31.1295L30.1445 28.7474H30.6967L30.8609 28.3591H31.8308L31.9949 28.7474H32.5471L31.5473 26.594ZM31.0101 28.0063L31.3533 27.2294L31.6816 28.0063H31.0101Z" fill="white"/>
<path d="M34.5166 26.594V27.9119L33.4422 26.594H32.9795V28.7474H33.5018V27.4295L34.5762 28.7474H35.0537V26.594H34.5166Z" fill="white"/>
<path d="M37.0238 27.4529L37.9193 26.594H37.2775L36.3074 27.5353V26.594H35.7852V28.7474H36.3074V28.1001L36.6656 27.7706L37.367 28.7472H37.9787L37.0238 27.4529Z" fill="white"/>
<path d="M24.7665 37.8285V46.087C24.7665 46.4194 24.4216 46.6914 24.0001 46.6914H11.1004C10.6789 46.6914 10.334 46.4194 10.334 46.087V37.8285C10.334 37.4961 10.6787 37.2241 11.1004 37.2241H24.0001C24.4216 37.2241 24.7665 37.4961 24.7665 37.8285Z" fill="#191D88"/>
<path opacity="0.2" d="M21.9371 39.2209L24.1756 37.4558H23.4444L20.9969 39.3857L20.6985 39.6211L19.7731 40.3626L19.4747 40.598H16.1319L14.5948 39.3859L14.1022 38.9858L12.1622 37.4561H11.446L13.371 38.9858L13.6694 39.2212H10.5952V39.6214H14.1917L15.1468 40.3863L15.4005 40.5983V41.0689H10.5956V41.4692H15.4008V42.9166H10.5956V43.3167H15.4008V43.7874H15.4157L14.4905 44.5288L14.1921 44.7643H10.5956V45.1642H13.6846L11.7446 46.694H12.461L14.4011 45.1642L16.1469 43.7875H19.4748L23.1459 46.694H23.8772L21.9371 45.1642H24.7727V44.7643H21.4297L20.1911 43.7875H20.2209V43.3169H24.7725V42.9167H20.2209V41.4693H24.7725V41.0691H20.2209V40.5984H20.1911L21.4297 39.6217H24.7725V39.2216H21.9371V39.2209ZM19.6987 43.3866H15.9083V40.9978H19.6987V43.3866Z" fill="white"/>
<path d="M15.8787 40.3625L16.1771 40.5979H16.192L16.401 40.7625H18.714L19.2215 40.3625H15.8787ZM15.8787 40.3625L16.1771 40.5979H16.192L16.401 40.7625H18.714L19.2215 40.3625H15.8787ZM15.8787 40.3625L16.1771 40.5979H16.192L16.401 40.7625H18.714L19.2215 40.3625H15.8787ZM15.8787 40.3625L16.1771 40.5979H16.192L16.401 40.7625H18.714L19.2215 40.3625H15.8787ZM15.8787 40.3625L16.1771 40.5979H16.192L16.401 40.7625H18.714L19.2215 40.3625H15.8787ZM15.8787 40.3625L16.1771 40.5979H16.192L16.401 40.7625H18.714L19.2215 40.3625H15.8787ZM15.1475 40.3625V43.5515H19.9675V40.3625H15.1475ZM19.4453 43.1512H15.6549V40.7624H19.4453V43.1512ZM15.8787 40.3625L16.1771 40.5979H16.192L16.401 40.7625H18.714L19.2215 40.3625H15.8787ZM18.9976 43.3867L18.6992 43.1512H16.401L16.1025 43.3867H16.0877L15.8937 43.5515H19.2215L18.9976 43.3867ZM15.8787 40.3625L16.1771 40.5979H16.192L16.401 40.7625H18.714L19.2215 40.3625H15.8787ZM15.8787 40.3625L16.1771 40.5979H16.192L16.401 40.7625H18.714L19.2215 40.3625H15.8787ZM15.8787 40.3625L16.1771 40.5979H16.192L16.401 40.7625H18.714L19.2215 40.3625H15.8787ZM15.8787 40.3625L16.1771 40.5979H16.192L16.401 40.7625H18.714L19.2215 40.3625H15.8787Z" fill="#717070"/>
<path d="M14.1433 38.9867L14.6543 39.3896H10.334V38.9867H14.1433Z" fill="#717070"/>
<path d="M24.7667 38.9867V39.3896H20.4467L20.9574 38.9867H24.7667Z" fill="#717070"/>
<path d="M15.6504 40.8329H10.334V41.2358H15.6504V40.8329Z" fill="#717070"/>
<path d="M24.7669 40.8329H19.4506V41.2358H24.7669V40.8329Z" fill="#717070"/>
<path d="M15.6504 42.6797H10.334V43.0826H15.6504V42.6797Z" fill="#717070"/>
<path d="M24.7669 42.6797H19.4506V43.0826H24.7669V42.6797Z" fill="#717070"/>
<path d="M14.6549 44.5258L14.1439 44.9287H10.334V44.5258H14.6549Z" fill="#717070"/>
<path d="M24.767 44.5258V44.9287H20.9571L20.4462 44.5258H24.767Z" fill="#717070"/>
<path d="M16.3953 43.1539L11.909 46.6914H11.1868L15.6731 43.1539H16.3953Z" fill="#717070"/>
<path d="M23.9144 37.2241L19.4283 40.7618H18.7061L23.1922 37.2241H23.9144Z" fill="#717070"/>
<path d="M16.3951 40.7618H15.6731L11.1868 37.2241H11.909L16.3951 40.7618Z" fill="#717070"/>
<path d="M23.9149 46.6914H23.1926L19.2172 43.5567L19.0045 43.389L18.7063 43.1539H19.4286L19.7065 43.3729L19.9395 43.5567L20.2172 43.7758L21.1688 44.526L21.467 44.7612L21.6797 44.9289L21.978 45.1641L23.9149 46.6914Z" fill="#717070"/>
<path d="M41.5055 37.2244H41.4199H40.6977H29.4136H28.6913H28.6058C28.1843 37.2244 27.8394 37.4963 27.8394 37.8286V38.9867V39.3896V40.8333V41.2362V42.6799V43.0828V44.526V44.9289V46.0871C27.8394 46.4195 28.1843 46.6914 28.6058 46.6914H28.6919H29.2456H29.4142H29.9679H40.6543H40.6971H41.3766H41.4194H41.5055C41.927 46.6914 42.2719 46.4195 42.2719 46.0871V45.1641V44.9289V44.7612V44.526V43.318V43.0828V42.9151V42.6799V41.4714V41.2362V41.0685V40.8333V39.6248V39.3896V39.2219V38.9867V37.8286C42.2719 37.4963 41.927 37.2244 41.5055 37.2244Z" fill="#ECEDF7"/>
<path d="M42.2717 41.0092V46.1416C42.2717 46.474 41.9262 46.7464 41.5047 46.7464H32.5688L27.8384 43.0163V37.8829C27.8384 37.5513 28.1839 37.2791 28.6054 37.2791H37.5413L42.2717 41.0092Z" fill="#A0BFC2"/>
<path opacity="0.2" d="M41.4825 37.2122H41.397H41.0355L29.0297 46.6792H29.2226H29.3912H29.9449H40.6314H40.6741H41.3536H41.3964H41.4825C41.904 46.6792 42.2489 46.4074 42.2489 46.0749V45.1519V44.9167V44.749V44.5138V43.3058V43.0706V42.9029V42.6677V41.4592V41.224V41.0563V40.8211V39.6126V39.3774V39.2097V38.9745V37.8162C42.2489 37.484 41.904 37.2122 41.4825 37.2122Z" fill="#040000"/>
<path d="M34.4443 10.2897L34.8047 9.3855H37.7236L37.3633 10.2897H34.4443Z" fill="white"/>
<path d="M41.6225 12.7104H40.5352L40.417 7.38989H41.9232L41.8945 10.8573L44.9162 7.38989H46.4326L41.6225 12.7104Z" fill="white"/>
<path d="M45.1943 12.7104L47.5351 7.38989H48.9894L46.6486 12.7104H45.1943Z" fill="white"/>
<path d="M53.8874 11.1418C53.7736 11.4008 53.603 11.6295 53.3765 11.829C53.1491 12.0284 52.8812 12.1963 52.5739 12.3331C52.2657 12.4704 51.9269 12.5752 51.556 12.6474C51.1865 12.7192 50.806 12.7557 50.4152 12.7557C49.8507 12.7557 49.3691 12.7045 48.9712 12.6024C48.5726 12.5003 48.2503 12.3172 48.0037 12.0532L49.2414 11.3807C49.4044 11.5498 49.6246 11.6671 49.9035 11.7315C50.1814 11.7966 50.4915 11.8288 50.8339 11.8288C51.2734 11.8288 51.6296 11.7717 51.9032 11.6566C52.1767 11.5424 52.3605 11.3782 52.4548 11.1635C52.5359 10.9793 52.5238 10.8327 52.4189 10.7226C52.364 10.6733 52.2962 10.6355 52.2169 10.6106C52.1368 10.5856 52.0079 10.5632 51.8277 10.5431L50.9814 10.4464C50.662 10.4118 50.4031 10.3577 50.2048 10.2859C50.006 10.2136 49.8488 10.1199 49.7314 10.0056C49.483 9.76122 49.4593 9.4127 49.6587 8.95913C49.7638 8.72011 49.9185 8.50249 50.1234 8.30535C50.329 8.10899 50.574 7.93927 50.8603 7.79758C51.146 7.65527 51.4663 7.54454 51.8224 7.46491C52.1784 7.38529 52.5589 7.34509 52.9632 7.34509C53.4792 7.34509 53.9079 7.39253 54.2501 7.4874C54.5927 7.58165 54.8741 7.74106 55.0964 7.96545L53.89 8.61553C53.7302 8.45613 53.5234 8.35525 53.2695 8.31336C53.0165 8.27086 52.7671 8.24945 52.5236 8.24945C52.1327 8.24945 51.8158 8.31567 51.573 8.44766C51.3302 8.57965 51.1677 8.73766 51.0866 8.92202C51.0558 8.99194 51.0427 9.05878 51.0454 9.12392C51.0486 9.1883 51.0757 9.24852 51.1283 9.30335C51.1829 9.35325 51.2574 9.39514 51.3499 9.43041C51.4429 9.46506 51.5656 9.49001 51.72 9.50464L52.5661 9.60198C52.8929 9.63724 53.1529 9.68714 53.3484 9.75152C53.5429 9.81667 53.695 9.90599 53.8056 10.0203C53.9503 10.1498 54.0265 10.3098 54.0343 10.4988C54.0419 10.6881 53.9929 10.9021 53.8874 11.1418Z" fill="white"/>
<path d="M58.8824 12.7104L58.8564 11.7691H56.2101L55.3455 12.7104H53.8281L58.8791 7.38989H60.0191L60.3988 12.7104H58.8824ZM58.7959 8.95881L57.0025 10.8944H58.8545L58.7959 8.95881Z" fill="white"/>
<path d="M62.2759 10.2897L62.6362 9.3855H65.5552L65.1948 10.2897H62.2759Z" fill="white"/>
<path opacity="0.1" d="M99.9995 2.50638V47.4817C99.9995 48.8703 98.5669 50 96.8208 50H50.0072V0H96.8208C98.5669 0 99.9995 1.12967 99.9995 2.50638Z" fill="#040000"/>
</svg>
