<svg width="67" height="54" viewBox="0 0 67 54" fill="none" xmlns="http://www.w3.org/2000/svg">
<path d="M66.1625 31.1083L60.5792 35.9416L56.6709 32.5583L62.2542 27.7249C59.1834 26.2749 55.275 26.7583 52.4834 29.1749C49.9709 31.3499 49.4125 34.7333 50.8084 37.6333L36.2917 50.1999L40.2 53.5833L54.7167 41.0166C57.7875 42.2249 61.6959 41.9833 64.4875 39.5666C67 37.3916 67.5584 34.0083 66.1625 31.1083Z" fill="#44E2EE"/>
<path d="M33.5 46.3333H0V17.3333H11.1667V0.416626H44.6667V10.0833H53.0417V22.1666H47.4583V14.9166H44.6667V29.4166H33.5V34.25H39.0833V39.0833H33.5V46.3333ZM5.58333 41.5H27.9167V39.0833H19.5417V29.4166H11.1667V22.1666H5.58333V41.5ZM25.125 34.25H27.9167V29.4166H25.125V34.25ZM33.5 24.5833H39.0833V14.9166H25.125V17.3333H33.5V24.5833ZM25.125 24.5833H27.9167V22.1666H25.125V24.5833ZM16.75 24.5833H19.5417V22.1666H16.75V24.5833ZM16.75 17.3333H19.5417V10.0833H39.0833V5.24996H16.75V17.3333Z" fill="#44E2EE"/>
</svg>
