<svg width="66" height="61" viewBox="0 0 66 61" fill="none" xmlns="http://www.w3.org/2000/svg">
<path d="M3.47541 45.8918V39.3636C7.76112 42.987 16.5667 45.2987 26.7635 45.2987C27.7939 45.2987 28.8009 45.2597 29.7939 45.2121L34.4824 40.8788C32.103 41.1948 29.5222 41.381 26.7635 41.381C13.0398 41.381 3.47541 36.9437 3.47541 32.961V26.4329C7.76112 30.0563 16.5667 32.3723 26.7635 32.3723C31.3396 32.3723 35.6019 31.8874 39.3302 31.0433C39.7939 29.3593 40.5246 27.7403 41.5316 26.2554C37.6253 27.4762 32.5761 28.2727 26.7681 28.2727C13.0445 28.2727 3.48009 23.8355 3.48009 19.8528V14.0693C7.66744 17.3506 17.3677 19.0476 26.7681 19.0476C36.178 19.0476 45.8735 17.3506 50.0656 14.0693V19.671C50.9649 19.3333 51.9063 19.0736 52.8618 18.8788V12.9048C52.8618 11.9654 52.2342 9.09957 52.2342 8.64069C52.2342 3.0303 39.1101 0 26.7681 0C14.4309 0 1.31147 3.0303 1.31147 8.64069C1.31147 9.09524 0.683838 11.9654 0.683838 12.9048V19.8485C0.683838 20.9177 1.04918 21.9394 1.69555 22.9134L1.61124 23.0476C0.997655 24.0346 0.683838 25.0346 0.683838 26.0216V32.9654C0.683838 34 1.03044 34.9957 1.63934 35.9394L1.61124 35.9827C0.997655 36.974 0.683838 37.9697 0.683838 38.9567V45.9004C0.683838 51.2338 9.2459 55.5584 21.007 56.6364C21.1897 55.5801 21.3677 54.7576 21.5597 54.0952C10.6838 53.1429 3.47541 49.3506 3.47541 45.8918Z" fill="#95DCF1"/>
<path d="M61.9719 25.5368C57.5082 21.4112 50.267 21.4112 45.7986 25.5368C42.5433 28.5454 41.6721 32.9221 43.1663 36.671L25.1101 53.355C24.815 53.6277 23.8688 60.5887 23.8688 60.5887L24.3138 61C24.3138 61 31.5691 59.8701 31.8688 59.6017L33.5972 58.0043H37.2506C37.6674 58.0043 38.0047 57.697 38.0047 57.3073V54.1472H39.8314C40.2482 54.1472 40.5808 53.8355 40.5808 53.4502V51.5411L40.8243 51.3203H43.7658C44.1873 51.3203 44.5246 51.0086 44.5246 50.6234V47.9047L49.9204 42.9177C53.9766 44.2987 58.7119 43.4978 61.9672 40.4805C66.4356 36.355 66.4356 29.6623 61.9719 25.5368ZM28.8524 54.5065C28.4075 54.9134 27.6955 54.9134 27.2506 54.5065C26.8103 54.0996 26.8103 53.4372 27.2506 53.026L43.7049 37.8182C44.0515 38.4502 44.4684 39.0476 44.9649 39.6147L28.8524 54.5065ZM61.0117 31.7316C59.4239 33.1991 56.8478 33.1991 55.2599 31.7316C53.6721 30.2641 53.6721 27.8831 55.2599 26.4156C56.8478 24.9524 59.4239 24.948 61.0117 26.4156C62.5995 27.8831 62.5995 30.2641 61.0117 31.7316Z" fill="#95DCF1"/>
</svg>
