<svg width="80" height="80" viewBox="0 0 80 80" fill="none" xmlns="http://www.w3.org/2000/svg">
<path opacity="0.4" d="M39.1333 59.1663H58.8666C58.5666 59.4329 58.2666 59.6663 57.9666 59.9329L43.7333 70.5996C39.0333 74.0996 31.3667 74.0996 26.6333 70.5996L12.3667 59.9329C9.23333 57.5996 6.66663 52.4329 6.66663 48.5329V23.8328C6.66663 19.7661 9.76666 15.2661 13.5667 13.8328L30.1666 7.59946C32.9 6.56613 37.4333 6.56613 40.1666 7.59946L56.7333 13.8328C59.9 15.0328 62.6 18.3661 63.4333 21.7661H39.1C38.3666 21.7661 37.7 21.7995 37.0666 21.7995C30.9 22.1662 29.2999 24.3995 29.2999 31.4328V49.5326C29.3333 57.1993 31.3 59.1663 39.1333 59.1663Z" stroke="#6CE1F9" stroke-width="1.5" stroke-linecap="round" stroke-linejoin="round"/>
<path d="M29.3359 37.4006H73.336" stroke="#6CE1F9" stroke-width="1.5" stroke-miterlimit="10" stroke-linecap="round" stroke-linejoin="round"/>
<path d="M73.336 31.3992V49.8993C73.2693 57.2993 71.236 59.1323 63.536 59.1323H39.136C31.3026 59.1323 29.3359 57.166 29.3359 49.466V31.3659C29.3359 24.3659 30.9359 22.1325 37.1027 21.7325C37.736 21.7325 38.4027 21.6992 39.136 21.6992H63.536C71.3693 21.7326 73.336 23.6659 73.336 31.3992Z" stroke="#6CE1F9" stroke-width="1.5" stroke-linecap="round" stroke-linejoin="round"/>
<path d="M37.7343 50.866H42.1676" stroke="#6CE1F9" stroke-width="1.5" stroke-miterlimit="10" stroke-linecap="round" stroke-linejoin="round"/>
<path d="M49.1666 50.866H60.0666" stroke="#6CE1F9" stroke-width="1.5" stroke-miterlimit="10" stroke-linecap="round" stroke-linejoin="round"/>
</svg>
